<svg width="937px" height="430px" viewBox="0 0 937 430" xmlns="http://www.w3.org/2000/svg" xmlns:xlink="http://www.w3.org/1999/xlink" style="display: block; letter-spacing: normal; word-spacing: normal; width: 937px; height: 430px;"><g clip-path="url(#mainClip6355)"><g class="gojs-diagram" transform="matrix(1, 0, 0, 1, 330.5386702627819, 38.454657863803476)"><g transform="matrix(1, 0, 0, 1, 176.06716759712862, 101.04234201246678)" data-class-name="Link" data-key="-2" data-from-key="-5" data-to-key="295"><path stroke="#424242" fill="none" stroke-width="2" stroke-linecap="butt" stroke-linejoin="miter" stroke-miterlimit="10" d="M 0.1404043684882197,0 L 0.1404043684882197,64.94633909871314 L 0,64.94633909871314 L 0,119.89267819742625" transform="matrix(1, 0, 0, 1, 1, 1)"/></g><g transform="matrix(1, 0, 0, 1, 58.2116757198211, 0)" data-class-name="Node" data-key="293"><g transform="matrix(1, 0, 0, 1, 0, 0)"><g transform="matrix(1, 0, 0, 1, 64.71144506475243, 0)" data-item-index="0"><path stroke="transparent" fill="transparent" stroke-width="1" stroke-linecap="butt" stroke-linejoin="miter" stroke-miterlimit="10" d="M 30,39.99999999999999 L 1.5,40 C 1.499999999999993,19.01317950642985 14.25988462982238,2 29.999999999999996,2 z" transform="matrix(0.9063077870366497, -0.4226182617407, 0.4226182617407, 0.9063077870366497, 2.6644630243886738, 15.343010876609675)"/></g><g transform="matrix(1, 0, 0, 1, 0, 27.129892691232172)"><path stroke="transparent" fill="transparent" stroke-width="1" stroke-linecap="butt" stroke-linejoin="miter" stroke-miterlimit="10" d="M 30,39.99999999999999 L 1.5,40 C 1.499999999999993,19.01317950642985 14.25988462982238,2 29.999999999999996,2 z" transform="matrix(0.9063077870366497, -0.4226182617407, 0.4226182617407, 0.9063077870366497, 2.6644630243886738, 15.343010876609675)"/></g></g><g transform="matrix(1, 0, 0, 1, 36.06716759712863, 81.38967807369652)"><path stroke="#919191" fill="#59ff04" stroke-width="2" stroke-linecap="butt" stroke-linejoin="miter" stroke-miterlimit="10" d="M 0,0 L 40,0 L 40,40 L 0,40 z" transform="matrix(1, 0, 0, 1, 1, 1)" data-port-id=""/><g transform="matrix(1, 0, 0, 1, 11, 11)"><g transform="matrix(1, 0, 0, 1, 0, 0)" data-item-index="0"><path stroke="none" fill="transparent" d="M 1,1 L 20,1 L 20,20 L 1,20 z" transform="matrix(1, 0, 0, 1, 0, 0)"/></g><g transform="matrix(1, 0, 0, 1, 0, 0)" data-item-index="1"><path stroke="none" fill="transparent" d="M 1,1 L 20,1 L 20,20 L 1,20 z" transform="matrix(1, 0, 0, 1, 0, 0)"/></g></g><text x="8" y="13.870898437500001" style="font: 16px serif" text-anchor="middle" fill="black" transform="matrix(1, 0, 0, 1, 13, 11.752734375)">53</text></g><text x="18.78271484375" y="10.558374023437501" style="font: 13px sans-serif" text-anchor="middle" fill="black" transform="matrix(1, 0, 0, 1, 38.28445275337863, 123.38967807369652)">Carlos</text><text x="21.9248046875" y="10.558374023437501" style="font: 13px sans-serif" text-anchor="middle" fill="black" transform="matrix(1, 0, 0, 1, 35.14236290962863, 137.4675101049465)">I11,B18</text></g><g transform="matrix(1, 0, 0, 1, 202.34601091407836, 0)" data-class-name="Node" data-key="294"><g transform="matrix(1, 0, 0, 1, 0, 0)"><g transform="matrix(1, 0, 0, 1, 0, 0)" data-item-index="0"><path stroke="transparent" fill="transparent" stroke-width="1" stroke-linecap="butt" stroke-linejoin="miter" stroke-miterlimit="10" d="M 30,39.99999999999999 L 1.5,40 C 1.499999999999993,19.01317950642985 14.25988462982238,2 29.999999999999996,2 z" transform="matrix(0.9396926207859084, 0.3420201433256687, -0.3420201433256687, 0.9396926207859084, 16.32166211508254, 2.6408563820557873)"/></g><g transform="matrix(1, 0, 0, 1, 26.42335143964221, 26.56501094765899)"><path stroke="transparent" fill="transparent" stroke-width="1" stroke-linecap="butt" stroke-linejoin="miter" stroke-miterlimit="10" d="M 30,39.99999999999999 L 1.5,40 C 1.499999999999993,19.01317950642985 14.25988462982238,2 29.999999999999996,2 z" transform="matrix(0.9396926207859084, 0.3420201433256687, -0.3420201433256687, 0.9396926207859084, 16.32166211508254, 2.6408563820557873)"/></g></g><g transform="matrix(1, 0, 0, 1, 15.788324280178898, 79.69503284297697)"><path stroke="#a1a1a1" fill="#59ff04" stroke-width="2" stroke-linecap="butt" stroke-linejoin="miter" stroke-miterlimit="10" d="M 20,0 C 31.04569499661587,0 40,8.954305003384128 40,20 C 40,31.04569499661587 31.04569499661587,40 20,40 C 8.954305003384128,40 0,31.04569499661587 0,20 C 0,8.954305003384128 8.954305003384128,0 20,0 z" transform="matrix(1, 0, 0, 1, 1, 1)" data-port-id=""/><g transform="matrix(1, 0, 0, 1, 11, 11)"><g transform="matrix(1, 0, 0, 1, 0, 0)" data-item-index="0"><path stroke="none" fill="transparent" d="M 1,1 L 20,1 L 20,20 L 1,20 z" transform="matrix(1, 0, 0, 1, 0, 0)"/></g><g transform="matrix(1, 0, 0, 1, 0, 0)" data-item-index="1"><path stroke="none" fill="transparent" d="M 1,1 L 20,1 L 20,20 L 1,20 z" transform="matrix(1, 0, 0, 1, 0, 0)"/></g></g><text x="8" y="13.870898437500001" style="font: 16px serif" text-anchor="middle" fill="black" transform="matrix(1, 0, 0, 1, 13, 11.752734375)">43</text></g><text x="16.62451171875" y="10.558374023437501" style="font: 13px sans-serif" text-anchor="middle" fill="black" transform="matrix(1, 0, 0, 1, 20.163812561428898, 121.69503284297697)">Sonia</text><text x="12.65087890625" y="10.558374023437501" style="font: 13px sans-serif" text-anchor="middle" fill="black" transform="matrix(1, 0, 0, 1, 24.137445373928898, 135.77286487422697)">I272</text></g><g transform="matrix(1, 0, 0, 1, 119.99999999999999, 140.54534213619652)" data-class-name="Node" data-key="295"><g transform="matrix(1, 0, 0, 1, 0, 0)"><g transform="matrix(1, 0, 0, 1, 64.71144506475243, 0)" data-item-index="0"><path stroke="transparent" fill="transparent" stroke-width="1" stroke-linecap="butt" stroke-linejoin="miter" stroke-miterlimit="10" d="M 30,39.99999999999999 L 1.5,40 C 1.499999999999993,19.01317950642985 14.25988462982238,2 29.999999999999996,2 z" transform="matrix(0.9063077870366497, -0.4226182617407, 0.4226182617407, 0.9063077870366497, 2.6644630243886738, 15.343010876609675)"/></g><g transform="matrix(1, 0, 0, 1, 0, 27.129892691232172)"><path stroke="#000000" fill="none" stroke-width="1" stroke-linecap="butt" stroke-linejoin="miter" stroke-miterlimit="10" d="M 19.426906265177273,2.6927153154020207 C 20.097480269342878,2.692715315402021 20.641087906750847,3.295500170936856 20.641087906750847,4.039072973103031 L 20.64108790675085,35.79426468763906 L 28.28071879553182,27.3202895900689 C 28.755485194797842,26.793840050921947 29.525233609367532,26.793840058682722 30.000000000000007,27.320289607403076 C 30.47476638563,27.84673915057638 30.4747663843662,28.70028249505899 29.999999997177223,29.226732036503602 L 20.28654686741137,39.99759329498161 C 19.8129791686717,40.524042838915264 19.044202489377177,40.525120357454654 18.569436094427928,39.99999999999999 C 18.568711703079085,39.99919877934055 18.567988225339572,39.99839654369358 18.567265662943182,39.99759329498161 L 8.853812530354544,29.22673203337353 C 8.37904613972207,28.70028248465318 8.379046146720945,27.84673912921585 8.85381254598697,27.3202895900689 C 9.328578940250518,26.793840056468994 10.098327344940948,26.793840057870376 10.573093737645516,27.32028959319897 L 18.212724623603695,35.79426468763906 L 18.212724623603695,4.039072973103031 C 18.212724623603698,3.2955001709368563 18.756332261011668,2.6927153154020216 19.426906265177276,2.6927153154020207 z" transform="matrix(0.9063077870366497, -0.4226182617407, 0.4226182617407, 0.9063077870366497, 2.6644630243886738, 15.343010876609675)"/></g><g transform="matrix(1, 0, 0, 1, 0, 27.129892691232172)"><path stroke="transparent" fill="transparent" stroke-width="1" stroke-linecap="butt" stroke-linejoin="miter" stroke-miterlimit="10" d="M 30,39.99999999999999 L 1.5,40 C 1.499999999999993,19.01317950642985 14.25988462982238,2 29.999999999999996,2 z" transform="matrix(0.9063077870366497, -0.4226182617407, 0.4226182617407, 0.9063077870366497, 2.6644630243886738, 15.343010876609675)"/></g></g><g transform="matrix(1, 0, 0, 1, 36.06716759712863, 81.38967807369652)"><path stroke="#919191" fill="#59ff04" stroke-width="2" stroke-linecap="butt" stroke-linejoin="miter" stroke-miterlimit="10" d="M 0,0 L 40,0 L 40,40 L 0,40 z" transform="matrix(1, 0, 0, 1, 1, 1)" data-port-id=""/><g transform="matrix(1, 0, 0, 1, 11, 11)"><g transform="matrix(1, 0, 0, 1, 0, 0)" data-item-index="0"><path stroke="none" fill="transparent" d="M 1,1 L 20,1 L 20,20 L 1,20 z" transform="matrix(1, 0, 0, 1, 0, 0)"/></g><g transform="matrix(1, 0, 0, 1, 0, 0)" data-item-index="1"><path stroke="none" fill="transparent" d="M 1,1 L 20,1 L 20,20 L 1,20 z" transform="matrix(1, 0, 0, 1, 0, 0)"/></g><g transform="matrix(1, 0, 0, 1, 0, 0)" data-item-index="2"><path stroke="none" fill="transparent" d="M 1,1 L 20,1 L 20,20 L 1,20 z" transform="matrix(1, 0, 0, 1, 0, 0)"/></g></g><text x="8" y="13.870898437500001" style="font: 16px serif" text-anchor="middle" fill="black" transform="matrix(1, 0, 0, 1, 13, 11.752734375)">26</text></g><text x="24.562255859375" y="10.558374023437501" style="font: 13px sans-serif" text-anchor="middle" fill="black" transform="matrix(1, 0, 0, 1, 32.50491173775363, 123.38967807369652)">Mauricio</text><text x="11.5654296875" y="10.558374023437501" style="font: 13px sans-serif" text-anchor="middle" fill="black" transform="matrix(1, 0, 0, 1, 45.50173790962863, 137.4675101049465)">B18<rect x="166.56716759712862" y="201.54534213619652" width="1" height="1" fill="rgb(0,0,0)" fill-opacity="0.3" transform="matrix(1, 0, 0, 1, 45.50173790962863, 137.4675101049465)"/><rect x="176.70757196561684" y="101.04234201246678" width="1" height="1" fill="rgb(0,0,0)" fill-opacity="0.3" transform="matrix(1, 0, 0, 1, 45.50173790962863, 137.4675101049465)"/></text></g><g transform="matrix(1, 0, 0, 1, 135.02884331694975, 86.54234201246678)" data-class-name="Link" data-key="-1" data-from-key="293" data-to-key="294"><g transform="matrix(1, 0, 0, 1, 27.71876771116709, 0)"><text x="0" y="10.558374023437501" style="font: 13px sans-serif" text-anchor="start" fill="black" transform="matrix(1, 0, 0, 1, 0, 0)">1992</text></g><path stroke="#000000" fill="none" stroke-width="2.5" stroke-linecap="butt" stroke-linejoin="miter" stroke-miterlimit="10" d="M 0,1.1200096782561246 L 81.85745729733418,0" transform="matrix(1, 0, 0, 1, 1.25, 14.439995160871945)"/></g></g><g transform="matrix(1, 0, 0, 1, 330.5386702627819, 38.454657863803476)"/></g><clipPath id="mainClip6355"><rect x="0" y="0" width="937px" height="430px"/></clipPath></svg>