<svg width="937px" height="430px" viewBox="0 0 937 430" xmlns="http://www.w3.org/2000/svg" xmlns:xlink="http://www.w3.org/1999/xlink" style="display: block; letter-spacing: normal; word-spacing: normal; width: 937px; height: 430px;"><g clip-path="url(#mainClip13694)"><g class="gojs-diagram" transform="matrix(1, 0, 0, 1, 268.36672313453164, 12.733658990685967)"><g transform="matrix(1, 0, 0, 1, 289.0670191911828, 62.60157726594884)" data-class-name="Link" data-key="-3" data-from-key="-11" data-to-key="298"><path stroke="#424242" fill="none" stroke-width="2" stroke-linecap="butt" stroke-linejoin="miter" stroke-miterlimit="10" d="M 0,0 L 0,64.87862390692226 L 140.06625767428557,64.87862390692226 L 140.06625767428557,119.75724781384454" transform="matrix(1, 0, 0, 1, 1, 1)"/></g><g transform="matrix(1, 0, 0, 1, 289.0670191911828, 62.60157726594884)" data-class-name="Link" data-key="-4" data-from-key="-11" data-to-key="299"><path stroke="#424242" fill="none" stroke-width="2" stroke-linecap="butt" stroke-linejoin="miter" stroke-miterlimit="10" d="M 0,0 L 0,64.79894000865161 L 1.0662576742855663,64.79894000865161 L 1.0662576742855663,119.59788001730323" transform="matrix(1, 0, 0, 1, 1, 1)"/></g><g transform="matrix(1, 0, 0, 1, 157.1332768654684, 62.60157726594884)" data-class-name="Link" data-key="-5" data-from-key="-11" data-to-key="300"><path stroke="#424242" fill="none" stroke-width="2" stroke-linecap="butt" stroke-linejoin="miter" stroke-miterlimit="10" d="M 131.9337423257144,0 L 131.9337423257144,64.79894000865161 L 0,64.79894000865161 L 0,119.59788001730323" transform="matrix(1, 0, 0, 1, 1, 1)"/></g><g transform="matrix(1, 0, 0, 1, 60.13327686546838, 209.1864927734041)" data-class-name="Link" data-key="-6" data-from-key="-12" data-to-key="302"><path stroke="#424242" fill="none" stroke-width="2" stroke-linecap="butt" stroke-linejoin="miter" stroke-miterlimit="10" d="M 44.634833876449,0 L 44.634833876449,20 L 0,85.190525182724 L 0,95.190525182724" transform="matrix(1, 0, 0, 1, 1, 1)"/></g><g transform="matrix(1, 0, 0, 1, 104.76811074191738, 209.1864927734041)" data-class-name="Link" data-key="-7" data-from-key="-12" data-to-key="303"><path stroke="#424242" fill="none" stroke-width="2" stroke-linecap="butt" stroke-linejoin="miter" stroke-miterlimit="10" d="M 0,0 L 0,20 L 53.365166123551006,88.190525182724 L 53.365166123551006,98.190525182724" transform="matrix(1, 0, 0, 1, 1, 1)"/></g><g transform="matrix(1, 0, 0, 1, 201, 15)" data-class-name="Node" data-key="296"><g transform="matrix(1, 0, 0, 1, 9.577815423021077, 0)"><g transform="matrix(1, 0, 0, 1, 0, 0)" data-item-index="0"><path stroke="transparent" fill="transparent" stroke-width="1" stroke-linecap="butt" stroke-linejoin="miter" stroke-miterlimit="10" d="M 10,19.999999999999996 L 0.5,20 C 0.5,9.50658975321493 4.7532948766074625,1.0000000000000036 9.999999999999998,1 z" transform="matrix(0.9063077870366497, -0.4226182617407, 0.4226182617407, 0.9063077870366497, 2.6644630243886738, 6.8906456417956745)"/></g></g><g transform="matrix(1, 0, 0, 1, 0, 27.681264406917347)"><path stroke="#919191" fill="white" stroke-width="2" stroke-linecap="butt" stroke-linejoin="miter" stroke-miterlimit="10" d="M 0,0 L 40,0 L 40,40 L 0,40 z" transform="matrix(1, 0, 0, 1, 1, 1)" data-port-id=""/><g transform="matrix(1, 0, 0, 1, 1, 1)"><g transform="matrix(1, 0, 0, 1, 0, 0)" data-item-index="0"><path stroke="none" fill="#000000" d="M 38,0 L 40,0 L 40,2 L 2,40 L 0,40 L 0,38 z M 40,38 L 40,40 L 38,40 L 0,2 L 0,0 L 2,0 z" transform="matrix(1, 0, 0, 1, 0, 0)"/></g></g><text x="8" y="13.870898437500001" style="font: 16px serif" text-anchor="middle" fill="black" transform="matrix(1, 0, 0, 1, 13, 11.752734375)">42</text></g><text x="3.614990234375" y="10.558374023437501" style="font: 13px sans-serif" text-anchor="middle" fill="black" transform="matrix(1, 0, 0, 1, 17.385009765625, 69.68126440691735)">1</text><text x="11.5654296875" y="10.558374023437501" style="font: 13px sans-serif" text-anchor="middle" fill="black" transform="matrix(1, 0, 0, 1, 9.4345703125, 83.75909643816735)">B18</text></g><g transform="matrix(1, 0, 0, 1, 316, 0)" data-class-name="Node" data-key="297"><g transform="matrix(1, 0, 0, 1, 0, 0)"><g transform="matrix(1, 0, 0, 1, 61.42218457697892, 0)" data-item-index="0"><path stroke="transparent" fill="transparent" stroke-width="1" stroke-linecap="butt" stroke-linejoin="miter" stroke-miterlimit="10" d="M 10,19.999999999999996 L 0.5,20 C 0.5,9.50658975321493 4.7532948766074625,1.0000000000000036 9.999999999999998,1 z" transform="matrix(0.9063077870366497, -0.4226182617407, 0.4226182617407, 0.9063077870366497, 2.6644630243886738, 6.8906456417956745)"/></g><g transform="matrix(1, 0, 0, 1, 0, 13.840632203458673)"><path stroke="transparent" fill="transparent" stroke-width="1" stroke-linecap="butt" stroke-linejoin="miter" stroke-miterlimit="10" d="M 10,19.999999999999996 L 0.5,20 C 0.5,9.50658975321493 4.7532948766074625,1.0000000000000036 9.999999999999998,1 z" transform="matrix(0.9063077870366497, -0.4226182617407, 0.4226182617407, 0.9063077870366497, 2.6644630243886738, 6.8906456417956745)"/></g></g><g transform="matrix(1, 0, 0, 1, 21.133276865468382, 41.52189661037602)"><path stroke="#a1a1a1" fill="#BB8FCE" stroke-width="2" stroke-linecap="butt" stroke-linejoin="miter" stroke-miterlimit="10" d="M 20,0 C 31.04569499661587,0 40,8.954305003384128 40,20 C 40,31.04569499661587 31.04569499661587,40 20,40 C 8.954305003384128,40 0,31.04569499661587 0,20 C 0,8.954305003384128 8.954305003384128,0 20,0 z" transform="matrix(1, 0, 0, 1, 1, 1)" data-port-id=""/><g transform="matrix(1, 0, 0, 1, 11, 11)"><g transform="matrix(1, 0, 0, 1, 0, 0)" data-item-index="0"><path stroke="none" fill="transparent" d="M 1,1 L 20,1 L 20,20 L 1,20 z" transform="matrix(1, 0, 0, 1, 0, 0)"/></g><g transform="matrix(1, 0, 0, 1, 0, 0)" data-item-index="1"><path stroke="none" fill="transparent" d="M 1,1 L 20,1 L 20,20 L 1,20 z" transform="matrix(1, 0, 0, 1, 0, 0)"/></g></g><text x="8" y="13.870898437500001" style="font: 16px serif" text-anchor="middle" fill="black" transform="matrix(1, 0, 0, 1, 13, 11.752734375)">44</text></g><text x="3.614990234375" y="10.558374023437501" style="font: 13px sans-serif" text-anchor="middle" fill="black" transform="matrix(1, 0, 0, 1, 38.51828663109338, 83.52189661037602)">2</text><text x="15.180419921875" y="10.558374023437501" style="font: 13px sans-serif" text-anchor="middle" fill="black" transform="matrix(1, 0, 0, 1, 26.952856943593382, 97.59972864162602)">B230</text></g><g transform="matrix(1, 0, 0, 1, 409.13327686546836, 155.67756067287604)" data-class-name="Node" data-key="298"><g transform="matrix(1, 0, 0, 1, 9.577815423021077, 0)"><g transform="matrix(1, 0, 0, 1, 0, 0)" data-item-index="0"><path stroke="transparent" fill="transparent" stroke-width="1" stroke-linecap="butt" stroke-linejoin="miter" stroke-miterlimit="10" d="M 10,19.999999999999996 L 0.5,20 C 0.5,9.50658975321493 4.7532948766074625,1.0000000000000036 9.999999999999998,1 z" transform="matrix(0.9063077870366497, -0.4226182617407, 0.4226182617407, 0.9063077870366497, 2.6644630243886738, 6.8906456417956745)"/></g></g><g transform="matrix(1, 0, 0, 1, 0, 27.681264406917347)"><path stroke="#a1a1a1" fill="white" stroke-width="2" stroke-linecap="butt" stroke-linejoin="miter" stroke-miterlimit="10" d="M 20,0 C 31.04569499661587,0 40,8.954305003384128 40,20 C 40,31.04569499661587 31.04569499661587,40 20,40 C 8.954305003384128,40 0,31.04569499661587 0,20 C 0,8.954305003384128 8.954305003384128,0 20,0 z" transform="matrix(1, 0, 0, 1, 1, 1)" data-port-id=""/><g transform="matrix(1, 0, 0, 1, 11, 11)"><g transform="matrix(1, 0, 0, 1, 0, 0)" data-item-index="0"><path stroke="none" fill="transparent" d="M 1,1 L 20,1 L 20,20 L 1,20 z" transform="matrix(1, 0, 0, 1, 0, 0)"/></g></g><text x="8" y="13.870898437500001" style="font: 16px serif" text-anchor="middle" fill="black" transform="matrix(1, 0, 0, 1, 13, 11.752734375)">24</text></g><text x="3.614990234375" y="10.558374023437501" style="font: 13px sans-serif" text-anchor="middle" fill="black" transform="matrix(1, 0, 0, 1, 17.385009765625, 69.68126440691735)">3</text><text x="11.5654296875" y="10.558374023437501" style="font: 13px sans-serif" text-anchor="middle" fill="black" transform="matrix(1, 0, 0, 1, 9.4345703125, 83.75909643816735)">B18</text></g><g transform="matrix(1, 0, 0, 1, 249, 141.67756067287604)" data-class-name="Node" data-key="299"><g transform="matrix(1, 0, 0, 1, 0, 0)"><g transform="matrix(1, 0, 0, 1, 61.42218457697892, 0)" data-item-index="0"><path stroke="transparent" fill="transparent" stroke-width="1" stroke-linecap="butt" stroke-linejoin="miter" stroke-miterlimit="10" d="M 10,19.999999999999996 L 0.5,20 C 0.5,9.50658975321493 4.7532948766074625,1.0000000000000036 9.999999999999998,1 z" transform="matrix(0.9063077870366497, -0.4226182617407, 0.4226182617407, 0.9063077870366497, 2.6644630243886738, 6.8906456417956745)"/></g><g transform="matrix(1, 0, 0, 1, 0, 13.840632203458673)"><path stroke="#000000" fill="none" stroke-width="1" stroke-linecap="butt" stroke-linejoin="miter" stroke-miterlimit="10" d="M 6.475635421725757,1.3463576577010103 C 6.69916008978096,1.3463576577010103 6.880362635583617,1.6477500854684277 6.880362635583617,2.0195364865515155 L 6.880362635583617,17.89713234381953 L 9.426906265177271,13.66014479503445 C 9.58516173231874,13.39692002665765 9.841744537175305,13.396920032478231 10,13.660144808035081 C 10.158255459936514,13.92336957878805 10.158255459748222,14.35014124701965 9.999999999579439,14.613366017386284 L 6.762182289137122,19.998796647490806 C 6.604326389557231,20.262021419457632 6.348067496459058,20.262560178727327 6.189812031475975,19.999999999999996 C 6.189570567693027,19.999599389670276 6.189329408446522,19.99919827184679 6.189088554314392,19.998796647490806 L 2.9512708434515145,14.613366016686765 C 2.7930153815208527,14.350141239642877 2.7930153864698055,13.923369561924215 2.95127085450531,13.660144795034451 C 3.1095263184563087,13.396920034938406 3.3661091152464904,13.396920035381315 3.5243645788690094,13.660144796023719 L 6.070908207867897,17.89713234381953 L 6.070908207867897,2.0195364865515155 C 6.070908207867897,1.6477500854684277 6.2521107536705545,1.3463576577010103 6.475635421725757,1.3463576577010103 z" transform="matrix(0.9063077870366497, -0.4226182617407, 0.4226182617407, 0.9063077870366497, 2.6644630243886738, 6.8906456417956745)"/></g><g transform="matrix(1, 0, 0, 1, 0, 13.840632203458673)"><path stroke="transparent" fill="transparent" stroke-width="1" stroke-linecap="butt" stroke-linejoin="miter" stroke-miterlimit="10" d="M 10,19.999999999999996 L 0.5,20 C 0.5,9.50658975321493 4.7532948766074625,1.0000000000000036 9.999999999999998,1 z" transform="matrix(0.9063077870366497, -0.4226182617407, 0.4226182617407, 0.9063077870366497, 2.6644630243886738, 6.8906456417956745)"/></g></g><g transform="matrix(1, 0, 0, 1, 21.133276865468382, 41.52189661037602)"><path stroke="#919191" fill="#BB8FCE" stroke-width="2" stroke-linecap="butt" stroke-linejoin="miter" stroke-miterlimit="10" d="M 0,0 L 40,0 L 40,40 L 0,40 z" transform="matrix(1, 0, 0, 1, 1, 1)" data-port-id=""/><g transform="matrix(1, 0, 0, 1, 11, 11)"><g transform="matrix(1, 0, 0, 1, 0, 0)" data-item-index="0"><path stroke="none" fill="transparent" d="M 1,1 L 20,1 L 20,20 L 1,20 z" transform="matrix(1, 0, 0, 1, 0, 0)"/></g><g transform="matrix(1, 0, 0, 1, 0, 0)" data-item-index="1"><path stroke="none" fill="transparent" d="M 1,1 L 20,1 L 20,20 L 1,20 z" transform="matrix(1, 0, 0, 1, 0, 0)"/></g><g transform="matrix(1, 0, 0, 1, 0, 0)" data-item-index="2"><path stroke="none" fill="transparent" d="M 1,1 L 20,1 L 20,20 L 1,20 z" transform="matrix(1, 0, 0, 1, 0, 0)"/></g></g><text x="8" y="13.870898437500001" style="font: 16px serif" text-anchor="middle" fill="black" transform="matrix(1, 0, 0, 1, 13, 11.752734375)">22</text></g><text x="3.614990234375" y="10.558374023437501" style="font: 13px sans-serif" text-anchor="middle" fill="black" transform="matrix(1, 0, 0, 1, 38.51828663109338, 83.52189661037602)">4</text><text x="11.5654296875" y="10.558374023437501" style="font: 13px sans-serif" text-anchor="middle" fill="black" transform="matrix(1, 0, 0, 1, 30.567847177968382, 97.59972864162602)">B18</text></g><g transform="matrix(1, 0, 0, 1, 116, 141.67756067287604)" data-class-name="Node" data-key="300"><g transform="matrix(1, 0, 0, 1, 0, 0)"><g transform="matrix(1, 0, 0, 1, 61.42218457697892, 0)" data-item-index="0"><path stroke="transparent" fill="transparent" stroke-width="1" stroke-linecap="butt" stroke-linejoin="miter" stroke-miterlimit="10" d="M 10,19.999999999999996 L 0.5,20 C 0.5,9.50658975321493 4.7532948766074625,1.0000000000000036 9.999999999999998,1 z" transform="matrix(0.9063077870366497, -0.4226182617407, 0.4226182617407, 0.9063077870366497, 2.6644630243886738, 6.8906456417956745)"/></g><g transform="matrix(1, 0, 0, 1, 0, 13.840632203458673)"><path stroke="transparent" fill="transparent" stroke-width="1" stroke-linecap="butt" stroke-linejoin="miter" stroke-miterlimit="10" d="M 10,19.999999999999996 L 0.5,20 C 0.5,9.50658975321493 4.7532948766074625,1.0000000000000036 9.999999999999998,1 z" transform="matrix(0.9063077870366497, -0.4226182617407, 0.4226182617407, 0.9063077870366497, 2.6644630243886738, 6.8906456417956745)"/></g></g><g transform="matrix(1, 0, 0, 1, 16.383276865468382, 41.52189661037602)"><g transform="matrix(1, 0, 0, 1, 0, 0)" data-port-id=""><rect x="-0.75" y="-0.75" width="51.5" height="51.5" fill="#BB8FCE" transform="matrix(1, 0, 0, 1, 0.75, 0.75)"/><path stroke="#636363" fill="none" stroke-width="1.5" stroke-linecap="butt" stroke-linejoin="miter" stroke-miterlimit="10" d="M 0.15287034064413668,1.5247447288638314 L 0.15287034064413668,49.58591809524875 M 50,0 L 50,49.99753035116102 M 0.1058188332216157,1.4985294064380124 L 8.558023627539466,1.2731657177178242 M 0,49.608737650520986 L 5.669696186973448,49.608737650520986 M 49.7919492354043,50 L 43.52179731320486,49.83144235065786 M 42.696140612129724,0.4051829367680951 L 49.90741679973758,0.31514365618009477 M 24.27470160567017,5.5350757638870824 C 14.872749931143375,5.5350755888689065 7.250962051450813,14.534954801644728 7.250961903232,25.636868609617643 C 7.250961755013186,36.738782417590556 14.87274939439557,45.73866191412692 24.27470106892237,45.7386620891451 C 33.67665274344917,45.73866226416328 41.29844062314173,36.73878305138746 41.298440771360546,25.636869243414548 C 41.298440919579356,14.534955435441631 33.67665328019697,5.535075938905269 24.274701605670174,5.535075763887086" transform="matrix(1, 0, 0, 1, 0.75, 0.75)"/></g><g transform="matrix(1, 0, 0, 1, 15.75, 15.75)"><g transform="matrix(1, 0, 0, 1, 0, 0)" data-item-index="0"><path stroke="none" fill="transparent" d="M 1,1 L 20,1 L 20,20 L 1,20 z" transform="matrix(1, 0, 0, 1, 0, 0)"/></g><g transform="matrix(1, 0, 0, 1, 0, 0)" data-item-index="1"><path stroke="none" fill="transparent" d="M 1,1 L 20,1 L 20,20 L 1,20 z" transform="matrix(1, 0, 0, 1, 0, 0)"/></g></g><text x="8" y="13.870898437500001" style="font: 16px serif" text-anchor="middle" fill="black" transform="matrix(1, 0, 0, 1, 17.75, 16.502734375)">20</text></g><text x="3.614990234375" y="10.558374023437501" style="font: 13px sans-serif" text-anchor="middle" fill="black" transform="matrix(1, 0, 0, 1, 38.51828663109338, 93.02189661037602)">5</text><text x="15.180419921875" y="10.558374023437501" style="font: 13px sans-serif" text-anchor="middle" fill="black" transform="matrix(1, 0, 0, 1, 26.952856943593382, 107.09972864162602)">B230</text></g><g transform="matrix(1, 0, 0, 1, 36.99999999999999, 161.67756067287604)" data-class-name="Node" data-key="301"><g transform="matrix(1, 0, 0, 1, 9.577815423021077, 0)"><g transform="matrix(1, 0, 0, 1, 0, 0)" data-item-index="0"><path stroke="transparent" fill="transparent" stroke-width="1" stroke-linecap="butt" stroke-linejoin="miter" stroke-miterlimit="10" d="M 10,19.999999999999996 L 0.5,20 C 0.5,9.50658975321493 4.7532948766074625,1.0000000000000036 9.999999999999998,1 z" transform="matrix(0.9063077870366497, -0.4226182617407, 0.4226182617407, 0.9063077870366497, 2.6644630243886738, 6.8906456417956745)"/></g></g><g transform="matrix(1, 0, 0, 1, 0, 27.681264406917347)"><path stroke="#919191" fill="white" stroke-width="2" stroke-linecap="butt" stroke-linejoin="miter" stroke-miterlimit="10" d="M 0,0 L 40,0 L 40,40 L 0,40 z" transform="matrix(1, 0, 0, 1, 1, 1)" data-port-id=""/><g transform="matrix(1, 0, 0, 1, 11, 11)"><g transform="matrix(1, 0, 0, 1, 0, 0)" data-item-index="0"><path stroke="none" fill="transparent" d="M 1,1 L 20,1 L 20,20 L 1,20 z" transform="matrix(1, 0, 0, 1, 0, 0)"/></g></g><text x="8" y="13.870898437500001" style="font: 16px serif" text-anchor="middle" fill="black" transform="matrix(1, 0, 0, 1, 13, 11.752734375)">24</text></g><text x="3.614990234375" y="10.558374023437501" style="font: 13px sans-serif" text-anchor="middle" fill="black" transform="matrix(1, 0, 0, 1, 17.385009765625, 69.68126440691735)">6</text><text x="15.180419921875" y="10.558374023437501" style="font: 13px sans-serif" text-anchor="middle" fill="black" transform="matrix(1, 0, 0, 1, 5.819580078125, 83.75909643816735)">B262</text></g><g transform="matrix(1, 0, 0, 1, 19, 263.8551213457521)" data-class-name="Node" data-key="302"><g transform="matrix(1, 0, 0, 1, 0, 0)"><g transform="matrix(1, 0, 0, 1, 61.42218457697892, 0)" data-item-index="0"><path stroke="transparent" fill="transparent" stroke-width="1" stroke-linecap="butt" stroke-linejoin="miter" stroke-miterlimit="10" d="M 10,19.999999999999996 L 0.5,20 C 0.5,9.50658975321493 4.7532948766074625,1.0000000000000036 9.999999999999998,1 z" transform="matrix(0.9063077870366497, -0.4226182617407, 0.4226182617407, 0.9063077870366497, 2.6644630243886738, 6.8906456417956745)"/></g><g transform="matrix(1, 0, 0, 1, 0, 13.840632203458673)"><path stroke="transparent" fill="transparent" stroke-width="1" stroke-linecap="butt" stroke-linejoin="miter" stroke-miterlimit="10" d="M 10,19.999999999999996 L 0.5,20 C 0.5,9.50658975321493 4.7532948766074625,1.0000000000000036 9.999999999999998,1 z" transform="matrix(0.9063077870366497, -0.4226182617407, 0.4226182617407, 0.9063077870366497, 2.6644630243886738, 6.8906456417956745)"/></g></g><g transform="matrix(1, 0, 0, 1, 21.133276865468382, 41.52189661037602)"><path stroke="#a1a1a1" fill="#BB8FCE" stroke-width="2" stroke-linecap="butt" stroke-linejoin="miter" stroke-miterlimit="10" d="M 20,0 C 31.04569499661587,0 40,8.954305003384128 40,20 C 40,31.04569499661587 31.04569499661587,40 20,40 C 8.954305003384128,40 0,31.04569499661587 0,20 C 0,8.954305003384128 8.954305003384128,0 20,0 z" transform="matrix(1, 0, 0, 1, 1, 1)" data-port-id=""/><g transform="matrix(1, 0, 0, 1, 11, 11)"><g transform="matrix(1, 0, 0, 1, 0, 0)" data-item-index="0"><path stroke="none" fill="transparent" d="M 1,1 L 20,1 L 20,20 L 1,20 z" transform="matrix(1, 0, 0, 1, 0, 0)"/></g><g transform="matrix(1, 0, 0, 1, 0, 0)" data-item-index="1"><path stroke="none" fill="transparent" d="M 1,1 L 20,1 L 20,20 L 1,20 z" transform="matrix(1, 0, 0, 1, 0, 0)"/></g></g><text x="4" y="13.870898437500001" style="font: 16px serif" text-anchor="middle" fill="black" transform="matrix(1, 0, 0, 1, 17, 11.752734375)">9</text></g><text x="3.614990234375" y="10.558374023437501" style="font: 13px sans-serif" text-anchor="middle" fill="black" transform="matrix(1, 0, 0, 1, 38.51828663109338, 83.52189661037602)">7</text><text x="11.924072265625" y="10.558374023437501" style="font: 13px sans-serif" text-anchor="middle" fill="black" transform="matrix(1, 0, 0, 1, 30.209204599843382, 97.59972864162602)">C43</text></g><g transform="matrix(1, 0, 0, 1, 117, 266.8551213457521)" data-class-name="Node" data-key="303"><g transform="matrix(1, 0, 0, 1, 0, 0)"><g transform="matrix(1, 0, 0, 1, 61.42218457697892, 0)" data-item-index="0"><path stroke="transparent" fill="transparent" stroke-width="1" stroke-linecap="butt" stroke-linejoin="miter" stroke-miterlimit="10" d="M 10,19.999999999999996 L 0.5,20 C 0.5,9.50658975321493 4.7532948766074625,1.0000000000000036 9.999999999999998,1 z" transform="matrix(0.9063077870366497, -0.4226182617407, 0.4226182617407, 0.9063077870366497, 2.6644630243886738, 6.8906456417956745)"/></g><g transform="matrix(1, 0, 0, 1, 0, 13.840632203458673)"><path stroke="transparent" fill="transparent" stroke-width="1" stroke-linecap="butt" stroke-linejoin="miter" stroke-miterlimit="10" d="M 10,19.999999999999996 L 0.5,20 C 0.5,9.50658975321493 4.7532948766074625,1.0000000000000036 9.999999999999998,1 z" transform="matrix(0.9063077870366497, -0.4226182617407, 0.4226182617407, 0.9063077870366497, 2.6644630243886738, 6.8906456417956745)"/></g></g><g transform="matrix(1, 0, 0, 1, 21.133276865468382, 41.52189661037602)"><path stroke="#a1a1a1" fill="#BB8FCE" stroke-width="2" stroke-linecap="butt" stroke-linejoin="miter" stroke-miterlimit="10" d="M 20,0 C 31.04569499661587,0 40,8.954305003384128 40,20 C 40,31.04569499661587 31.04569499661587,40 20,40 C 8.954305003384128,40 0,31.04569499661587 0,20 C 0,8.954305003384128 8.954305003384128,0 20,0 z" transform="matrix(1, 0, 0, 1, 1, 1)" data-port-id=""/><g transform="matrix(1, 0, 0, 1, 11, 11)"><g transform="matrix(1, 0, 0, 1, 0, 0)" data-item-index="0"><path stroke="none" fill="transparent" d="M 1,1 L 20,1 L 20,20 L 1,20 z" transform="matrix(1, 0, 0, 1, 0, 0)"/></g><g transform="matrix(1, 0, 0, 1, 0, 0)" data-item-index="1"><path stroke="none" fill="transparent" d="M 1,1 L 20,1 L 20,20 L 1,20 z" transform="matrix(1, 0, 0, 1, 0, 0)"/></g></g><text x="4" y="13.870898437500001" style="font: 16px serif" text-anchor="middle" fill="black" transform="matrix(1, 0, 0, 1, 17, 11.752734375)">9</text></g><text x="3.614990234375" y="10.558374023437501" style="font: 13px sans-serif" text-anchor="middle" fill="black" transform="matrix(1, 0, 0, 1, 38.51828663109338, 83.52189661037602)">8</text><text x="11.924072265625" y="10.558374023437501" style="font: 13px sans-serif" text-anchor="middle" fill="black" transform="matrix(1, 0, 0, 1, 30.209204599843382, 97.59972864162602)">C43<rect x="221.6332768654684" y="292.8551213457521" width="1" height="1" fill="rgb(0,0,0)" fill-opacity="0.3" transform="matrix(1, 0, 0, 1, 30.209204599843382, 97.59972864162602)"/><rect x="251.6332768654684" y="292.8551213457521" width="1" height="1" fill="rgb(0,0,0)" fill-opacity="0.3" transform="matrix(1, 0, 0, 1, 30.209204599843382, 97.59972864162602)"/><rect x="289.5670191911828" y="62.60157726594884" width="1" height="1" fill="rgb(0,0,0)" fill-opacity="0.3" transform="matrix(1, 0, 0, 1, 30.209204599843382, 97.59972864162602)"/><rect x="105.26811074191738" y="209.1864927734041" width="1" height="1" fill="rgb(0,0,0)" fill-opacity="0.3" transform="matrix(1, 0, 0, 1, 30.209204599843382, 97.59972864162602)"/></text></g><g transform="matrix(1, 0, 0, 1, 241.75, 48.10157726594884)" data-class-name="Link" data-key="-1" data-from-key="296" data-to-key="297"><g transform="matrix(1, 0, 0, 1, 33.857058253682794, 0)"><text x="0" y="10.558374023437501" style="font: 13px sans-serif" text-anchor="start" fill="black" transform="matrix(1, 0, 0, 1, 0, 0)">2005</text></g><path stroke="#000000" fill="none" stroke-width="2.5" stroke-linecap="butt" stroke-linejoin="miter" stroke-miterlimit="10" d="M 0,0.8016847546155219 L 94.13403838236553,0" transform="matrix(1, 0, 0, 1, 1.25, 14.599157622692239)"/></g><g transform="matrix(1, 0, 0, 1, 77.75, 194.6864927734041)" data-class-name="Link" data-key="-2" data-from-key="301" data-to-key="300"><path stroke="#000000" fill="none" stroke-width="2.5" stroke-linecap="butt" stroke-linejoin="miter" stroke-miterlimit="10" d="M 0,0.7535179999071886 L 53.536221483834765,0" transform="matrix(1, 0, 0, 1, 1.25, 14.623241000046391)"/><path stroke="black" fill="black" stroke-width="2" stroke-linecap="butt" stroke-linejoin="miter" stroke-miterlimit="10" d="M 0,10 L 13,0 M 9,10 L 22,0" transform="matrix(1, 0, 0, 1, 27.72535503868434, 9.849296400018545)"/><g transform="matrix(1, 0, 0, 1, 13.558149804417383, 0)"><text x="0" y="10.558374023437501" style="font: 13px sans-serif" text-anchor="start" fill="black" transform="matrix(1, 0, 0, 1, 0, 0)">2015</text></g></g></g><g transform="matrix(1, 0, 0, 1, 268.36672313453164, 12.733658990685967)"/></g><clipPath id="mainClip13694"><rect x="0" y="0" width="937px" height="430px"/></clipPath></svg>