<svg width="937px" height="430px" viewBox="0 0 937 430" xmlns="http://www.w3.org/2000/svg" xmlns:xlink="http://www.w3.org/1999/xlink" style="display: block; letter-spacing: normal; word-spacing: normal; width: 937px; height: 430px;"><g clip-path="url(#mainClip3877)"><g class="gojs-diagram" transform="matrix(0.8642855900137849, 0, 0, 0.8642855900137849, 338.516492840124, 5.321427950068925)"><g transform="matrix(1, 0, 0, 1, 194.65363044701218, 104.03127936658035)" data-class-name="Link" data-key="-3" data-from-key="-10" data-to-key="306"><path stroke="#424242" fill="none" stroke-width="2" stroke-linecap="butt" stroke-linejoin="miter" stroke-miterlimit="10" d="M 0,0 L 0,91.09463141604559 Q 0,96.09463141604559 5,96.09463141604559 L 63.346369552987824,96.09463141604559 Q 68.34636955298782,96.09463141604559 68.34636955298782,101.09463141604559 L 68.34636955298782,182.18926283209117" transform="matrix(1, 0, 0, 1, 1, 1)"/></g><g transform="matrix(1, 0, 0, 1, 74.4233514396422, 104.03127936658035)" data-class-name="Link" data-key="-4" data-from-key="-10" data-to-key="307"><path stroke="#424242" fill="none" stroke-width="2" stroke-linecap="butt" stroke-linejoin="miter" stroke-miterlimit="10" d="M 120.23027900736997,0 L 120.23027900736997,94.93203764115438 Q 120.23027900736997,99.93203764115438 115.23027900736997,99.93203764115438 L 5,99.93203764115438 Q 0,99.93203764115438 0,104.93203764115438 L 0,189.86407528230876" transform="matrix(1, 0, 0, 1, 1, 1)"/></g><g transform="matrix(1, 0, 0, 1, 13, 298.1409123146433)" data-class-name="Link" data-key="-5" data-from-key="-11" data-to-key="0"><path stroke="#424242" fill="none" stroke-width="2" stroke-linecap="butt" stroke-linejoin="miter" stroke-miterlimit="10" d="M 118.6867767781863,0 L 118.6867767781863,57.95505319837292 Q 118.6867767781863,62.95505319837292 113.6867767781863,62.95505319837292 L 5,62.95505319837292 Q 0,62.95505319837292 0,67.95505319837292 L 0,115.91010639674585" transform="matrix(1, 0, 0, 1, 1, 1)"/></g><g transform="matrix(1, 0, 0, 1, 73, 298.1409123146433)" data-class-name="Link" data-key="-6" data-from-key="-11" data-to-key="8"><path stroke="#424242" fill="none" stroke-width="2" stroke-linecap="butt" stroke-linejoin="miter" stroke-miterlimit="10" d="M 58.6867767781863,0 L 58.6867767781863,57.95505319837292 Q 58.6867767781863,62.95505319837292 53.6867767781863,62.95505319837292 L 5,62.95505319837292 Q 0,62.95505319837292 0,67.95505319837292 L 0,115.91010639674585" transform="matrix(1, 0, 0, 1, 1, 1)"/></g><g transform="matrix(1, 0, 0, 1, 72.15442451294342, 0)" data-class-name="Node" data-key="304"><g transform="matrix(1, 0, 0, 1, 0, 0)"><g transform="matrix(1, 0, 0, 1, 66.70483413791845, 0)" data-item-index="0"><path stroke="transparent" fill="transparent" stroke-width="4" stroke-linecap="butt" stroke-linejoin="miter" stroke-miterlimit="10" d="M 30,39.99999999999999 L 1.5,40 C 1.499999999999993,19.01317950642985 14.25988462982238,2 29.999999999999996,2 z" transform="matrix(0.9063077870366497, -0.4226182617407, 0.4226182617407, 0.9063077870366497, 4.657852097554699, 17.3363999497757)"/></g><g transform="matrix(1, 0, 0, 1, 0, 29.12328176439819)"><path stroke="transparent" fill="transparent" stroke-width="4" stroke-linecap="butt" stroke-linejoin="miter" stroke-miterlimit="10" d="M 30,39.99999999999999 L 1.5,40 C 1.499999999999993,19.01317950642985 14.25988462982238,2 29.999999999999996,2 z" transform="matrix(0.9063077870366497, -0.4226182617407, 0.4226182617407, 0.9063077870366497, 4.657852097554699, 17.3363999497757)"/></g></g><g transform="matrix(1, 0, 0, 1, 39.05725120687767, 87.36984529319457)"><path stroke="#919191" fill="#BB8FCE" stroke-width="2" stroke-linecap="butt" stroke-linejoin="miter" stroke-miterlimit="10" d="M 0,0 L 40,0 L 40,40 L 0,40 z" transform="matrix(1, 0, 0, 1, 1, 1)" data-port-id=""/><g transform="matrix(1, 0, 0, 1, 11, 11)"><g transform="matrix(1, 0, 0, 1, 0, 0)" data-item-index="0"><path stroke="none" fill="transparent" d="M 1,1 L 20,1 L 20,20 L 1,20 z" transform="matrix(1, 0, 0, 1, 0, 0)"/></g><g transform="matrix(1, 0, 0, 1, 0, 0)" data-item-index="1"><path stroke="none" fill="transparent" d="M 1,1 L 20,1 L 20,20 L 1,20 z" transform="matrix(1, 0, 0, 1, 0, 0)"/></g></g><text x="8" y="13.870898437500001" style="font: 16px serif" text-anchor="middle" fill="black" transform="matrix(1, 0, 0, 1, 13, 11.752734375)">44</text></g><text x="3.614990234375" y="10.558374023437501" style="font: 13px sans-serif" text-anchor="middle" fill="black" transform="matrix(1, 0, 0, 1, 56.44226097250267, 129.36984529319457)">9</text><text x="11.5654296875" y="10.558374023437501" style="font: 13px sans-serif" text-anchor="middle" fill="black" transform="matrix(1, 0, 0, 1, 48.49182151937767, 143.44767732444458)">B18</text></g><g transform="matrix(1, 0, 0, 1, 222.26892692669878, 0)" data-class-name="Node" data-key="305"><g transform="matrix(1, 0, 0, 1, 0, 0)"><g transform="matrix(1, 0, 0, 1, 0, 0)" data-item-index="0"><path stroke="transparent" fill="transparent" stroke-width="1" stroke-linecap="butt" stroke-linejoin="miter" stroke-miterlimit="10" d="M 30,39.99999999999999 L 1.5,40 C 1.499999999999993,19.01317950642985 14.25988462982238,2 29.999999999999996,2 z" transform="matrix(0.9396926207859084, 0.3420201433256687, -0.3420201433256687, 0.9396926207859084, 16.32166211508254, 2.6408563820557873)"/></g><g transform="matrix(1, 0, 0, 1, 26.42335143964221, 26.56501094765899)"><path stroke="transparent" fill="transparent" stroke-width="1" stroke-linecap="butt" stroke-linejoin="miter" stroke-miterlimit="10" d="M 30,39.99999999999999 L 1.5,40 C 1.499999999999993,19.01317950642985 14.25988462982238,2 29.999999999999996,2 z" transform="matrix(0.9396926207859084, 0.3420201433256687, -0.3420201433256687, 0.9396926207859084, 16.32166211508254, 2.6408563820557873)"/></g></g><g transform="matrix(1, 0, 0, 1, 15.788324280178898, 79.69503284297697)"><path stroke="#a1a1a1" fill="#BB8FCE" stroke-width="2" stroke-linecap="butt" stroke-linejoin="miter" stroke-miterlimit="10" d="M 20,0 C 31.04569499661587,0 40,8.954305003384128 40,20 C 40,31.04569499661587 31.04569499661587,40 20,40 C 8.954305003384128,40 0,31.04569499661587 0,20 C 0,8.954305003384128 8.954305003384128,0 20,0 z" transform="matrix(1, 0, 0, 1, 1, 1)" data-port-id=""/><g transform="matrix(1, 0, 0, 1, 11, 11)"><g transform="matrix(1, 0, 0, 1, 0, 0)" data-item-index="0"><path stroke="none" fill="transparent" d="M 1,1 L 20,1 L 20,20 L 1,20 z" transform="matrix(1, 0, 0, 1, 0, 0)"/></g><g transform="matrix(1, 0, 0, 1, 0, 0)" data-item-index="1"><path stroke="none" fill="transparent" d="M 1,1 L 20,1 L 20,20 L 1,20 z" transform="matrix(1, 0, 0, 1, 0, 0)"/></g></g><text x="8" y="13.870898437500001" style="font: 16px serif" text-anchor="middle" fill="black" transform="matrix(1, 0, 0, 1, 13, 11.752734375)">43</text></g><text x="7.22998046875" y="10.558374023437501" style="font: 13px sans-serif" text-anchor="middle" fill="black" transform="matrix(1, 0, 0, 1, 29.558343811428898, 121.69503284297697)">10</text><text x="15.5390625" y="10.558374023437501" style="font: 13px sans-serif" text-anchor="middle" fill="black" transform="matrix(1, 0, 0, 1, 21.249261780178898, 135.77286487422697)">C224</text></g><g transform="matrix(1, 0, 0, 1, 227.2116757198211, 207.52550935569457)" data-class-name="Node" data-key="306"><g transform="matrix(1, 0, 0, 1, 0, 0)"><g transform="matrix(1, 0, 0, 1, 0, 0)" data-item-index="0"><path stroke="transparent" fill="transparent" stroke-width="1" stroke-linecap="butt" stroke-linejoin="miter" stroke-miterlimit="10" d="M 30,39.99999999999999 L 1.5,40 C 1.499999999999993,19.01317950642985 14.25988462982238,2 29.999999999999996,2 z" transform="matrix(0.9396926207859084, 0.3420201433256687, -0.3420201433256687, 0.9396926207859084, 16.32166211508254, 2.6408563820557873)"/></g><g transform="matrix(1, 0, 0, 1, 26.42335143964221, 26.56501094765899)"><path stroke="transparent" fill="transparent" stroke-width="1" stroke-linecap="butt" stroke-linejoin="miter" stroke-miterlimit="10" d="M 30,39.99999999999999 L 1.5,40 C 1.499999999999993,19.01317950642985 14.25988462982238,2 29.999999999999996,2 z" transform="matrix(0.9396926207859084, 0.3420201433256687, -0.3420201433256687, 0.9396926207859084, 16.32166211508254, 2.6408563820557873)"/></g></g><g transform="matrix(1, 0, 0, 1, 15.788324280178898, 79.69503284297697)"><path stroke="#a1a1a1" fill="#BB8FCE" stroke-width="2" stroke-linecap="butt" stroke-linejoin="miter" stroke-miterlimit="10" d="M 20,0 C 31.04569499661587,0 40,8.954305003384128 40,20 C 40,31.04569499661587 31.04569499661587,40 20,40 C 8.954305003384128,40 0,31.04569499661587 0,20 C 0,8.954305003384128 8.954305003384128,0 20,0 z" transform="matrix(1, 0, 0, 1, 1, 1)" data-port-id=""/><g transform="matrix(1, 0, 0, 1, 11, 11)"><g transform="matrix(1, 0, 0, 1, 0, 0)" data-item-index="0"><path stroke="none" fill="transparent" d="M 1,1 L 20,1 L 20,20 L 1,20 z" transform="matrix(1, 0, 0, 1, 0, 0)"/></g><g transform="matrix(1, 0, 0, 1, 0, 0)" data-item-index="1"><path stroke="none" fill="transparent" d="M 1,1 L 20,1 L 20,20 L 1,20 z" transform="matrix(1, 0, 0, 1, 0, 0)"/></g></g><text x="8" y="13.870898437500001" style="font: 16px serif" text-anchor="middle" fill="black" transform="matrix(1, 0, 0, 1, 13, 11.752734375)">24</text></g><text x="6.74755859375" y="10.558374023437501" style="font: 13px sans-serif" text-anchor="middle" fill="black" transform="matrix(1, 0, 0, 1, 30.040765686428898, 121.69503284297697)">11</text><text x="11.5654296875" y="10.558374023437501" style="font: 13px sans-serif" text-anchor="middle" fill="black" transform="matrix(1, 0, 0, 1, 25.222894592678898, 135.77286487422697)">B18</text></g><g transform="matrix(1, 0, 0, 1, 15.366100232764538, 207.52550935569457)" data-class-name="Node" data-key="307"><g transform="matrix(1, 0, 0, 1, 0, 0)"><g transform="matrix(1, 0, 0, 1, 66.70483413791845, 0)" data-item-index="0"><path stroke="transparent" fill="transparent" stroke-width="4" stroke-linecap="butt" stroke-linejoin="miter" stroke-miterlimit="10" d="M 30,39.99999999999999 L 1.5,40 C 1.499999999999993,19.01317950642985 14.25988462982238,2 29.999999999999996,2 z" transform="matrix(0.9063077870366497, -0.4226182617407, 0.4226182617407, 0.9063077870366497, 4.657852097554699, 17.3363999497757)"/></g><g transform="matrix(1, 0, 0, 1, 0, 29.12328176439819)"><path stroke="#000000" fill="none" stroke-width="4" stroke-linecap="butt" stroke-linejoin="miter" stroke-miterlimit="10" d="M 23.179447556499905,4.671318015903758 C 23.979551018684752,4.671318015903758 24.62816302878115,5.717028172958895 24.62816302878115,7.0069770238556375 L 24.62816302878115,32.699226111326304 L 27.94861889124976,27.3458956651006 C 28.51509215109651,26.432611892562907 29.433526757393008,26.432611915094725 30.000000000000004,27.34589571542682 C 30.56647323066947,28.259179496512903 30.56647323037963,29.739905040894524 29.999999999352628,30.653188821404175 L 24.20513811087503,39.99582485216798 C 23.640095098490455,40.90910863860287 22.722819929859536,40.91097791595898 22.156346678632666,39.99999999999999 C 22.155482362356526,39.998610043743 22.15461913616424,39.9972183266871 22.153757002124788,39.99582485216798 L 16.35889511299981,30.653188820360462 C 15.79242186881104,29.73990502257855 15.792421880222056,28.259179440188475 16.35889513848703,27.345895665100603 C 16.92536838831089,26.43261190362172 17.843802977937266,26.43261190641689 18.410276225622457,27.3458956713438 L 21.730732084218662,35.03488511927819 L 21.730732084218662,7.006977023855637 C 21.730732084218662,5.717028172958894 22.37934409431506,4.671318015903758 23.179447556499905,4.671318015903758 z" transform="matrix(0.9063077870366497, -0.4226182617407, 0.4226182617407, 0.9063077870366497, 4.657852097554699, 17.3363999497757)"/></g><g transform="matrix(1, 0, 0, 1, 0, 29.12328176439819)"><path stroke="transparent" fill="transparent" stroke-width="4" stroke-linecap="butt" stroke-linejoin="miter" stroke-miterlimit="10" d="M 30,39.99999999999999 L 1.5,40 C 1.499999999999993,19.01317950642985 14.25988462982238,2 29.999999999999996,2 z" transform="matrix(0.9063077870366497, -0.4226182617407, 0.4226182617407, 0.9063077870366497, 4.657852097554699, 17.3363999497757)"/></g></g><g transform="matrix(1, 0, 0, 1, 39.05725120687767, 87.36984529319457)"><path stroke="#919191" fill="#BB8FCE" stroke-width="2" stroke-linecap="butt" stroke-linejoin="miter" stroke-miterlimit="10" d="M 0,0 L 40,0 L 40,40 L 0,40 z" transform="matrix(1, 0, 0, 1, 1, 1)" data-port-id=""/><g transform="matrix(1, 0, 0, 1, 11, 11)"><g transform="matrix(1, 0, 0, 1, 0, 0)" data-item-index="0"><path stroke="none" fill="transparent" d="M 1,1 L 20,1 L 20,20 L 1,20 z" transform="matrix(1, 0, 0, 1, 0, 0)"/></g><g transform="matrix(1, 0, 0, 1, 0, 0)" data-item-index="1"><path stroke="none" fill="transparent" d="M 1,1 L 20,1 L 20,20 L 1,20 z" transform="matrix(1, 0, 0, 1, 0, 0)"/></g><g transform="matrix(1, 0, 0, 1, 0, 0)" data-item-index="2"><path stroke="none" fill="transparent" d="M 1,1 L 20,1 L 20,20 L 1,20 z" transform="matrix(1, 0, 0, 1, 0, 0)"/></g></g><text x="8" y="13.870898437500001" style="font: 16px serif" text-anchor="middle" fill="black" transform="matrix(1, 0, 0, 1, 13, 11.752734375)">20</text></g><text x="7.22998046875" y="10.558374023437501" style="font: 13px sans-serif" text-anchor="middle" fill="black" transform="matrix(1, 0, 0, 1, 52.82727073812767, 129.36984529319457)">12</text><text x="15.5390625" y="10.558374023437501" style="font: 13px sans-serif" text-anchor="middle" fill="black" transform="matrix(1, 0, 0, 1, 44.51818870687767, 143.44767732444458)">C224</text></g><g transform="matrix(1, 0, 0, 1, 0, 415.05101871138913)" data-class-name="Node" data-key="0"><g transform="matrix(1, 0, 0, 1, 0, 0)"><path stroke="black" fill="none" stroke-width="3" stroke-linecap="butt" stroke-linejoin="miter" stroke-miterlimit="10" d="M 0,25 L 25,0 M 0,0 L 25,25" transform="matrix(1, 0, 0, 1, 1.5, 1.5)"/></g></g><g transform="matrix(1, 0, 0, 1, 53, 415.05101871138913)" data-class-name="Node" data-key="8"><g transform="matrix(1, 0, 0, 1, 21, 0)"/><g transform="matrix(1, 0, 0, 1, 0, 0)"><path stroke="#a1a1a1" fill="white" stroke-width="2" stroke-linecap="butt" stroke-linejoin="miter" stroke-miterlimit="10" d="M 40,40 L 0,40 L 20,0 z" transform="matrix(1, 0, 0, 1, 1, 1)" data-port-id=""/><g transform="matrix(1, 0, 0, 1, 21, 31.5)"/></g></g><g transform="matrix(1, 0, 0, 1, 165.48060264651988, 207.52550935569457)" data-class-name="Node" data-key="308"><g transform="matrix(1, 0, 0, 1, 0, 0)"><g transform="matrix(1, 0, 0, 1, 0, 0)" data-item-index="0"><path stroke="transparent" fill="transparent" stroke-width="1" stroke-linecap="butt" stroke-linejoin="miter" stroke-miterlimit="10" d="M 30,39.99999999999999 L 1.5,40 C 1.499999999999993,19.01317950642985 14.25988462982238,2 29.999999999999996,2 z" transform="matrix(0.9396926207859084, 0.3420201433256687, -0.3420201433256687, 0.9396926207859084, 16.32166211508254, 2.6408563820557873)"/></g></g><g transform="matrix(1, 0, 0, 1, 2.576648560357789, 53.13002189531798)"><path stroke="#a1a1a1" fill="white" stroke-width="2" stroke-linecap="butt" stroke-linejoin="miter" stroke-miterlimit="10" d="M 20,0 C 31.04569499661587,0 40,8.954305003384128 40,20 C 40,31.04569499661587 31.04569499661587,40 20,40 C 8.954305003384128,40 0,31.04569499661587 0,20 C 0,8.954305003384128 8.954305003384128,0 20,0 z" transform="matrix(1, 0, 0, 1, 1, 1)" data-port-id=""/><g transform="matrix(1, 0, 0, 1, 11, 11)"><g transform="matrix(1, 0, 0, 1, 0, 0)" data-item-index="0"><path stroke="none" fill="transparent" d="M 1,1 L 20,1 L 20,20 L 1,20 z" transform="matrix(1, 0, 0, 1, 0, 0)"/></g></g><text x="8" y="13.870898437500001" style="font: 16px serif" text-anchor="middle" fill="black" transform="matrix(1, 0, 0, 1, 13, 11.752734375)">21</text></g><text x="7.22998046875" y="10.558374023437501" style="font: 13px sans-serif" text-anchor="middle" fill="black" transform="matrix(1, 0, 0, 1, 16.34666809160779, 95.13002189531798)">13</text><text x="12.285888671875" y="10.558374023437501" style="font: 13px sans-serif" text-anchor="middle" fill="black" transform="matrix(1, 0, 0, 1, 11.290759888482789, 109.20785392656798)">O04<rect x="133.5" y="415.05101871138913" width="1" height="1" fill="rgb(0,0,0)" fill-opacity="0.3" transform="matrix(1, 0, 0, 1, 11.290759888482789, 109.20785392656798)"/><rect x="163.5" y="415.05101871138913" width="1" height="1" fill="rgb(0,0,0)" fill-opacity="0.3" transform="matrix(1, 0, 0, 1, 11.290759888482789, 109.20785392656798)"/><rect x="195.15363044701218" y="104.03127936658035" width="1" height="1" fill="rgb(0,0,0)" fill-opacity="0.3" transform="matrix(1, 0, 0, 1, 11.290759888482789, 109.20785392656798)"/><rect x="132.1867767781863" y="298.1409123146433" width="1" height="1" fill="rgb(0,0,0)" fill-opacity="0.3" transform="matrix(1, 0, 0, 1, 11.290759888482789, 109.20785392656798)"/></text></g><g transform="matrix(1, 0, 0, 1, 151.7116757198211, 89.53127936658035)" data-class-name="Link" data-key="-1" data-from-key="304" data-to-key="305"><g transform="matrix(1, 0, 0, 1, 29.481993789691074, 0)"><text x="0" y="10.558374023437501" style="font: 13px sans-serif" text-anchor="start" fill="black" transform="matrix(1, 0, 0, 1, 0, 0)">2000</text></g><g transform="matrix(1, 0, 0, 1, 0, 0)"><path stroke="transparent" fill="none" stroke-width="3" stroke-linecap="butt" stroke-linejoin="miter" stroke-miterlimit="10" d="M 0,5.135914931223681 L 84.88390945438212,0" transform="matrix(1, 0, 0, 1, 1.5, 12.43204253438816)"/><path stroke="#000000" fill="none" stroke-width="1.3" stroke-linecap="round" stroke-linejoin="miter" stroke-miterlimit="10" d="M 0,0 M 4,0 L 4.1,0" transform="matrix(0.9981745716794813, -0.06039473861590859, 0.06039473861590859, 0.9981745716794813, 0.1631164785433583, 16.99765718441703)"/><path stroke="#000000" fill="none" stroke-width="1.3" stroke-linecap="round" stroke-linejoin="miter" stroke-miterlimit="10" d="M 0,0 M 4,0 L 4.1,0" transform="matrix(0.9981745716794813, -0.06039473861590898, 0.06039473861590898, 0.9981745716794813, 4.255632227779803, 16.750038844523445)"/><path stroke="#000000" fill="none" stroke-width="1.3" stroke-linecap="round" stroke-linejoin="miter" stroke-miterlimit="10" d="M 0,0 M 4,0 L 4.1,0" transform="matrix(0.9981745716794813, -0.06039473861590937, 0.06039473861590937, 0.9981745716794813, 8.34814797701625, 16.50242050462986)"/><path stroke="#000000" fill="none" stroke-width="1.3" stroke-linecap="round" stroke-linejoin="miter" stroke-miterlimit="10" d="M 0,0 M 4,0 L 4.1,0" transform="matrix(0.9981745716794812, -0.06039473861590976, 0.06039473861590976, 0.9981745716794812, 12.440663726252694, 16.25480216473627)"/><path stroke="#000000" fill="none" stroke-width="1.3" stroke-linecap="round" stroke-linejoin="miter" stroke-miterlimit="10" d="M 0,0 M 4,0 L 4.1,0" transform="matrix(0.9981745716794811, -0.060394738615910146, 0.060394738615910146, 0.9981745716794811, 16.53317947548914, 16.007183824842677)"/><path stroke="#000000" fill="none" stroke-width="1.3" stroke-linecap="round" stroke-linejoin="miter" stroke-miterlimit="10" d="M 0,0 M 4,0 L 4.1,0" transform="matrix(0.998174571679481, -0.06039473861591053, 0.06039473861591053, 0.998174571679481, 20.625695224725582, 15.759565484949084)"/><path stroke="#000000" fill="none" stroke-width="1.3" stroke-linecap="round" stroke-linejoin="miter" stroke-miterlimit="10" d="M 0,0 M 4,0 L 4.1,0" transform="matrix(0.998174571679481, -0.06039473861591091, 0.06039473861591091, 0.998174571679481, 24.71821097396202, 15.51194714505549)"/><path stroke="#000000" fill="none" stroke-width="1.3" stroke-linecap="round" stroke-linejoin="miter" stroke-miterlimit="10" d="M 0,0 M 4,0 L 4.1,0" transform="matrix(0.998174571679481, -0.06039473861591129, 0.06039473861591129, 0.998174571679481, 28.810726723198464, 15.264328805161895)"/><path stroke="#000000" fill="none" stroke-width="1.3" stroke-linecap="round" stroke-linejoin="miter" stroke-miterlimit="10" d="M 0,0 M 4,0 L 4.1,0" transform="matrix(0.9981745716794809, -0.06039473861591167, 0.06039473861591167, 0.9981745716794809, 32.903242472434904, 15.016710465268297)"/><path stroke="#000000" fill="none" stroke-width="1.3" stroke-linecap="round" stroke-linejoin="miter" stroke-miterlimit="10" d="M 0,0 M 4,0 L 4.1,0" transform="matrix(0.9981745716794808, -0.06039473861591205, 0.06039473861591205, 0.9981745716794808, 36.995758221671345, 14.7690921253747)"/><path stroke="#000000" fill="none" stroke-width="1.3" stroke-linecap="round" stroke-linejoin="miter" stroke-miterlimit="10" d="M 0,0 M 4,0 L 4.1,0" transform="matrix(0.9981745716794806, -0.06039473861591242, 0.06039473861591242, 0.9981745716794806, 41.08827397090778, 14.521473785481097)"/><path stroke="#000000" fill="none" stroke-width="1.3" stroke-linecap="round" stroke-linejoin="miter" stroke-miterlimit="10" d="M 0,0 M 4,0 L 4.1,0" transform="matrix(0.9981745716794806, -0.0603947386159128, 0.0603947386159128, 0.9981745716794806, 45.18078972014422, 14.273855445587497)"/><path stroke="#000000" fill="none" stroke-width="1.3" stroke-linecap="round" stroke-linejoin="miter" stroke-miterlimit="10" d="M 0,0 M 4,0 L 4.1,0" transform="matrix(0.9981745716794805, -0.060394738615913185, 0.060394738615913185, 0.9981745716794805, 49.27330546938066, 14.026237105693895)"/><path stroke="#000000" fill="none" stroke-width="1.3" stroke-linecap="round" stroke-linejoin="miter" stroke-miterlimit="10" d="M 0,0 M 4,0 L 4.1,0" transform="matrix(0.9981745716794804, -0.06039473861591357, 0.06039473861591357, 0.9981745716794804, 53.36582121861711, 13.778618765800289)"/><path stroke="#000000" fill="none" stroke-width="1.3" stroke-linecap="round" stroke-linejoin="miter" stroke-miterlimit="10" d="M 0,0 M 4,0 L 4.1,0" transform="matrix(0.9981745716794803, -0.06039473861591395, 0.06039473861591395, 0.9981745716794803, 57.45833696785355, 13.531000425906683)"/><path stroke="#000000" fill="none" stroke-width="1.3" stroke-linecap="round" stroke-linejoin="miter" stroke-miterlimit="10" d="M 0,0 M 4,0 L 4.1,0" transform="matrix(0.9981745716794802, -0.06039473861591432, 0.06039473861591432, 0.9981745716794802, 61.55085271708999, 13.283382086013074)"/><path stroke="#000000" fill="none" stroke-width="1.3" stroke-linecap="round" stroke-linejoin="miter" stroke-miterlimit="10" d="M 0,0 M 4,0 L 4.1,0" transform="matrix(0.9981745716794802, -0.060394738615914705, 0.060394738615914705, 0.9981745716794802, 65.64336846632642, 13.035763746119462)"/><path stroke="#000000" fill="none" stroke-width="1.3" stroke-linecap="round" stroke-linejoin="miter" stroke-miterlimit="10" d="M 0,0 M 4,0 L 4.1,0" transform="matrix(0.9981745716794801, -0.060394738615915086, 0.060394738615915086, 0.9981745716794801, 69.73588421556285, 12.788145406225851)"/><path stroke="#000000" fill="none" stroke-width="1.3" stroke-linecap="round" stroke-linejoin="miter" stroke-miterlimit="10" d="M 0,0 M 4,0 L 4.1,0" transform="matrix(0.99817457167948, -0.06039473861591547, 0.06039473861591547, 0.99817457167948, 73.82839996479927, 12.540527066332237)"/><path stroke="#000000" fill="none" stroke-width="1.3" stroke-linecap="round" stroke-linejoin="miter" stroke-miterlimit="10" d="M 0,0 M 4,0 L 4.1,0" transform="matrix(0.9981745716794799, -0.06039473861591584, 0.06039473861591584, 0.9981745716794799, 77.9209157140357, 12.292908726438624)"/></g></g><g transform="matrix(1, 0, 0, 1, 95.1733514396422, 283.6409123146433)" data-class-name="Link" data-key="-2" data-from-key="308" data-to-key="307"><path stroke="#000000" fill="none" stroke-width="2.5" stroke-linecap="butt" stroke-linejoin="miter" stroke-miterlimit="10" d="M 72.52685067708819,0 L 0,21.85357154752586" transform="matrix(1, 0, 0, 1, 1.25, 4.073214226237042)"/><path stroke="black" fill="black" stroke-width="2" stroke-linecap="butt" stroke-linejoin="miter" stroke-miterlimit="10" d="M 0,10 L 13,0" transform="matrix(1, 0, 0, 1, 16.50805520312646, 14.37071430950516)"/><g transform="matrix(1, 0, 0, 1, 23.053464401044096, 0)"><text x="0" y="10.558374023437501" style="font: 13px sans-serif" text-anchor="start" fill="black" transform="matrix(1, 0, 0, 1, 0, 0)">2015</text></g></g></g><g transform="matrix(0.8642855900137849, 0, 0, 0.8642855900137849, 338.516492840124, 5.321427950068925)"/></g><clipPath id="mainClip3877"><rect x="0" y="0" width="937px" height="430px"/></clipPath></svg>