<svg width="922px" height="430px" viewBox="0 0 922 430" xmlns="http://www.w3.org/2000/svg" xmlns:xlink="http://www.w3.org/1999/xlink" style="display: block; letter-spacing: normal; word-spacing: normal; width: 922px; height: 430px;"><g clip-path="url(#mainClip22428)"><g class="gojs-diagram" transform="matrix(1.0252814153841066, 0, 0, 1.0252814153841066, 270.6636338155922, -39.34221792307938)"><g transform="matrix(1, 0, 0, 1, 203.1404043684882, 101.04234201246678)" data-class-name="Link" data-key="-3" data-from-key="-10" data-to-key="306"><path stroke="#424242" fill="none" stroke-width="2" stroke-linecap="butt" stroke-linejoin="miter" stroke-miterlimit="10" d="M 0,0 L 0,76.61459357248586 Q 0,81.61459357248586 5,81.61459357248586 L 109.05544778121947,81.61459357248586 Q 114.05544778121947,81.61459357248586 114.05544778121947,86.61459357248586 L 114.05544778121947,153.22918714497175" transform="matrix(1, 0, 0, 1, 1, 1)"/></g><g transform="matrix(1, 0, 0, 1, 62.00346865533422, 101.04234201246678)" data-class-name="Link" data-key="-4" data-from-key="-10" data-to-key="307"><path stroke="#424242" fill="none" stroke-width="2" stroke-linecap="butt" stroke-linejoin="miter" stroke-miterlimit="10" d="M 141.13693571315397,0 L 141.13693571315397,76.89737606128622 Q 141.13693571315397,81.89737606128622 136.13693571315397,81.89737606128622 L 5,81.89737606128622 Q 0,81.89737606128622 0,86.89737606128622 L 0,153.79475212257248" transform="matrix(1, 0, 0, 1, 1, 1)"/></g><g transform="matrix(1, 0, 0, 1, 57.034129871637504, 275.7562246670018)" data-class-name="Link" data-key="-5" data-from-key="-11" data-to-key="0"><path stroke="#424242" fill="none" stroke-width="2" stroke-linecap="butt" stroke-linejoin="miter" stroke-miterlimit="10" d="M 66.5016560768029,0 L 66.5016560768029,52.44096739806599 Q 66.5016560768029,57.44096739806599 61.5016560768029,57.44096739806599 L 5,57.44096739806599 Q 0,57.44096739806599 0,62.44096739806599 L 0,104.88193479613199" transform="matrix(1, 0, 0, 1, 1, 1)"/></g><g transform="matrix(1, 0, 0, 1, 123.5357859484404, 275.7562246670018)" data-class-name="Link" data-key="-6" data-from-key="-11" data-to-key="1"><path stroke="#424242" fill="none" stroke-width="2" stroke-linecap="butt" stroke-linejoin="miter" stroke-miterlimit="10" d="M 0,0 L 0,52.440967398065936 Q 0,57.440967398065936 5,57.440967398065936 L 44.95235657914239,57.440967398065936 Q 49.95235657914239,57.440967398065936 49.95235657914239,62.440967398065936 L 49.95235657914239,104.88193479613182" transform="matrix(1, 0, 0, 1, 1, 1)"/></g><g transform="matrix(1, 0, 0, 1, 85.14450812269247, 0)" data-class-name="Node" data-key="304"><g transform="matrix(1, 0, 0, 1, 0, 0)"><g transform="matrix(1, 0, 0, 1, 64.71144506475243, 0)" data-item-index="0"><path stroke="transparent" fill="transparent" stroke-width="1" stroke-linecap="butt" stroke-linejoin="miter" stroke-miterlimit="10" d="M 30,39.99999999999999 L 1.5,40 C 1.499999999999993,19.01317950642985 14.25988462982238,2 29.999999999999996,2 z" transform="matrix(0.9063077870366497, -0.4226182617407, 0.4226182617407, 0.9063077870366497, 2.6644630243886738, 15.343010876609675)"/></g><g transform="matrix(1, 0, 0, 1, 0, 27.129892691232172)"><path stroke="transparent" fill="transparent" stroke-width="1" stroke-linecap="butt" stroke-linejoin="miter" stroke-miterlimit="10" d="M 30,39.99999999999999 L 1.5,40 C 1.499999999999993,19.01317950642985 14.25988462982238,2 29.999999999999996,2 z" transform="matrix(0.9063077870366497, -0.4226182617407, 0.4226182617407, 0.9063077870366497, 2.6644630243886738, 15.343010876609675)"/></g></g><g transform="matrix(1, 0, 0, 1, 36.06716759712863, 81.38967807369652)"><path stroke="#919191" fill="#59ff04" stroke-width="2" stroke-linecap="butt" stroke-linejoin="miter" stroke-miterlimit="10" d="M 0,0 L 40,0 L 40,40 L 0,40 z" transform="matrix(1, 0, 0, 1, 1, 1)" data-port-id=""/><g transform="matrix(1, 0, 0, 1, 11, 11)"><g transform="matrix(1, 0, 0, 1, 0, 0)" data-item-index="0"><path stroke="none" fill="transparent" d="M 1,1 L 20,1 L 20,20 L 1,20 z" transform="matrix(1, 0, 0, 1, 0, 0)"/></g><g transform="matrix(1, 0, 0, 1, 0, 0)" data-item-index="1"><path stroke="none" fill="transparent" d="M 1,1 L 20,1 L 20,20 L 1,20 z" transform="matrix(1, 0, 0, 1, 0, 0)"/></g></g><text x="8" y="13.870898437500001" style="font: 16px serif" text-anchor="middle" fill="black" transform="matrix(1, 0, 0, 1, 13, 11.752734375)">44</text></g><text x="3.614990234375" y="10.558374023437501" style="font: 13px sans-serif" text-anchor="middle" fill="black" transform="matrix(1, 0, 0, 1, 53.45217736275363, 123.38967807369652)">9</text><text x="11.5654296875" y="10.558374023437501" style="font: 13px sans-serif" text-anchor="middle" fill="black" transform="matrix(1, 0, 0, 1, 45.50173790962863, 137.4675101049465)">B18</text></g><g transform="matrix(1, 0, 0, 1, 229.27884331694975, 0)" data-class-name="Node" data-key="305"><g transform="matrix(1, 0, 0, 1, 0, 0)"><g transform="matrix(1, 0, 0, 1, 0, 0)" data-item-index="0"><path stroke="transparent" fill="transparent" stroke-width="1" stroke-linecap="butt" stroke-linejoin="miter" stroke-miterlimit="10" d="M 30,39.99999999999999 L 1.5,40 C 1.499999999999993,19.01317950642985 14.25988462982238,2 29.999999999999996,2 z" transform="matrix(0.9396926207859084, 0.3420201433256687, -0.3420201433256687, 0.9396926207859084, 16.32166211508254, 2.6408563820557873)"/></g><g transform="matrix(1, 0, 0, 1, 26.42335143964221, 26.56501094765899)"><path stroke="transparent" fill="transparent" stroke-width="1" stroke-linecap="butt" stroke-linejoin="miter" stroke-miterlimit="10" d="M 30,39.99999999999999 L 1.5,40 C 1.499999999999993,19.01317950642985 14.25988462982238,2 29.999999999999996,2 z" transform="matrix(0.9396926207859084, 0.3420201433256687, -0.3420201433256687, 0.9396926207859084, 16.32166211508254, 2.6408563820557873)"/></g></g><g transform="matrix(1, 0, 0, 1, 15.788324280178898, 79.69503284297697)"><path stroke="#a1a1a1" fill="#59ff04" stroke-width="2" stroke-linecap="butt" stroke-linejoin="miter" stroke-miterlimit="10" d="M 20,0 C 31.04569499661587,0 40,8.954305003384128 40,20 C 40,31.04569499661587 31.04569499661587,40 20,40 C 8.954305003384128,40 0,31.04569499661587 0,20 C 0,8.954305003384128 8.954305003384128,0 20,0 z" transform="matrix(1, 0, 0, 1, 1, 1)" data-port-id=""/><g transform="matrix(1, 0, 0, 1, 11, 11)"><g transform="matrix(1, 0, 0, 1, 0, 0)" data-item-index="0"><path stroke="none" fill="transparent" d="M 1,1 L 20,1 L 20,20 L 1,20 z" transform="matrix(1, 0, 0, 1, 0, 0)"/></g><g transform="matrix(1, 0, 0, 1, 0, 0)" data-item-index="1"><path stroke="none" fill="transparent" d="M 1,1 L 20,1 L 20,20 L 1,20 z" transform="matrix(1, 0, 0, 1, 0, 0)"/></g></g><text x="8" y="13.870898437500001" style="font: 16px serif" text-anchor="middle" fill="black" transform="matrix(1, 0, 0, 1, 13, 11.752734375)">43</text></g><text x="7.22998046875" y="10.558374023437501" style="font: 13px sans-serif" text-anchor="middle" fill="black" transform="matrix(1, 0, 0, 1, 29.558343811428898, 121.69503284297697)">10</text><text x="15.5390625" y="10.558374023437501" style="font: 13px sans-serif" text-anchor="middle" fill="black" transform="matrix(1, 0, 0, 1, 21.249261780178898, 135.77286487422697)">C224</text></g><g transform="matrix(1, 0, 0, 1, 281.40752786952874, 175.57649631446156)" data-class-name="Node" data-key="306"><g transform="matrix(1, 0, 0, 1, 0, 0)"><g transform="matrix(1, 0, 0, 1, 0, 0)" data-item-index="0"><path stroke="transparent" fill="transparent" stroke-width="1" stroke-linecap="butt" stroke-linejoin="miter" stroke-miterlimit="10" d="M 30,39.99999999999999 L 1.5,40 C 1.499999999999993,19.01317950642985 14.25988462982238,2 29.999999999999996,2 z" transform="matrix(0.9396926207859084, 0.3420201433256687, -0.3420201433256687, 0.9396926207859084, 16.32166211508254, 2.6408563820557873)"/></g><g transform="matrix(1, 0, 0, 1, 26.42335143964221, 26.56501094765899)"><path stroke="transparent" fill="transparent" stroke-width="1" stroke-linecap="butt" stroke-linejoin="miter" stroke-miterlimit="10" d="M 30,39.99999999999999 L 1.5,40 C 1.499999999999993,19.01317950642985 14.25988462982238,2 29.999999999999996,2 z" transform="matrix(0.9396926207859084, 0.3420201433256687, -0.3420201433256687, 0.9396926207859084, 16.32166211508254, 2.6408563820557873)"/></g></g><g transform="matrix(1, 0, 0, 1, 15.788324280178898, 79.69503284297697)"><path stroke="#a1a1a1" fill="#59ff04" stroke-width="2" stroke-linecap="butt" stroke-linejoin="miter" stroke-miterlimit="10" d="M 20,0 C 31.04569499661587,0 40,8.954305003384128 40,20 C 40,31.04569499661587 31.04569499661587,40 20,40 C 8.954305003384128,40 0,31.04569499661587 0,20 C 0,8.954305003384128 8.954305003384128,0 20,0 z" transform="matrix(1, 0, 0, 1, 1, 1)" data-port-id=""/><g transform="matrix(1, 0, 0, 1, 11, 11)"><g transform="matrix(1, 0, 0, 1, 0, 0)" data-item-index="0"><path stroke="none" fill="transparent" d="M 1,1 L 20,1 L 20,20 L 1,20 z" transform="matrix(1, 0, 0, 1, 0, 0)"/></g><g transform="matrix(1, 0, 0, 1, 0, 0)" data-item-index="1"><path stroke="none" fill="transparent" d="M 1,1 L 20,1 L 20,20 L 1,20 z" transform="matrix(1, 0, 0, 1, 0, 0)"/></g></g><text x="8" y="13.870898437500001" style="font: 16px serif" text-anchor="middle" fill="black" transform="matrix(1, 0, 0, 1, 13, 11.752734375)">24</text></g><text x="6.74755859375" y="10.558374023437501" style="font: 13px sans-serif" text-anchor="middle" fill="black" transform="matrix(1, 0, 0, 1, 30.040765686428898, 121.69503284297697)">11</text><text x="11.5654296875" y="10.558374023437501" style="font: 13px sans-serif" text-anchor="middle" fill="black" transform="matrix(1, 0, 0, 1, 25.222894592678898, 135.77286487422697)">B18</text></g><g transform="matrix(1, 0, 0, 1, 5.936301058205586, 174.44741606134272)" data-class-name="Node" data-key="307"><g transform="matrix(1, 0, 0, 1, 0, 0)"><g transform="matrix(1, 0, 0, 1, 64.71144506475243, 0)" data-item-index="0"><path stroke="transparent" fill="transparent" stroke-width="1" stroke-linecap="butt" stroke-linejoin="miter" stroke-miterlimit="10" d="M 30,39.99999999999999 L 1.5,40 C 1.499999999999993,19.01317950642985 14.25988462982238,2 29.999999999999996,2 z" transform="matrix(0.9063077870366497, -0.4226182617407, 0.4226182617407, 0.9063077870366497, 2.6644630243886738, 15.343010876609675)"/></g><g transform="matrix(1, 0, 0, 1, 0, 27.129892691232172)"><path stroke="#000000" fill="none" stroke-width="1" stroke-linecap="butt" stroke-linejoin="miter" stroke-miterlimit="10" d="M 19.426906265177273,2.6927153154020207 C 20.097480269342878,2.692715315402021 20.641087906750847,3.295500170936856 20.641087906750847,4.039072973103031 L 20.64108790675085,35.79426468763906 L 28.28071879553182,27.3202895900689 C 28.755485194797842,26.793840050921947 29.525233609367532,26.793840058682722 30.000000000000007,27.320289607403076 C 30.47476638563,27.84673915057638 30.4747663843662,28.70028249505899 29.999999997177223,29.226732036503602 L 20.28654686741137,39.99759329498161 C 19.8129791686717,40.524042838915264 19.044202489377177,40.525120357454654 18.569436094427928,39.99999999999999 C 18.568711703079085,39.99919877934055 18.567988225339572,39.99839654369358 18.567265662943182,39.99759329498161 L 8.853812530354544,29.22673203337353 C 8.37904613972207,28.70028248465318 8.379046146720945,27.84673912921585 8.85381254598697,27.3202895900689 C 9.328578940250518,26.793840056468994 10.098327344940948,26.793840057870376 10.573093737645516,27.32028959319897 L 18.212724623603695,35.79426468763906 L 18.212724623603695,4.039072973103031 C 18.212724623603698,3.2955001709368563 18.756332261011668,2.6927153154020216 19.426906265177276,2.6927153154020207 z" transform="matrix(0.9063077870366497, -0.4226182617407, 0.4226182617407, 0.9063077870366497, 2.6644630243886738, 15.343010876609675)"/></g><g transform="matrix(1, 0, 0, 1, 0, 27.129892691232172)"><path stroke="transparent" fill="transparent" stroke-width="1" stroke-linecap="butt" stroke-linejoin="miter" stroke-miterlimit="10" d="M 30,39.99999999999999 L 1.5,40 C 1.499999999999993,19.01317950642985 14.25988462982238,2 29.999999999999996,2 z" transform="matrix(0.9063077870366497, -0.4226182617407, 0.4226182617407, 0.9063077870366497, 2.6644630243886738, 15.343010876609675)"/></g></g><g transform="matrix(1, 0, 0, 1, 36.06716759712863, 81.38967807369652)"><path stroke="#919191" fill="#59ff04" stroke-width="2" stroke-linecap="butt" stroke-linejoin="miter" stroke-miterlimit="10" d="M 0,0 L 40,0 L 40,40 L 0,40 z" transform="matrix(1, 0, 0, 1, 1, 1)" data-port-id=""/><g transform="matrix(1, 0, 0, 1, 11, 11)"><g transform="matrix(1, 0, 0, 1, 0, 0)" data-item-index="0"><path stroke="none" fill="transparent" d="M 1,1 L 20,1 L 20,20 L 1,20 z" transform="matrix(1, 0, 0, 1, 0, 0)"/></g><g transform="matrix(1, 0, 0, 1, 0, 0)" data-item-index="1"><path stroke="none" fill="transparent" d="M 1,1 L 20,1 L 20,20 L 1,20 z" transform="matrix(1, 0, 0, 1, 0, 0)"/></g><g transform="matrix(1, 0, 0, 1, 0, 0)" data-item-index="2"><path stroke="none" fill="transparent" d="M 1,1 L 20,1 L 20,20 L 1,20 z" transform="matrix(1, 0, 0, 1, 0, 0)"/></g></g><text x="8" y="13.870898437500001" style="font: 16px serif" text-anchor="middle" fill="black" transform="matrix(1, 0, 0, 1, 13, 11.752734375)">20</text></g><text x="7.22998046875" y="10.558374023437501" style="font: 13px sans-serif" text-anchor="middle" fill="black" transform="matrix(1, 0, 0, 1, 49.83718712837863, 123.38967807369652)">12</text><text x="15.5390625" y="10.558374023437501" style="font: 13px sans-serif" text-anchor="middle" fill="black" transform="matrix(1, 0, 0, 1, 41.52810509712863, 137.4675101049465)">C224</text></g><g transform="matrix(1, 0, 0, 1, 44.034129871637504, 381.6381594631338)" data-class-name="Node" data-key="0"><g transform="matrix(1, 0, 0, 1, 0, 0)"><path stroke="black" fill="none" stroke-width="3" stroke-linecap="butt" stroke-linejoin="miter" stroke-miterlimit="10" d="M 0,25 L 25,0 M 0,0 L 25,25" transform="matrix(1, 0, 0, 1, 1.5, 1.5)"/></g></g><g transform="matrix(1, 0, 0, 1, 153.4881425275828, 381.6381594631336)" data-class-name="Node" data-key="1"><g transform="matrix(1, 0, 0, 1, 21, 0)"/><g transform="matrix(1, 0, 0, 1, 0, 0)"><path stroke="#a1a1a1" fill="white" stroke-width="2" stroke-linecap="butt" stroke-linejoin="miter" stroke-miterlimit="10" d="M 40,40 L 0,40 L 20,0 z" transform="matrix(1, 0, 0, 1, 1, 1)" data-port-id=""/><g transform="matrix(1, 0, 0, 1, 21, 31.5)"/></g></g><g transform="matrix(1, 0, 0, 1, 162.49051903677085, 201.5453421361965)" data-class-name="Node" data-key="308"><g transform="matrix(1, 0, 0, 1, 0, 0)"><g transform="matrix(1, 0, 0, 1, 0, 0)" data-item-index="0"><path stroke="transparent" fill="transparent" stroke-width="1" stroke-linecap="butt" stroke-linejoin="miter" stroke-miterlimit="10" d="M 30,39.99999999999999 L 1.5,40 C 1.499999999999993,19.01317950642985 14.25988462982238,2 29.999999999999996,2 z" transform="matrix(0.9396926207859084, 0.3420201433256687, -0.3420201433256687, 0.9396926207859084, 16.32166211508254, 2.6408563820557873)"/></g></g><g transform="matrix(1, 0, 0, 1, 2.576648560357789, 53.13002189531798)"><path stroke="#a1a1a1" fill="white" stroke-width="2" stroke-linecap="butt" stroke-linejoin="miter" stroke-miterlimit="10" d="M 20,0 C 31.04569499661587,0 40,8.954305003384128 40,20 C 40,31.04569499661587 31.04569499661587,40 20,40 C 8.954305003384128,40 0,31.04569499661587 0,20 C 0,8.954305003384128 8.954305003384128,0 20,0 z" transform="matrix(1, 0, 0, 1, 1, 1)" data-port-id=""/><g transform="matrix(1, 0, 0, 1, 11, 11)"><g transform="matrix(1, 0, 0, 1, 0, 0)" data-item-index="0"><path stroke="none" fill="transparent" d="M 1,1 L 20,1 L 20,20 L 1,20 z" transform="matrix(1, 0, 0, 1, 0, 0)"/></g></g><text x="8" y="13.870898437500001" style="font: 16px serif" text-anchor="middle" fill="black" transform="matrix(1, 0, 0, 1, 13, 11.752734375)">21</text></g><text x="7.22998046875" y="10.558374023437501" style="font: 13px sans-serif" text-anchor="middle" fill="black" transform="matrix(1, 0, 0, 1, 16.34666809160779, 95.13002189531798)">13</text><text x="12.285888671875" y="10.558374023437501" style="font: 13px sans-serif" text-anchor="middle" fill="black" transform="matrix(1, 0, 0, 1, 11.290759888482789, 109.20785392656798)">O04</text></g><g transform="matrix(1, 0, 0, 1, 133.5, 403.090684272393)" data-class-name="Node" data-key="-8"/><g transform="matrix(1, 0, 0, 1, 163.5, 403.090684272393)" data-class-name="Node" data-key="-9"/><g transform="matrix(1, 0, 0, 1, 203.6404043684882, 101.04234201246678)" data-class-name="Node" data-key="-10"/><g transform="matrix(1, 0, 0, 1, 124.0357859484404, 275.7562246670018)" data-class-name="Node" data-key="-11"/><g transform="matrix(1, 0, 0, 1, 161.7116757198211, 86.54234201246678)" data-class-name="Link" data-key="-1" data-from-key="304" data-to-key="305"><g transform="matrix(1, 0, 0, 1, 27.96876771116709, 0)"><text x="0" y="10.558374023437501" style="font: 13px sans-serif" text-anchor="start" fill="black" transform="matrix(1, 0, 0, 1, 0, 0)">2000</text></g><g transform="matrix(1, 0, 0, 1, 0, 0)"><path stroke="transparent" fill="none" stroke-width="3" stroke-linecap="butt" stroke-linejoin="miter" stroke-miterlimit="10" d="M 0,1.1200096782561246 L 81.85745729733421,0" transform="matrix(1, 0, 0, 1, 1.5, 14.439995160871945)"/><path stroke="#000000" fill="none" stroke-width="1.3" stroke-linecap="round" stroke-linejoin="miter" stroke-miterlimit="10" d="M 0,0 M 4,0 L 4.1,0" transform="matrix(0.9999064085032293, -0.01368116348024196, 0.01368116348024196, 0.9999064085032293, 0.191228912777345, 14.927851192973506)"/><path stroke="#000000" fill="none" stroke-width="1.3" stroke-linecap="round" stroke-linejoin="miter" stroke-miterlimit="10" d="M 0,0 M 4,0 L 4.1,0" transform="matrix(0.9999064085032293, -0.013681163480241882, 0.013681163480241882, 0.9999064085032293, 4.290845187914993, 14.87175844276002)"/><path stroke="#000000" fill="none" stroke-width="1.3" stroke-linecap="round" stroke-linejoin="miter" stroke-miterlimit="10" d="M 0,0 M 4,0 L 4.1,0" transform="matrix(0.9999064085032293, -0.013681163480241804, 0.013681163480241804, 0.9999064085032293, 8.390461463052642, 14.815665692546535)"/><path stroke="#000000" fill="none" stroke-width="1.3" stroke-linecap="round" stroke-linejoin="miter" stroke-miterlimit="10" d="M 0,0 M 4,0 L 4.1,0" transform="matrix(0.9999064085032293, -0.013681163480241726, 0.013681163480241726, 0.9999064085032293, 12.49007773819029, 14.75957294233305)"/><path stroke="#000000" fill="none" stroke-width="1.3" stroke-linecap="round" stroke-linejoin="miter" stroke-miterlimit="10" d="M 0,0 M 4,0 L 4.1,0" transform="matrix(0.9999064085032293, -0.013681163480241648, 0.013681163480241648, 0.9999064085032293, 16.58969401332794, 14.703480192119564)"/><path stroke="#000000" fill="none" stroke-width="1.3" stroke-linecap="round" stroke-linejoin="miter" stroke-miterlimit="10" d="M 0,0 M 4,0 L 4.1,0" transform="matrix(0.9999064085032293, -0.01368116348024157, 0.01368116348024157, 0.9999064085032293, 20.689310288465588, 14.64738744190608)"/><path stroke="#000000" fill="none" stroke-width="1.3" stroke-linecap="round" stroke-linejoin="miter" stroke-miterlimit="10" d="M 0,0 M 4,0 L 4.1,0" transform="matrix(0.9999064085032293, -0.013681163480241492, 0.013681163480241492, 0.9999064085032293, 24.788926563603237, 14.591294691692594)"/><path stroke="#000000" fill="none" stroke-width="1.3" stroke-linecap="round" stroke-linejoin="miter" stroke-miterlimit="10" d="M 0,0 M 4,0 L 4.1,0" transform="matrix(0.9999064085032293, -0.013681163480241414, 0.013681163480241414, 0.9999064085032293, 28.888542838740886, 14.53520194147911)"/><path stroke="#000000" fill="none" stroke-width="1.3" stroke-linecap="round" stroke-linejoin="miter" stroke-miterlimit="10" d="M 0,0 M 4,0 L 4.1,0" transform="matrix(0.9999064085032293, -0.013681163480241336, 0.013681163480241336, 0.9999064085032293, 32.98815911387853, 14.479109191265625)"/><path stroke="#000000" fill="none" stroke-width="1.3" stroke-linecap="round" stroke-linejoin="miter" stroke-miterlimit="10" d="M 0,0 M 4,0 L 4.1,0" transform="matrix(0.9999064085032293, -0.013681163480241258, 0.013681163480241258, 0.9999064085032293, 37.08777538901618, 14.423016441052143)"/><path stroke="#000000" fill="none" stroke-width="1.3" stroke-linecap="round" stroke-linejoin="miter" stroke-miterlimit="10" d="M 0,0 M 4,0 L 4.1,0" transform="matrix(0.9999064085032293, -0.01368116348024118, 0.01368116348024118, 0.9999064085032293, 41.18739166415383, 14.36692369083866)"/><path stroke="#000000" fill="none" stroke-width="1.3" stroke-linecap="round" stroke-linejoin="miter" stroke-miterlimit="10" d="M 0,0 M 4,0 L 4.1,0" transform="matrix(0.9999064085032293, -0.013681163480241102, 0.013681163480241102, 0.9999064085032293, 45.28700793929148, 14.310830940625177)"/><path stroke="#000000" fill="none" stroke-width="1.3" stroke-linecap="round" stroke-linejoin="miter" stroke-miterlimit="10" d="M 0,0 M 4,0 L 4.1,0" transform="matrix(0.9999064085032293, -0.013681163480241024, 0.013681163480241024, 0.9999064085032293, 49.386624214429126, 14.254738190411695)"/><path stroke="#000000" fill="none" stroke-width="1.3" stroke-linecap="round" stroke-linejoin="miter" stroke-miterlimit="10" d="M 0,0 M 4,0 L 4.1,0" transform="matrix(0.9999064085032293, -0.013681163480240946, 0.013681163480240946, 0.9999064085032293, 53.486240489566775, 14.198645440198213)"/><path stroke="#000000" fill="none" stroke-width="1.3" stroke-linecap="round" stroke-linejoin="miter" stroke-miterlimit="10" d="M 0,0 M 4,0 L 4.1,0" transform="matrix(0.9999064085032293, -0.013681163480240868, 0.013681163480240868, 0.9999064085032293, 57.585856764704424, 14.142552689984733)"/><path stroke="#000000" fill="none" stroke-width="1.3" stroke-linecap="round" stroke-linejoin="miter" stroke-miterlimit="10" d="M 0,0 M 4,0 L 4.1,0" transform="matrix(0.9999064085032293, -0.01368116348024079, 0.01368116348024079, 0.9999064085032293, 61.68547303984207, 14.08645993977125)"/><path stroke="#000000" fill="none" stroke-width="1.3" stroke-linecap="round" stroke-linejoin="miter" stroke-miterlimit="10" d="M 0,0 M 4,0 L 4.1,0" transform="matrix(0.9999064085032293, -0.013681163480240711, 0.013681163480240711, 0.9999064085032293, 65.78508931497973, 14.030367189557769)"/><path stroke="#000000" fill="none" stroke-width="1.3" stroke-linecap="round" stroke-linejoin="miter" stroke-miterlimit="10" d="M 0,0 M 4,0 L 4.1,0" transform="matrix(0.9999064085032293, -0.013681163480240633, 0.013681163480240633, 0.9999064085032293, 69.88470559011738, 13.974274439344287)"/><path stroke="#000000" fill="none" stroke-width="1.3" stroke-linecap="round" stroke-linejoin="miter" stroke-miterlimit="10" d="M 0,0 M 4,0 L 4.1,0" transform="matrix(0.9999064085032293, -0.013681163480240555, 0.013681163480240555, 0.9999064085032293, 73.98432186525503, 13.918181689130806)"/></g></g><g transform="matrix(1, 0, 0, 1, 82.75346865533422, 261.2562246670018)" data-class-name="Link" data-key="-2" data-from-key="308" data-to-key="307"><path stroke="#000000" fill="none" stroke-width="2.5" stroke-linecap="butt" stroke-linejoin="miter" stroke-miterlimit="10" d="M 81.06463458621238,0 L 0,0.7652559376959402" transform="matrix(1, 0, 0, 1, 1.25, 14.617372031152058)"/><path stroke="black" fill="black" stroke-width="2" stroke-linecap="butt" stroke-linejoin="miter" stroke-miterlimit="10" d="M 0,10 L 13,0" transform="matrix(1, 0, 0, 1, 19.06939037586372, 10.153051187539234)"/><g transform="matrix(1, 0, 0, 1, 27.32235635560619, 0)"><text x="0" y="10.558374023437501" style="font: 13px sans-serif" text-anchor="start" fill="black" transform="matrix(1, 0, 0, 1, 0, 0)">2015</text></g></g></g><g transform="matrix(1.0252814153841066, 0, 0, 1.0252814153841066, 270.6636338155922, -39.34221792307938)"/></g><clipPath id="mainClip22428"><rect x="0" y="0" width="922px" height="430px"/></clipPath></svg>