<svg width="937px" height="430px" viewBox="0 0 937 430" xmlns="http://www.w3.org/2000/svg" xmlns:xlink="http://www.w3.org/1999/xlink" style="display: block; letter-spacing: normal; word-spacing: normal; width: 937px; height: 430px;"><g clip-path="url(#mainClip55963)"><g class="gojs-diagram" transform="matrix(0.9740128617339489, 0, 0, 0.9740128617339489, 400.66578615221454, 23.105526808669616)"><g transform="matrix(1, 0, 0, 1, 107.12913770635548, 99.22219345765168)" data-class-name="Link" data-key="-3" data-from-key="-8" data-to-key="311"><path stroke="#424242" fill="none" stroke-width="2" stroke-linecap="butt" stroke-linejoin="miter" stroke-miterlimit="10" d="M 0.04832530805460067,0 L 0.04832530805460067,40.138270001422285 L 0,40.138270001422285 L 0,70.27654000284454" transform="matrix(1, 0, 0, 1, 1, 1)"/></g><g transform="matrix(1, 0, 0, 1, 163.831353375788, 189.86556142657878)" data-class-name="Link" data-key="-4" data-from-key="-9" data-to-key="313"><path stroke="#424242" fill="none" stroke-width="2" stroke-linecap="butt" stroke-linejoin="miter" stroke-miterlimit="10" d="M 0,0 L 0,32.9326858548217 L 0.32451348223466425,32.9326858548217 L 0.32451348223466425,55.8653717096434" transform="matrix(1, 0, 0, 1, 1, 1)"/></g><g transform="matrix(1, 0, 0, 1, 15.141583085494503, 23.489538381731776)" data-class-name="Node" data-key="309"><g transform="matrix(1, 0, 0, 1, 0, 0)"><g transform="matrix(1, 0, 0, 1, 0, 0)" data-item-index="0"><path stroke="transparent" fill="transparent" stroke-width="1" stroke-linecap="butt" stroke-linejoin="miter" stroke-miterlimit="10" d="M 30,39.99999999999999 L 1.5,40 C 1.499999999999993,19.01317950642985 14.25988462982238,2 29.999999999999996,2 z" transform="matrix(0.9063077870366497, -0.4226182617407, 0.4226182617407, 0.9063077870366497, 2.6644630243886738, 15.343010876609675)"/></g></g><g transform="matrix(1, 0, 0, 1, 3.7114450647524215, 54.259785382464344)"><path stroke="#919191" fill="white" stroke-width="2" stroke-linecap="butt" stroke-linejoin="miter" stroke-miterlimit="10" d="M 0,0 L 40,0 L 40,40 L 0,40 z" transform="matrix(1, 0, 0, 1, 1, 1)" data-port-id=""/><g transform="matrix(1, 0, 0, 1, 1, 1)"><g transform="matrix(1, 0, 0, 1, 0, 0)" data-item-index="0"><path stroke="none" fill="#000000" d="M 38,0 L 40,0 L 40,2 L 2,40 L 0,40 L 0,38 z M 40,38 L 40,40 L 38,40 L 0,2 L 0,0 L 2,0 z" transform="matrix(1, 0, 0, 1, 0, 0)"/></g></g><text x="8" y="13.870898437500001" style="font: 16px serif" text-anchor="middle" fill="black" transform="matrix(1, 0, 0, 1, 13, 11.752734375)">53</text></g><text x="7.22998046875" y="10.558374023437501" style="font: 13px sans-serif" text-anchor="middle" fill="black" transform="matrix(1, 0, 0, 1, 17.48146459600242, 96.25978538246434)">14</text><text x="11.5654296875" y="10.558374023437501" style="font: 13px sans-serif" text-anchor="middle" fill="black" transform="matrix(1, 0, 0, 1, 13.146015377252422, 110.33761741371434)">B18</text></g><g transform="matrix(1, 0, 0, 1, 139.7114450647524, 0)" data-class-name="Node" data-key="310"><g transform="matrix(1, 0, 0, 1, 0, 0)"><g transform="matrix(1, 0, 0, 1, 0, 0)" data-item-index="0"><path stroke="transparent" fill="transparent" stroke-width="1" stroke-linecap="butt" stroke-linejoin="miter" stroke-miterlimit="10" d="M 30,39.99999999999999 L 1.5,40 C 1.499999999999993,19.01317950642985 14.25988462982238,2 29.999999999999996,2 z" transform="matrix(0.9396926207859084, 0.3420201433256687, -0.3420201433256687, 0.9396926207859084, 16.32166211508254, 2.6408563820557873)"/></g><g transform="matrix(1, 0, 0, 1, 26.42335143964221, 26.56501094765899)"><path stroke="transparent" fill="transparent" stroke-width="1" stroke-linecap="butt" stroke-linejoin="miter" stroke-miterlimit="10" d="M 30,39.99999999999999 L 1.5,40 C 1.499999999999993,19.01317950642985 14.25988462982238,2 29.999999999999996,2 z" transform="matrix(0.9396926207859084, 0.3420201433256687, -0.3420201433256687, 0.9396926207859084, 16.32166211508254, 2.6408563820557873)"/></g></g><g transform="matrix(1, 0, 0, 1, 15.788324280178898, 79.69503284297697)"><path stroke="#a1a1a1" fill="#59ff04" stroke-width="2" stroke-linecap="butt" stroke-linejoin="miter" stroke-miterlimit="10" d="M 20,0 C 31.04569499661587,0 40,8.954305003384128 40,20 C 40,31.04569499661587 31.04569499661587,40 20,40 C 8.954305003384128,40 0,31.04569499661587 0,20 C 0,8.954305003384128 8.954305003384128,0 20,0 z" transform="matrix(1, 0, 0, 1, 1, 1)" data-port-id=""/><g transform="matrix(1, 0, 0, 1, 11, 11)"><g transform="matrix(1, 0, 0, 1, 0, 0)" data-item-index="0"><path stroke="none" fill="transparent" d="M 1,1 L 20,1 L 20,20 L 1,20 z" transform="matrix(1, 0, 0, 1, 0, 0)"/></g><g transform="matrix(1, 0, 0, 1, 0, 0)" data-item-index="1"><path stroke="none" fill="transparent" d="M 1,1 L 20,1 L 20,20 L 1,20 z" transform="matrix(1, 0, 0, 1, 0, 0)"/></g></g><text x="8" y="13.870898437500001" style="font: 16px serif" text-anchor="middle" fill="black" transform="matrix(1, 0, 0, 1, 13, 11.752734375)">44</text></g><text x="7.22998046875" y="10.558374023437501" style="font: 13px sans-serif" text-anchor="middle" fill="black" transform="matrix(1, 0, 0, 1, 29.558343811428898, 121.69503284297697)">15</text><text x="15.180419921875" y="10.558374023437501" style="font: 13px sans-serif" text-anchor="middle" fill="black" transform="matrix(1, 0, 0, 1, 21.607904358303898, 135.77286487422697)">B180</text></g><g transform="matrix(1, 0, 0, 1, 83.41769264160305, 116.23894807803188)" data-class-name="Node" data-key="311"><g transform="matrix(1, 0, 0, 1, 0, 0)"><g transform="matrix(1, 0, 0, 1, 0, 0)" data-item-index="0"><path stroke="transparent" fill="transparent" stroke-width="1" stroke-linecap="butt" stroke-linejoin="miter" stroke-miterlimit="10" d="M 30,39.99999999999999 L 1.5,40 C 1.499999999999993,19.01317950642985 14.25988462982238,2 29.999999999999996,2 z" transform="matrix(0.9063077870366497, -0.4226182617407, 0.4226182617407, 0.9063077870366497, 2.6644630243886738, 15.343010876609675)"/></g></g><g transform="matrix(1, 0, 0, 1, 3.7114450647524215, 54.259785382464344)"><path stroke="#919191" fill="white" stroke-width="2" stroke-linecap="butt" stroke-linejoin="miter" stroke-miterlimit="10" d="M 0,0 L 40,0 L 40,40 L 0,40 z" transform="matrix(1, 0, 0, 1, 1, 1)" data-port-id=""/><g transform="matrix(1, 0, 0, 1, 11, 11)"><g transform="matrix(1, 0, 0, 1, 0, 0)" data-item-index="0"><path stroke="none" fill="transparent" d="M 1,1 L 20,1 L 20,20 L 1,20 z" transform="matrix(1, 0, 0, 1, 0, 0)"/></g></g><text x="8" y="13.870898437500001" style="font: 16px serif" text-anchor="middle" fill="black" transform="matrix(1, 0, 0, 1, 13, 11.752734375)">23</text></g><text x="7.22998046875" y="10.558374023437501" style="font: 13px sans-serif" text-anchor="middle" fill="black" transform="matrix(1, 0, 0, 1, 17.48146459600242, 96.25978538246434)">16</text><text x="15.5390625" y="10.558374023437501" style="font: 13px sans-serif" text-anchor="middle" fill="black" transform="matrix(1, 0, 0, 1, 9.172382564752422, 110.33761741371434)">C212</text></g><g transform="matrix(1, 0, 0, 1, 197.9527281991647, 115.10245127856518)" data-class-name="Node" data-key="312"><g transform="matrix(1, 0, 0, 1, 0, 0)"><g transform="matrix(1, 0, 0, 1, 0, 0)" data-item-index="0"><path stroke="transparent" fill="transparent" stroke-width="1" stroke-linecap="butt" stroke-linejoin="miter" stroke-miterlimit="10" d="M 30,39.99999999999999 L 1.5,40 C 1.499999999999993,19.01317950642985 14.25988462982238,2 29.999999999999996,2 z" transform="matrix(0.9396926207859084, 0.3420201433256687, -0.3420201433256687, 0.9396926207859084, 16.32166211508254, 2.6408563820557873)"/></g></g><g transform="matrix(1, 0, 0, 1, 2.576648560357789, 53.13002189531798)"><path stroke="#a1a1a1" fill="white" stroke-width="2" stroke-linecap="butt" stroke-linejoin="miter" stroke-miterlimit="10" d="M 20,0 C 31.04569499661587,0 40,8.954305003384128 40,20 C 40,31.04569499661587 31.04569499661587,40 20,40 C 8.954305003384128,40 0,31.04569499661587 0,20 C 0,8.954305003384128 8.954305003384128,0 20,0 z" transform="matrix(1, 0, 0, 1, 1, 1)" data-port-id=""/><g transform="matrix(1, 0, 0, 1, 11, 11)"><g transform="matrix(1, 0, 0, 1, 0, 0)" data-item-index="0"><path stroke="none" fill="transparent" d="M 1,1 L 20,1 L 20,20 L 1,20 z" transform="matrix(1, 0, 0, 1, 0, 0)"/></g></g><text x="8" y="13.870898437500001" style="font: 16px serif" text-anchor="middle" fill="black" transform="matrix(1, 0, 0, 1, 13, 11.752734375)">21</text></g><text x="7.22998046875" y="10.558374023437501" style="font: 13px sans-serif" text-anchor="middle" fill="black" transform="matrix(1, 0, 0, 1, 16.34666809160779, 95.13002189531798)">17</text><text x="15.5390625" y="10.558374023437501" style="font: 13px sans-serif" text-anchor="middle" fill="black" transform="matrix(1, 0, 0, 1, 8.037586060357789, 109.20785392656798)">R100</text></g><g transform="matrix(1, 0, 0, 1, 128.36754257784378, 167.03590029324522)" data-class-name="Node" data-key="313"><g transform="matrix(1, 0, 0, 1, 0, 0)"><g transform="matrix(1, 0, 0, 1, 0, 0)" data-item-index="0"><path stroke="transparent" fill="transparent" stroke-width="1" stroke-linecap="butt" stroke-linejoin="miter" stroke-miterlimit="10" d="M 30,39.99999999999999 L 1.5,40 C 1.499999999999993,19.01317950642985 14.25988462982238,2 29.999999999999996,2 z" transform="matrix(0.9396926207859084, 0.3420201433256687, -0.3420201433256687, 0.9396926207859084, 16.32166211508254, 2.6408563820557873)"/></g><g transform="matrix(1, 0, 0, 1, 26.42335143964221, 26.56501094765899)"><path stroke="transparent" fill="transparent" stroke-width="1" stroke-linecap="butt" stroke-linejoin="miter" stroke-miterlimit="10" d="M 30,39.99999999999999 L 1.5,40 C 1.499999999999993,19.01317950642985 14.25988462982238,2 29.999999999999996,2 z" transform="matrix(0.9396926207859084, 0.3420201433256687, -0.3420201433256687, 0.9396926207859084, 16.32166211508254, 2.6408563820557873)"/></g></g><g transform="matrix(1, 0, 0, 1, 15.788324280178898, 79.69503284297697)"><path stroke="#a1a1a1" fill="#59ff04" stroke-width="2" stroke-linecap="butt" stroke-linejoin="miter" stroke-miterlimit="10" d="M 20,0 C 31.04569499661587,0 40,8.954305003384128 40,20 C 40,31.04569499661587 31.04569499661587,40 20,40 C 8.954305003384128,40 0,31.04569499661587 0,20 C 0,8.954305003384128 8.954305003384128,0 20,0 z" transform="matrix(1, 0, 0, 1, 1, 1)" data-port-id=""/><g transform="matrix(1, 0, 0, 1, 11, 11)"><g transform="matrix(1, 0, 0, 1, 0, 0)" data-item-index="0"><path stroke="none" fill="transparent" d="M 1,1 L 20,1 L 20,20 L 1,20 z" transform="matrix(1, 0, 0, 1, 0, 0)"/></g><g transform="matrix(1, 0, 0, 1, 0, 0)" data-item-index="1"><path stroke="none" fill="transparent" d="M 1,1 L 20,1 L 20,20 L 1,20 z" transform="matrix(1, 0, 0, 1, 0, 0)"/></g></g><text x="4" y="13.870898437500001" style="font: 16px serif" text-anchor="middle" fill="black" transform="matrix(1, 0, 0, 1, 17, 11.752734375)">9</text></g><text x="7.22998046875" y="10.558374023437501" style="font: 13px sans-serif" text-anchor="middle" fill="black" transform="matrix(1, 0, 0, 1, 29.558343811428898, 121.69503284297697)">18</text><text x="11.5654296875" y="10.558374023437501" style="font: 13px sans-serif" text-anchor="middle" fill="black" transform="matrix(1, 0, 0, 1, 25.222894592678898, 135.77286487422697)">B18<rect x="116.2883242801789" y="374.2661463504413" width="1" height="1" fill="rgb(0,0,0)" fill-opacity="0.3" transform="matrix(1, 0, 0, 1, 25.222894592678898, 135.77286487422697)"/><rect x="146.2883242801789" y="374.2661463504413" width="1" height="1" fill="rgb(0,0,0)" fill-opacity="0.3" transform="matrix(1, 0, 0, 1, 25.222894592678898, 135.77286487422697)"/><rect x="107.67746301441008" y="99.22219345765168" width="1" height="1" fill="rgb(0,0,0)" fill-opacity="0.3" transform="matrix(1, 0, 0, 1, 25.222894592678898, 135.77286487422697)"/><rect x="164.331353375788" y="189.86556142657878" width="1" height="1" fill="rgb(0,0,0)" fill-opacity="0.3" transform="matrix(1, 0, 0, 1, 25.222894592678898, 135.77286487422697)"/></text></g><g transform="matrix(1, 0, 0, 1, 59.60302815024693, 84.72219345765168)" data-class-name="Link" data-key="-1" data-from-key="309" data-to-key="310"><g transform="matrix(1, 0, 0, 1, 34.11447392666315, 0)"><text x="0" y="10.558374023437501" style="font: 13px sans-serif" text-anchor="start" fill="black" transform="matrix(1, 0, 0, 1, 0, 0)">1999</text></g><path stroke="#000000" fill="none" stroke-width="2.5" stroke-linecap="butt" stroke-linejoin="miter" stroke-miterlimit="10" d="M 0,0 L 94.6488697283263,1.3477025761219892" transform="matrix(1, 0, 0, 1, 1.25, 14.326148711938998)"/></g><g transform="matrix(1, 0, 0, 1, 127.8791377063555, 175.36556142657878)" data-class-name="Link" data-key="-2" data-from-key="312" data-to-key="311"><path stroke="#000000" fill="none" stroke-width="2.5" stroke-linecap="butt" stroke-linejoin="miter" stroke-miterlimit="10" d="M 71.40443133886504,0 L 0,1.426990175528573" transform="matrix(1, 0, 0, 1, 1.25, 14.2865049122357)"/><path stroke="black" fill="black" stroke-width="2" stroke-linecap="butt" stroke-linejoin="miter" stroke-miterlimit="10" d="M 0,10 L 13,0" transform="matrix(1, 0, 0, 1, 16.171329401659506, 10.285398035105686)"/><g transform="matrix(1, 0, 0, 1, 22.49225473193252, 0)"><text x="0" y="10.558374023437501" style="font: 13px sans-serif" text-anchor="start" fill="black" transform="matrix(1, 0, 0, 1, 0, 0)">2020</text></g></g></g><g transform="matrix(0.9740128617339489, 0, 0, 0.9740128617339489, 400.66578615221454, 23.105526808669616)"/></g><clipPath id="mainClip55963"><rect x="0" y="0" width="937px" height="430px"/></clipPath></svg>