<svg width="937px" height="430px" viewBox="0 0 937 430" xmlns="http://www.w3.org/2000/svg" xmlns:xlink="http://www.w3.org/1999/xlink" style="display: block; letter-spacing: normal; word-spacing: normal; width: 937px; height: 430px;"><g clip-path="url(#mainClip6337)"><g class="gojs-diagram" transform="matrix(1, 0, 0, 1, 255.8667231345316, 6)"><g transform="matrix(1, 0, 0, 1, 63.2109375, 48.18126440691735)" data-class-name="Link" data-key="-4" data-from-key="-13" data-to-key="316"><path stroke="#424242" fill="none" stroke-width="2" stroke-linecap="butt" stroke-linejoin="miter" stroke-miterlimit="10" d="M 151.49267578125,0 L 151.49267578125,65.20738025033366 L 0,65.20738025033366 L 0,120.41476050066733" transform="matrix(1, 0, 0, 1, 1, 1)"/></g><g transform="matrix(1, 0, 0, 1, 20, 190.09602490758468)" data-class-name="Link" data-key="-5" data-from-key="-14" data-to-key="8"><path stroke="#424242" fill="none" stroke-width="2" stroke-linecap="butt" stroke-linejoin="miter" stroke-miterlimit="10" d="M 93.7974853515625,0 L 93.7974853515625,58.287064148604344 L 0,58.287064148604344 L 0,106.57412829720866" transform="matrix(1, 0, 0, 1, 1, 1)"/></g><g transform="matrix(1, 0, 0, 1, 113.7974853515625, 190.09602490758468)" data-class-name="Link" data-key="-6" data-from-key="-14" data-to-key="318"><path stroke="#424242" fill="none" stroke-width="2" stroke-linecap="butt" stroke-linejoin="miter" stroke-miterlimit="10" d="M 0,0 L 0,58.627696352063 L 85.2025146484375,58.627696352063 L 85.2025146484375,107.25539270412602" transform="matrix(1, 0, 0, 1, 1, 1)"/></g><g transform="matrix(1, 0, 0, 1, 214.70361328125, 48.18126440691735)" data-class-name="Link" data-key="-7" data-from-key="-13" data-to-key="319"><path stroke="#424242" fill="none" stroke-width="2" stroke-linecap="butt" stroke-linejoin="miter" stroke-miterlimit="10" d="M 0,0 L 0,65.62769635206301 L 157.42966358421836,65.62769635206301 L 157.42966358421836,121.25539270412601" transform="matrix(1, 0, 0, 1, 1, 1)"/></g><g transform="matrix(1, 0, 0, 1, 312, 190.43666012892487)" data-class-name="Link" data-key="-8" data-from-key="-15" data-to-key="321"><path stroke="#424242" fill="none" stroke-width="2" stroke-linecap="butt" stroke-linejoin="miter" stroke-miterlimit="10" d="M 0.00036295021004661976,0 L 0.00036295021004661976,45.37769484312224 L 0,45.37769484312224 L 0,80.75538968624448" transform="matrix(1, 0, 0, 1, 1, 1)"/></g><g transform="matrix(1, 0, 0, 1, 140.3564453125, 0)" data-class-name="Node" data-key="314"><g transform="matrix(1, 0, 0, 1, 21.10320604802108, 0)"><g transform="matrix(1, 0, 0, 1, 0, 0)" data-item-index="0"><path stroke="transparent" fill="transparent" stroke-width="1" stroke-linecap="butt" stroke-linejoin="miter" stroke-miterlimit="10" d="M 10,19.999999999999996 L 0.5,20 C 0.5,9.50658975321493 4.7532948766074625,1.0000000000000036 9.999999999999998,1 z" transform="matrix(0.9063077870366497, -0.4226182617407, 0.4226182617407, 0.9063077870366497, 2.6644630243886738, 6.8906456417956745)"/></g></g><g transform="matrix(1, 0, 0, 1, 11.525390625, 27.681264406917347)"><path stroke="#919191" fill="white" stroke-width="2" stroke-linecap="butt" stroke-linejoin="miter" stroke-miterlimit="10" d="M 0,0 L 40,0 L 40,40 L 0,40 z" transform="matrix(1, 0, 0, 1, 1, 1)" data-port-id=""/><g transform="matrix(1, 0, 0, 1, 1, 1)"><g transform="matrix(1, 0, 0, 1, 0, 0)" data-item-index="0"><path stroke="none" fill="#000000" d="M 38,0 L 40,0 L 40,2 L 2,40 L 0,40 L 0,38 z M 40,38 L 40,40 L 38,40 L 0,2 L 0,0 L 2,0 z" transform="matrix(1, 0, 0, 1, 0, 0)"/></g></g><text x="8" y="13.870898437500001" style="font: 16px serif" text-anchor="middle" fill="black" transform="matrix(1, 0, 0, 1, 13, 11.752734375)">54</text></g><text x="32.525390625" y="10.558374023437501" style="font: 13px sans-serif" text-anchor="middle" fill="black" transform="matrix(1, 0, 0, 1, 0, 69.68126440691735)">Juan Pablo</text><text x="11.5654296875" y="10.558374023437501" style="font: 13px sans-serif" text-anchor="middle" fill="black" transform="matrix(1, 0, 0, 1, 20.9599609375, 83.75909643816735)">B18</text></g><g transform="matrix(1, 0, 0, 1, 235.4072265625, 0)" data-class-name="Node" data-key="315"><g transform="matrix(1, 0, 0, 1, 11.695979485521077, 0)"><g transform="matrix(1, 0, 0, 1, 0, 0)" data-item-index="0"><path stroke="transparent" fill="transparent" stroke-width="1" stroke-linecap="butt" stroke-linejoin="miter" stroke-miterlimit="10" d="M 10,19.999999999999996 L 0.5,20 C 0.5,9.50658975321493 4.7532948766074625,1.0000000000000036 9.999999999999998,1 z" transform="matrix(0.9063077870366497, -0.4226182617407, 0.4226182617407, 0.9063077870366497, 2.6644630243886738, 6.8906456417956745)"/></g></g><g transform="matrix(1, 0, 0, 1, 2.1181640625, 27.681264406917347)"><path stroke="#a1a1a1" fill="white" stroke-width="2" stroke-linecap="butt" stroke-linejoin="miter" stroke-miterlimit="10" d="M 20,0 C 31.04569499661587,0 40,8.954305003384128 40,20 C 40,31.04569499661587 31.04569499661587,40 20,40 C 8.954305003384128,40 0,31.04569499661587 0,20 C 0,8.954305003384128 8.954305003384128,0 20,0 z" transform="matrix(1, 0, 0, 1, 1, 1)" data-port-id=""/><g transform="matrix(1, 0, 0, 1, 11, 11)"><g transform="matrix(1, 0, 0, 1, 0, 0)" data-item-index="0"><path stroke="none" fill="transparent" d="M 1,1 L 20,1 L 20,20 L 1,20 z" transform="matrix(1, 0, 0, 1, 0, 0)"/></g></g><text x="8" y="13.870898437500001" style="font: 16px serif" text-anchor="middle" fill="black" transform="matrix(1, 0, 0, 1, 13, 11.752734375)">52</text></g><g transform="matrix(1, 0, 0, 1, 0, 0)"><text x="23.1181640625" y="10.558374023437501" style="font: 13px sans-serif" text-anchor="middle" fill="black" transform="matrix(1, 0, 0, 1, 0, 69.68126440691735)">Carmen</text><text x="23.1181640625" y="24.636206054687502" style="font: 13px sans-serif" text-anchor="middle" fill="black" transform="matrix(1, 0, 0, 1, 0, 69.68126440691735)">Lucia</text></g><text x="11.5654296875" y="10.558374023437501" style="font: 13px sans-serif" text-anchor="middle" fill="black" transform="matrix(1, 0, 0, 1, 11.552734375, 97.83692846941736)">K70</text></g><g transform="matrix(1, 0, 0, 1, 24.826904296875, 141.91476050066734)" data-class-name="Node" data-key="316"><g transform="matrix(1, 0, 0, 1, 27.96184862614608, 0)"><g transform="matrix(1, 0, 0, 1, 0, 0)" data-item-index="0"><path stroke="transparent" fill="transparent" stroke-width="1" stroke-linecap="butt" stroke-linejoin="miter" stroke-miterlimit="10" d="M 10,19.999999999999996 L 0.5,20 C 0.5,9.50658975321493 4.7532948766074625,1.0000000000000036 9.999999999999998,1 z" transform="matrix(0.9063077870366497, -0.4226182617407, 0.4226182617407, 0.9063077870366497, 2.6644630243886738, 6.8906456417956745)"/></g></g><g transform="matrix(1, 0, 0, 1, 18.384033203125, 27.681264406917347)"><path stroke="#919191" fill="white" stroke-width="2" stroke-linecap="butt" stroke-linejoin="miter" stroke-miterlimit="10" d="M 0,0 L 40,0 L 40,40 L 0,40 z" transform="matrix(1, 0, 0, 1, 1, 1)" data-port-id=""/><g transform="matrix(1, 0, 0, 1, 11, 11)"><g transform="matrix(1, 0, 0, 1, 0, 0)" data-item-index="0"><path stroke="none" fill="transparent" d="M 1,1 L 20,1 L 20,20 L 1,20 z" transform="matrix(1, 0, 0, 1, 0, 0)"/></g></g><text x="8" y="13.870898437500001" style="font: 16px serif" text-anchor="middle" fill="black" transform="matrix(1, 0, 0, 1, 13, 11.752734375)">32</text></g><text x="39.384033203125" y="10.558374023437501" style="font: 13px sans-serif" text-anchor="middle" fill="black" transform="matrix(1, 0, 0, 1, 0, 69.68126440691735)">Pablo Ramon</text><text x="11.5654296875" y="10.558374023437501" style="font: 13px sans-serif" text-anchor="middle" fill="black" transform="matrix(1, 0, 0, 1, 27.818603515625, 83.75909643816735)">B18</text></g><g transform="matrix(1, 0, 0, 1, 0, 297.67015320479334)" data-class-name="Node" data-key="8"><g transform="matrix(1, 0, 0, 1, 0, 0)"><path stroke="#a1a1a1" fill="white" stroke-width="2" stroke-linecap="butt" stroke-linejoin="miter" stroke-miterlimit="10" d="M 40,40 L 0,40 L 20,0 z" transform="matrix(1, 0, 0, 1, 1, 1)" data-port-id=""/></g></g><g transform="matrix(1, 0, 0, 1, 133.594970703125, 141.91476050066734)" data-class-name="Node" data-key="317"><g transform="matrix(1, 0, 0, 1, 20.36687792302108, 0)"><g transform="matrix(1, 0, 0, 1, 0, 0)" data-item-index="0"><path stroke="transparent" fill="transparent" stroke-width="1" stroke-linecap="butt" stroke-linejoin="miter" stroke-miterlimit="10" d="M 10,19.999999999999996 L 0.5,20 C 0.5,9.50658975321493 4.7532948766074625,1.0000000000000036 9.999999999999998,1 z" transform="matrix(0.9063077870366497, -0.4226182617407, 0.4226182617407, 0.9063077870366497, 2.6644630243886738, 6.8906456417956745)"/></g></g><g transform="matrix(1, 0, 0, 1, 10.7890625, 27.681264406917347)"><path stroke="#a1a1a1" fill="white" stroke-width="2" stroke-linecap="butt" stroke-linejoin="miter" stroke-miterlimit="10" d="M 20,0 C 31.04569499661587,0 40,8.954305003384128 40,20 C 40,31.04569499661587 31.04569499661587,40 20,40 C 8.954305003384128,40 0,31.04569499661587 0,20 C 0,8.954305003384128 8.954305003384128,0 20,0 z" transform="matrix(1, 0, 0, 1, 1, 1)" data-port-id=""/><g transform="matrix(1, 0, 0, 1, 11, 11)"><g transform="matrix(1, 0, 0, 1, 0, 0)" data-item-index="0"><path stroke="none" fill="transparent" d="M 1,1 L 20,1 L 20,20 L 1,20 z" transform="matrix(1, 0, 0, 1, 0, 0)"/></g></g><text x="8" y="13.870898437500001" style="font: 16px serif" text-anchor="middle" fill="black" transform="matrix(1, 0, 0, 1, 13, 11.752734375)">34</text></g><text x="31.7890625" y="10.558374023437501" style="font: 13px sans-serif" text-anchor="middle" fill="black" transform="matrix(1, 0, 0, 1, 0, 69.68126440691735)">Maria Jose</text><text x="15.180419921875" y="10.558374023437501" style="font: 13px sans-serif" text-anchor="middle" fill="black" transform="matrix(1, 0, 0, 1, 16.608642578125, 83.75909643816735)">K290</text></g><g transform="matrix(1, 0, 0, 1, 172.5400390625, 270.67015320479334)" data-class-name="Node" data-key="318"><g transform="matrix(1, 0, 0, 1, 16.03777636052108, 0)"><g transform="matrix(1, 0, 0, 1, 0, 0)" data-item-index="0"><path stroke="transparent" fill="transparent" stroke-width="1" stroke-linecap="butt" stroke-linejoin="miter" stroke-miterlimit="10" d="M 10,19.999999999999996 L 0.5,20 C 0.5,9.50658975321493 4.7532948766074625,1.0000000000000036 9.999999999999998,1 z" transform="matrix(0.9063077870366497, -0.4226182617407, 0.4226182617407, 0.9063077870366497, 2.6644630243886738, 6.8906456417956745)"/></g></g><g transform="matrix(1, 0, 0, 1, 6.4599609375, 27.681264406917347)"><path stroke="#919191" fill="white" stroke-width="2" stroke-linecap="butt" stroke-linejoin="miter" stroke-miterlimit="10" d="M 0,0 L 40,0 L 40,40 L 0,40 z" transform="matrix(1, 0, 0, 1, 1, 1)" data-port-id=""/><g transform="matrix(1, 0, 0, 1, 11, 11)"><g transform="matrix(1, 0, 0, 1, 0, 0)" data-item-index="0"><path stroke="none" fill="transparent" d="M 1,1 L 20,1 L 20,20 L 1,20 z" transform="matrix(1, 0, 0, 1, 0, 0)"/></g></g><text x="8" y="13.870898437500001" style="font: 16px serif" text-anchor="middle" fill="black" transform="matrix(1, 0, 0, 1, 13, 11.752734375)">12</text></g><text x="27.4599609375" y="10.558374023437501" style="font: 13px sans-serif" text-anchor="middle" fill="black" transform="matrix(1, 0, 0, 1, 0, 69.68126440691735)">Jose Luis</text><text x="11.5654296875" y="10.558374023437501" style="font: 13px sans-serif" text-anchor="middle" fill="black" transform="matrix(1, 0, 0, 1, 15.89453125, 83.75909643816735)">B18</text></g><g transform="matrix(1, 0, 0, 1, 331, 128.91476050066734)" data-class-name="Node" data-key="319"><g transform="matrix(1, 0, 0, 1, 0, 0)"><g transform="matrix(1, 0, 0, 1, 61.42218457697892, 0)" data-item-index="0"><path stroke="transparent" fill="transparent" stroke-width="1" stroke-linecap="butt" stroke-linejoin="miter" stroke-miterlimit="10" d="M 10,19.999999999999996 L 0.5,20 C 0.5,9.50658975321493 4.7532948766074625,1.0000000000000036 9.999999999999998,1 z" transform="matrix(0.9063077870366497, -0.4226182617407, 0.4226182617407, 0.9063077870366497, 2.6644630243886738, 6.8906456417956745)"/></g><g transform="matrix(1, 0, 0, 1, 0, 13.840632203458673)"><path stroke="#000000" fill="none" stroke-width="1" stroke-linecap="butt" stroke-linejoin="miter" stroke-miterlimit="10" d="M 6.475635421725757,1.3463576577010103 C 6.69916008978096,1.3463576577010103 6.880362635583617,1.6477500854684277 6.880362635583617,2.0195364865515155 L 6.880362635583617,17.89713234381953 L 9.426906265177271,13.66014479503445 C 9.58516173231874,13.39692002665765 9.841744537175305,13.396920032478231 10,13.660144808035081 C 10.158255459936514,13.92336957878805 10.158255459748222,14.35014124701965 9.999999999579439,14.613366017386284 L 6.762182289137122,19.998796647490806 C 6.604326389557231,20.262021419457632 6.348067496459058,20.262560178727327 6.189812031475975,19.999999999999996 C 6.189570567693027,19.999599389670276 6.189329408446522,19.99919827184679 6.189088554314392,19.998796647490806 L 2.9512708434515145,14.613366016686765 C 2.7930153815208527,14.350141239642877 2.7930153864698055,13.923369561924215 2.95127085450531,13.660144795034451 C 3.1095263184563087,13.396920034938406 3.3661091152464904,13.396920035381315 3.5243645788690094,13.660144796023719 L 6.070908207867897,17.89713234381953 L 6.070908207867897,2.0195364865515155 C 6.070908207867897,1.6477500854684277 6.2521107536705545,1.3463576577010103 6.475635421725757,1.3463576577010103 z" transform="matrix(0.9063077870366497, -0.4226182617407, 0.4226182617407, 0.9063077870366497, 2.6644630243886738, 6.8906456417956745)"/></g><g transform="matrix(1, 0, 0, 1, 0, 13.840632203458673)"><path stroke="transparent" fill="transparent" stroke-width="1" stroke-linecap="butt" stroke-linejoin="miter" stroke-miterlimit="10" d="M 10,19.999999999999996 L 0.5,20 C 0.5,9.50658975321493 4.7532948766074625,1.0000000000000036 9.999999999999998,1 z" transform="matrix(0.9063077870366497, -0.4226182617407, 0.4226182617407, 0.9063077870366497, 2.6644630243886738, 6.8906456417956745)"/></g></g><g transform="matrix(1, 0, 0, 1, 21.133276865468382, 41.52189661037602)"><path stroke="#a1a1a1" fill="#BB8FCE" stroke-width="2" stroke-linecap="butt" stroke-linejoin="miter" stroke-miterlimit="10" d="M 20,0 C 31.04569499661587,0 40,8.954305003384128 40,20 C 40,31.04569499661587 31.04569499661587,40 20,40 C 8.954305003384128,40 0,31.04569499661587 0,20 C 0,8.954305003384128 8.954305003384128,0 20,0 z" transform="matrix(1, 0, 0, 1, 1, 1)" data-port-id=""/><g transform="matrix(1, 0, 0, 1, 11, 11)"><g transform="matrix(1, 0, 0, 1, 0, 0)" data-item-index="0"><path stroke="none" fill="transparent" d="M 1,1 L 20,1 L 20,20 L 1,20 z" transform="matrix(1, 0, 0, 1, 0, 0)"/></g><g transform="matrix(1, 0, 0, 1, 0, 0)" data-item-index="1"><path stroke="none" fill="transparent" d="M 1,1 L 20,1 L 20,20 L 1,20 z" transform="matrix(1, 0, 0, 1, 0, 0)"/></g><g transform="matrix(1, 0, 0, 1, 0, 0)" data-item-index="2"><path stroke="none" fill="transparent" d="M 1,1 L 20,1 L 20,20 L 1,20 z" transform="matrix(1, 0, 0, 1, 0, 0)"/></g></g><text x="8" y="13.870898437500001" style="font: 16px serif" text-anchor="middle" fill="black" transform="matrix(1, 0, 0, 1, 13, 11.752734375)">23</text></g><text x="39.7490234375" y="10.558374023437501" style="font: 13px sans-serif" text-anchor="middle" fill="black" transform="matrix(1, 0, 0, 1, 2.384253427968382, 83.52189661037602)">Karen Juliana</text><text x="11.5654296875" y="10.558374023437501" style="font: 13px sans-serif" text-anchor="middle" fill="black" transform="matrix(1, 0, 0, 1, 30.567847177968382, 97.59972864162602)">K70</text></g><g transform="matrix(1, 0, 0, 1, 210.73344626906322, 127.91476050066734)" data-class-name="Node" data-key="320"><g transform="matrix(1, 0, 0, 1, 0, 0)"><g transform="matrix(1, 0, 0, 1, 61.42218457697892, 0)" data-item-index="0"><path stroke="transparent" fill="transparent" stroke-width="1" stroke-linecap="butt" stroke-linejoin="miter" stroke-miterlimit="10" d="M 10,19.999999999999996 L 0.5,20 C 0.5,9.50658975321493 4.7532948766074625,1.0000000000000036 9.999999999999998,1 z" transform="matrix(0.9063077870366497, -0.4226182617407, 0.4226182617407, 0.9063077870366497, 2.6644630243886738, 6.8906456417956745)"/></g><g transform="matrix(1, 0, 0, 1, 0, 13.840632203458673)"><path stroke="transparent" fill="transparent" stroke-width="1" stroke-linecap="butt" stroke-linejoin="miter" stroke-miterlimit="10" d="M 10,19.999999999999996 L 0.5,20 C 0.5,9.50658975321493 4.7532948766074625,1.0000000000000036 9.999999999999998,1 z" transform="matrix(0.9063077870366497, -0.4226182617407, 0.4226182617407, 0.9063077870366497, 2.6644630243886738, 6.8906456417956745)"/></g></g><g transform="matrix(1, 0, 0, 1, 21.133276865468382, 41.52189661037602)"><path stroke="#919191" fill="#BB8FCE" stroke-width="2" stroke-linecap="butt" stroke-linejoin="miter" stroke-miterlimit="10" d="M 0,0 L 40,0 L 40,40 L 0,40 z" transform="matrix(1, 0, 0, 1, 1, 1)" data-port-id=""/><g transform="matrix(1, 0, 0, 1, 11, 11)"><g transform="matrix(1, 0, 0, 1, 0, 0)" data-item-index="0"><path stroke="none" fill="transparent" d="M 1,1 L 20,1 L 20,20 L 1,20 z" transform="matrix(1, 0, 0, 1, 0, 0)"/></g><g transform="matrix(1, 0, 0, 1, 0, 0)" data-item-index="1"><path stroke="none" fill="transparent" d="M 1,1 L 20,1 L 20,20 L 1,20 z" transform="matrix(1, 0, 0, 1, 0, 0)"/></g></g><text x="8" y="13.870898437500001" style="font: 16px serif" text-anchor="middle" fill="black" transform="matrix(1, 0, 0, 1, 13, 11.752734375)">24</text></g><g transform="matrix(1, 0, 0, 1, 0, 0)"><text x="23.12451171875" y="10.558374023437501" style="font: 13px sans-serif" text-anchor="middle" fill="black" transform="matrix(1, 0, 0, 1, 19.008765146718382, 83.52189661037602)">Roberto</text><text x="23.12451171875" y="24.636206054687502" style="font: 13px sans-serif" text-anchor="middle" fill="black" transform="matrix(1, 0, 0, 1, 19.008765146718382, 83.52189661037602)">Carlos</text></g><text x="11.924072265625" y="10.558374023437501" style="font: 13px sans-serif" text-anchor="middle" fill="black" transform="matrix(1, 0, 0, 1, 30.209204599843382, 111.67756067287601)">C15</text></g><g transform="matrix(1, 0, 0, 1, 270.86672313453164, 230.67015320479334)" data-class-name="Node" data-key="321"><g transform="matrix(1, 0, 0, 1, 0, 0)"><g transform="matrix(1, 0, 0, 1, 61.42218457697892, 0)" data-item-index="0"><path stroke="transparent" fill="transparent" stroke-width="1" stroke-linecap="butt" stroke-linejoin="miter" stroke-miterlimit="10" d="M 10,19.999999999999996 L 0.5,20 C 0.5,9.50658975321493 4.7532948766074625,1.0000000000000036 9.999999999999998,1 z" transform="matrix(0.9063077870366497, -0.4226182617407, 0.4226182617407, 0.9063077870366497, 2.6644630243886738, 6.8906456417956745)"/></g><g transform="matrix(1, 0, 0, 1, 0, 13.840632203458673)"><path stroke="transparent" fill="transparent" stroke-width="1" stroke-linecap="butt" stroke-linejoin="miter" stroke-miterlimit="10" d="M 10,19.999999999999996 L 0.5,20 C 0.5,9.50658975321493 4.7532948766074625,1.0000000000000036 9.999999999999998,1 z" transform="matrix(0.9063077870366497, -0.4226182617407, 0.4226182617407, 0.9063077870366497, 2.6644630243886738, 6.8906456417956745)"/></g></g><g transform="matrix(1, 0, 0, 1, 16.383276865468382, 41.52189661037602)"><g transform="matrix(1, 0, 0, 1, 0, 0)" data-port-id=""><rect x="-0.75" y="-0.75" width="51.5" height="51.5" fill="#BB8FCE" transform="matrix(1, 0, 0, 1, 0.75, 0.75)"/><path stroke="#636363" fill="none" stroke-width="1.5" stroke-linecap="butt" stroke-linejoin="miter" stroke-miterlimit="10" d="M 0.15287034064413668,1.5247447288638314 L 0.15287034064413668,49.58591809524875 M 50,0 L 50,49.99753035116102 M 0.1058188332216157,1.4985294064380124 L 8.558023627539466,1.2731657177178242 M 0,49.608737650520986 L 5.669696186973448,49.608737650520986 M 49.7919492354043,50 L 43.52179731320486,49.83144235065786 M 42.696140612129724,0.4051829367680951 L 49.90741679973758,0.31514365618009477 M 24.27470160567017,5.5350757638870824 C 14.872749931143375,5.5350755888689065 7.250962051450813,14.534954801644728 7.250961903232,25.636868609617643 C 7.250961755013186,36.738782417590556 14.87274939439557,45.73866191412692 24.27470106892237,45.7386620891451 C 33.67665274344917,45.73866226416328 41.29844062314173,36.73878305138746 41.298440771360546,25.636869243414548 C 41.298440919579356,14.534955435441631 33.67665328019697,5.535075938905269 24.274701605670174,5.535075763887086" transform="matrix(1, 0, 0, 1, 0.75, 0.75)"/></g><g transform="matrix(1, 0, 0, 1, 15.75, 15.75)"><g transform="matrix(1, 0, 0, 1, 0, 0)" data-item-index="0"><path stroke="none" fill="transparent" d="M 1,1 L 20,1 L 20,20 L 1,20 z" transform="matrix(1, 0, 0, 1, 0, 0)"/></g><g transform="matrix(1, 0, 0, 1, 0, 0)" data-item-index="1"><path stroke="none" fill="transparent" d="M 1,1 L 20,1 L 20,20 L 1,20 z" transform="matrix(1, 0, 0, 1, 0, 0)"/></g></g><text x="4" y="13.870898437500001" style="font: 16px serif" text-anchor="middle" fill="black" transform="matrix(1, 0, 0, 1, 21.75, 16.502734375)">2</text></g><g transform="matrix(1, 0, 0, 1, 0, 0)"><text x="23.1181640625" y="10.558374023437501" style="font: 13px sans-serif" text-anchor="middle" fill="black" transform="matrix(1, 0, 0, 1, 19.015112802968382, 93.02189661037602)">Lucia</text><text x="23.1181640625" y="24.636206054687502" style="font: 13px sans-serif" text-anchor="middle" fill="black" transform="matrix(1, 0, 0, 1, 19.015112802968382, 93.02189661037602)">Marcela</text></g><text x="15.5390625" y="10.558374023437501" style="font: 13px sans-serif" text-anchor="middle" fill="black" transform="matrix(1, 0, 0, 1, 26.594214365468382, 121.17756067287601)">D733<rect x="330.5" y="297.67015320479334" width="1" height="1" fill="rgb(0,0,0)" fill-opacity="0.3" transform="matrix(1, 0, 0, 1, 26.594214365468382, 121.17756067287601)"/><rect x="360.5" y="297.67015320479334" width="1" height="1" fill="rgb(0,0,0)" fill-opacity="0.3" transform="matrix(1, 0, 0, 1, 26.594214365468382, 121.17756067287601)"/><rect x="390.5" y="297.67015320479334" width="1" height="1" fill="rgb(0,0,0)" fill-opacity="0.3" transform="matrix(1, 0, 0, 1, 26.594214365468382, 121.17756067287601)"/><rect x="215.20361328125" y="48.18126440691735" width="1" height="1" fill="rgb(0,0,0)" fill-opacity="0.3" transform="matrix(1, 0, 0, 1, 26.594214365468382, 121.17756067287601)"/><rect x="114.2974853515625" y="190.09602490758468" width="1" height="1" fill="rgb(0,0,0)" fill-opacity="0.3" transform="matrix(1, 0, 0, 1, 26.594214365468382, 121.17756067287601)"/><rect x="312.50036295021005" y="190.43666012892487" width="1" height="1" fill="rgb(0,0,0)" fill-opacity="0.3" transform="matrix(1, 0, 0, 1, 26.594214365468382, 121.17756067287601)"/></text></g><g transform="matrix(1, 0, 0, 1, 192.6318359375, 33.68126440691735)" data-class-name="Link" data-key="-1" data-from-key="314" data-to-key="315"><g transform="matrix(1, 0, 0, 1, 8.61181640625, 0)"><text x="0" y="10.558374023437501" style="font: 13px sans-serif" text-anchor="start" fill="black" transform="matrix(1, 0, 0, 1, 0, 0)">1990</text></g><path stroke="#000000" fill="none" stroke-width="2.5" stroke-linecap="butt" stroke-linejoin="miter" stroke-miterlimit="10" d="M 0,0 L 43.6435546875,0" transform="matrix(1, 0, 0, 1, 1.25, 15)"/></g><g transform="matrix(1, 0, 0, 1, 83.9609375, 175.59602490758468)" data-class-name="Link" data-key="-2" data-from-key="317" data-to-key="316"><path stroke="#000000" fill="none" stroke-width="2.5" stroke-linecap="butt" stroke-linejoin="miter" stroke-miterlimit="10" d="M 59.173095703125,0 L 0,0" transform="matrix(1, 0, 0, 1, 1.25, 15)"/><path stroke="black" fill="black" stroke-width="2" stroke-linecap="butt" stroke-linejoin="miter" stroke-miterlimit="10" d="M 0,10 L 13,0 M 9,10 L 22,0" transform="matrix(1, 0, 0, 1, 8.001928710937506, 10)"/><g transform="matrix(1, 0, 0, 1, 16.3765869140625, 0)"><text x="0" y="10.558374023437501" style="font: 13px sans-serif" text-anchor="start" fill="black" transform="matrix(1, 0, 0, 1, 0, 0)">2014</text></g></g><g transform="matrix(1, 0, 0, 1, 272.36672313453164, 175.93666012892487)" data-class-name="Link" data-key="-3" data-from-key="320" data-to-key="319"><g transform="matrix(1, 0, 0, 1, 26.173678878178407, 0)"><text x="0" y="10.558374023437501" style="font: 13px sans-serif" text-anchor="start" fill="black" transform="matrix(1, 0, 0, 1, 0, 0)">2020</text></g><g transform="matrix(1, 0, 0, 1, 0, 0)"><path stroke="transparent" fill="none" stroke-width="3" stroke-linecap="butt" stroke-linejoin="miter" stroke-miterlimit="10" d="M 0,0 L 78.26727963135687,0.6507817610410314" transform="matrix(1, 0, 0, 1, 1.5, 14.674609119479499)"/><path stroke="#000000" fill="none" stroke-width="1.3" stroke-linecap="round" stroke-linejoin="miter" stroke-miterlimit="10" d="M 0,0 M 4,0 L 4.1,0" transform="matrix(0.9999654332886063, 0.00831457923949509, -0.00831457923949509, 0.9999654332886063, 0.2054494132650908, 14.013822630668464)"/><path stroke="#000000" fill="none" stroke-width="1.3" stroke-linecap="round" stroke-linejoin="miter" stroke-miterlimit="10" d="M 0,0 M 4,0 L 4.1,0" transform="matrix(0.9999654332886063, 0.008314579239494652, -0.008314579239494652, 0.9999654332886063, 4.305307689849725, 14.047912393361397)"/><path stroke="#000000" fill="none" stroke-width="1.3" stroke-linecap="round" stroke-linejoin="miter" stroke-miterlimit="10" d="M 0,0 M 4,0 L 4.1,0" transform="matrix(0.9999654332886063, 0.008314579239494215, -0.008314579239494215, 0.9999654332886063, 8.40516596643436, 14.082002156054328)"/><path stroke="#000000" fill="none" stroke-width="1.3" stroke-linecap="round" stroke-linejoin="miter" stroke-miterlimit="10" d="M 0,0 M 4,0 L 4.1,0" transform="matrix(0.9999654332886063, 0.008314579239493778, -0.008314579239493778, 0.9999654332886063, 12.505024243018996, 14.116091918747257)"/><path stroke="#000000" fill="none" stroke-width="1.3" stroke-linecap="round" stroke-linejoin="miter" stroke-miterlimit="10" d="M 0,0 M 4,0 L 4.1,0" transform="matrix(0.9999654332886063, 0.00831457923949334, -0.00831457923949334, 0.9999654332886063, 16.60488251960363, 14.150181681440184)"/><path stroke="#000000" fill="none" stroke-width="1.3" stroke-linecap="round" stroke-linejoin="miter" stroke-miterlimit="10" d="M 0,0 M 4,0 L 4.1,0" transform="matrix(0.9999654332886063, 0.008314579239492904, -0.008314579239492904, 0.9999654332886063, 20.70474079618827, 14.18427144413311)"/><path stroke="#000000" fill="none" stroke-width="1.3" stroke-linecap="round" stroke-linejoin="miter" stroke-miterlimit="10" d="M 0,0 M 4,0 L 4.1,0" transform="matrix(0.9999654332886063, 0.008314579239492467, -0.008314579239492467, 0.9999654332886063, 24.804599072772902, 14.218361206826035)"/><path stroke="#000000" fill="none" stroke-width="1.3" stroke-linecap="round" stroke-linejoin="miter" stroke-miterlimit="10" d="M 0,0 M 4,0 L 4.1,0" transform="matrix(0.9999654332886063, 0.00831457923949203, -0.00831457923949203, 0.9999654332886063, 28.904457349357536, 14.252450969518957)"/><path stroke="#000000" fill="none" stroke-width="1.3" stroke-linecap="round" stroke-linejoin="miter" stroke-miterlimit="10" d="M 0,0 M 4,0 L 4.1,0" transform="matrix(0.9999654332886063, 0.008314579239491592, -0.008314579239491592, 0.9999654332886063, 33.00431562594217, 14.286540732211877)"/><path stroke="#000000" fill="none" stroke-width="1.3" stroke-linecap="round" stroke-linejoin="miter" stroke-miterlimit="10" d="M 0,0 M 4,0 L 4.1,0" transform="matrix(0.9999654332886063, 0.008314579239491155, -0.008314579239491155, 0.9999654332886063, 37.1041739025268, 14.320630494904796)"/><path stroke="#000000" fill="none" stroke-width="1.3" stroke-linecap="round" stroke-linejoin="miter" stroke-miterlimit="10" d="M 0,0 M 4,0 L 4.1,0" transform="matrix(0.9999654332886063, 0.008314579239490718, -0.008314579239490718, 0.9999654332886063, 41.20403217911144, 14.354720257597712)"/><path stroke="#000000" fill="none" stroke-width="1.3" stroke-linecap="round" stroke-linejoin="miter" stroke-miterlimit="10" d="M 0,0 M 4,0 L 4.1,0" transform="matrix(0.9999654332886063, 0.00831457923949028, -0.00831457923949028, 0.9999654332886063, 45.30389045569607, 14.388810020290629)"/><path stroke="#000000" fill="none" stroke-width="1.3" stroke-linecap="round" stroke-linejoin="miter" stroke-miterlimit="10" d="M 0,0 M 4,0 L 4.1,0" transform="matrix(0.9999654332886063, 0.008314579239489844, -0.008314579239489844, 0.9999654332886063, 49.403748732280704, 14.422899782983542)"/><path stroke="#000000" fill="none" stroke-width="1.3" stroke-linecap="round" stroke-linejoin="miter" stroke-miterlimit="10" d="M 0,0 M 4,0 L 4.1,0" transform="matrix(0.9999654332886063, 0.008314579239489406, -0.008314579239489406, 0.9999654332886063, 53.50360700886534, 14.456989545676452)"/><path stroke="#000000" fill="none" stroke-width="1.3" stroke-linecap="round" stroke-linejoin="miter" stroke-miterlimit="10" d="M 0,0 M 4,0 L 4.1,0" transform="matrix(0.9999654332886063, 0.00831457923948897, -0.00831457923948897, 0.9999654332886063, 57.60346528544997, 14.491079308369361)"/><path stroke="#000000" fill="none" stroke-width="1.3" stroke-linecap="round" stroke-linejoin="miter" stroke-miterlimit="10" d="M 0,0 M 4,0 L 4.1,0" transform="matrix(0.9999654332886063, 0.008314579239488532, -0.008314579239488532, 0.9999654332886063, 61.70332356203461, 14.52516907106227)"/><path stroke="#000000" fill="none" stroke-width="1.3" stroke-linecap="round" stroke-linejoin="miter" stroke-miterlimit="10" d="M 0,0 M 4,0 L 4.1,0" transform="matrix(0.9999654332886064, 0.008314579239488095, -0.008314579239488095, 0.9999654332886064, 65.80318183861924, 14.559258833755175)"/><path stroke="#000000" fill="none" stroke-width="1.3" stroke-linecap="round" stroke-linejoin="miter" stroke-miterlimit="10" d="M 0,0 M 4,0 L 4.1,0" transform="matrix(0.9999654332886064, 0.008314579239487658, -0.008314579239487658, 0.9999654332886064, 69.90304011520388, 14.59334859644808)"/><path stroke="#000000" fill="none" stroke-width="1.3" stroke-linecap="round" stroke-linejoin="miter" stroke-miterlimit="10" d="M 0,0 M 4,0 L 4.1,0" transform="matrix(0.9999654332886064, 0.00831457923948722, -0.00831457923948722, 0.9999654332886064, 74.00289839178852, 14.627438359140983)"/></g></g></g><g transform="matrix(1, 0, 0, 1, 255.8667231345316, 6)"/></g><clipPath id="mainClip6337"><rect x="0" y="0" width="937px" height="430px"/></clipPath></svg>