<svg width="937px" height="430px" viewBox="0 0 937 430" xmlns="http://www.w3.org/2000/svg" xmlns:xlink="http://www.w3.org/1999/xlink" style="display: block; letter-spacing: normal; word-spacing: normal; width: 937px; height: 430px;"><g clip-path="url(#mainClip14938)"><g class="gojs-diagram" transform="matrix(0.9379678757556129, 0, 0, 0.9379678757556129, 268.78634784564923, 22.689839378778082)"><g transform="matrix(1, 0, 0, 1, 63.2109375, 20.5)" data-class-name="Link" data-key="-4" data-from-key="-13" data-to-key="322"><path stroke="#424242" fill="none" stroke-width="2" stroke-linecap="butt" stroke-linejoin="miter" stroke-miterlimit="10" d="M 161.49267578125,0 L 161.49267578125,64.37988776768941 Q 161.49267578125,69.37988776768941 156.49267578125,69.37988776768941 L 5,69.37988776768941 Q 0,69.37988776768941 0,74.37988776768941 L 0,128.75977553537882" transform="matrix(1, 0, 0, 1, 1, 1)"/></g><g transform="matrix(1, 0, 0, 1, 20, 170.75977553537882)" data-class-name="Link" data-key="-5" data-from-key="-14" data-to-key="2"><path stroke="#424242" fill="none" stroke-width="2" stroke-linecap="butt" stroke-linejoin="miter" stroke-miterlimit="10" d="M 93.7974853515625,0 L 93.7974853515625,73.38645762809662 Q 93.7974853515625,78.38645762809662 88.7974853515625,78.38645762809662 L 5,78.38645762809662 Q 0,78.38645762809662 0,83.38645762809662 L 0,146.77291525619324" transform="matrix(1, 0, 0, 1, 1, 1)"/></g><g transform="matrix(1, 0, 0, 1, 113.7974853515625, 170.75977553537882)" data-class-name="Link" data-key="-6" data-from-key="-14" data-to-key="324"><path stroke="#424242" fill="none" stroke-width="2" stroke-linecap="butt" stroke-linejoin="miter" stroke-miterlimit="10" d="M 0,0 L 0,72.85339033131183 Q 0,77.85339033131183 5,77.85339033131183 L 66.08849347612698,77.85339033131183 Q 71.08849347612698,77.85339033131183 71.08849347612698,82.85339033131183 L 71.08849347612698,145.70678066262366" transform="matrix(1, 0, 0, 1, 1, 1)"/></g><g transform="matrix(1, 0, 0, 1, 224.70361328125, 20.5)" data-class-name="Link" data-key="-7" data-from-key="-13" data-to-key="325"><path stroke="#424242" fill="none" stroke-width="2" stroke-linecap="butt" stroke-linejoin="miter" stroke-miterlimit="10" d="M 0,0 L 0,64.37988776768941 Q 0,69.37988776768941 5,69.37988776768941 L 150.2180200886183,69.37988776768941 Q 155.2180200886183,69.37988776768941 155.2180200886183,74.37988776768941 L 155.2180200886183,128.75977553537882" transform="matrix(1, 0, 0, 1, 1, 1)"/></g><g transform="matrix(1, 0, 0, 1, 320, 170.75977553537882)" data-class-name="Link" data-key="-8" data-from-key="-15" data-to-key="327"><path stroke="#424242" fill="none" stroke-width="2" stroke-linecap="butt" stroke-linejoin="miter" stroke-miterlimit="10" d="M 0,0 L 0,69.32431358275548 L 0.21665179553724556,69.32431358275548 L 0.21665179553724556,128.64862716551096" transform="matrix(1, 0, 0, 1, 1, 1)"/></g><g transform="matrix(1, 0, 0, 1, 150.3564453125, 0)" data-class-name="Node" data-key="320"><g transform="matrix(1, 0, 0, 1, 11.525390625, 0)"><path stroke="#919191" fill="white" stroke-width="2" stroke-linecap="butt" stroke-linejoin="miter" stroke-miterlimit="10" d="M 0,0 L 40,0 L 40,40 L 0,40 z" transform="matrix(1, 0, 0, 1, 1, 1)" data-port-id=""/><g transform="matrix(1, 0, 0, 1, 1, 1)"><g transform="matrix(1, 0, 0, 1, 0, 0)" data-item-index="0"><path stroke="none" fill="#000000" d="M 38,0 L 40,0 L 40,2 L 2,40 L 0,40 L 0,38 z M 40,38 L 40,40 L 38,40 L 0,2 L 0,0 L 2,0 z" transform="matrix(1, 0, 0, 1, 0, 0)"/></g></g><text x="8" y="13.870898437500001" style="font: 16px serif" text-anchor="middle" fill="black" transform="matrix(1, 0, 0, 1, 13, 11.752734375)">54</text></g><g transform="matrix(1, 0, 0, 1, 22.682123885263394, 42)"><g transform="matrix(1, 0, 0, 1, 0, 0)" data-item-index="0"><g transform="matrix(1, 0, 0, 1, 0, 0)" clip-path="url(#CLIP14940)"><path stroke="transparent" fill="transparent" stroke-width="1" stroke-linecap="butt" stroke-linejoin="miter" stroke-miterlimit="10" d="M 10,19.999999999999996 L 0.5,20 C 0.5,9.50658975321493 4.7532948766074625,1.0000000000000036 9.999999999999998,1 z" transform="matrix(-0.5000000000000004, -0.8660254037844384, 0.8660254037844384, -0.5000000000000004, 3.683012701892224, 17.343266739736613)"/></g></g></g><text x="32.525390625" y="10.558374023437501" style="font: 13px sans-serif" text-anchor="middle" fill="black" transform="matrix(1, 0, 0, 1, 0, 58.02627944162883)">Juan Pablo</text><text x="11.5654296875" y="10.558374023437501" style="font: 13px sans-serif" text-anchor="middle" fill="black" transform="matrix(1, 0, 0, 1, 20.9599609375, 72.10411147287883)">B18</text></g><g transform="matrix(1, 0, 0, 1, 245.4072265625, 0)" data-class-name="Node" data-key="321"><g transform="matrix(1, 0, 0, 1, 2.1181640625, 0)"><path stroke="#a1a1a1" fill="white" stroke-width="2" stroke-linecap="butt" stroke-linejoin="miter" stroke-miterlimit="10" d="M 20,0 C 31.04569499661587,0 40,8.954305003384128 40,20 C 40,31.04569499661587 31.04569499661587,40 20,40 C 8.954305003384128,40 0,31.04569499661587 0,20 C 0,8.954305003384128 8.954305003384128,0 20,0 z" transform="matrix(1, 0, 0, 1, 1, 1)" data-port-id=""/><g transform="matrix(1, 0, 0, 1, 11, 11)"><g transform="matrix(1, 0, 0, 1, 0, 0)" data-item-index="0"><path stroke="none" fill="transparent" d="M 1,1 L 20,1 L 20,20 L 1,20 z" transform="matrix(1, 0, 0, 1, 0, 0)"/></g></g><text x="8" y="13.870898437500001" style="font: 16px serif" text-anchor="middle" fill="black" transform="matrix(1, 0, 0, 1, 13, 11.752734375)">52</text></g><g transform="matrix(1, 0, 0, 1, 13.274897322763394, 42)"><g transform="matrix(1, 0, 0, 1, 0, 0)" data-item-index="0"><g transform="matrix(1, 0, 0, 1, 0, 0)" clip-path="url(#CLIP14941)"><path stroke="transparent" fill="transparent" stroke-width="1" stroke-linecap="butt" stroke-linejoin="miter" stroke-miterlimit="10" d="M 10,19.999999999999996 L 0.5,20 C 0.5,9.50658975321493 4.7532948766074625,1.0000000000000036 9.999999999999998,1 z" transform="matrix(-0.5000000000000004, -0.8660254037844384, 0.8660254037844384, -0.5000000000000004, 3.683012701892224, 17.343266739736613)"/></g></g></g><g transform="matrix(1, 0, 0, 1, 0, 0)"><text x="23.1181640625" y="10.558374023437501" style="font: 13px sans-serif" text-anchor="middle" fill="black" transform="matrix(1, 0, 0, 1, 0, 58.02627944162883)">Carmen</text><text x="23.1181640625" y="24.636206054687502" style="font: 13px sans-serif" text-anchor="middle" fill="black" transform="matrix(1, 0, 0, 1, 0, 58.02627944162883)">Lucia</text></g><text x="15.180419921875" y="10.558374023437501" style="font: 13px sans-serif" text-anchor="middle" fill="black" transform="matrix(1, 0, 0, 1, 7.937744140625, 86.18194350412884)">K703</text></g><g transform="matrix(1, 0, 0, 1, 24.826904296875, 150.25977553537882)" data-class-name="Node" data-key="322"><g transform="matrix(1, 0, 0, 1, 18.384033203125, 0)"><path stroke="#919191" fill="white" stroke-width="2" stroke-linecap="butt" stroke-linejoin="miter" stroke-miterlimit="10" d="M 0,0 L 40,0 L 40,40 L 0,40 z" transform="matrix(1, 0, 0, 1, 1, 1)" data-port-id=""/><g transform="matrix(1, 0, 0, 1, 11, 11)"><g transform="matrix(1, 0, 0, 1, 0, 0)" data-item-index="0"><path stroke="none" fill="transparent" d="M 1,1 L 20,1 L 20,20 L 1,20 z" transform="matrix(1, 0, 0, 1, 0, 0)"/></g></g><text x="8" y="13.870898437500001" style="font: 16px serif" text-anchor="middle" fill="black" transform="matrix(1, 0, 0, 1, 13, 11.752734375)">32</text></g><g transform="matrix(1, 0, 0, 1, 29.540766463388394, 42)"><g transform="matrix(1, 0, 0, 1, 0, 0)" data-item-index="0"><g transform="matrix(1, 0, 0, 1, 0, 0)" clip-path="url(#CLIP14942)"><path stroke="transparent" fill="transparent" stroke-width="1" stroke-linecap="butt" stroke-linejoin="miter" stroke-miterlimit="10" d="M 10,19.999999999999996 L 0.5,20 C 0.5,9.50658975321493 4.7532948766074625,1.0000000000000036 9.999999999999998,1 z" transform="matrix(-0.5000000000000004, -0.8660254037844384, 0.8660254037844384, -0.5000000000000004, 3.683012701892224, 17.343266739736613)"/></g></g></g><text x="39.384033203125" y="10.558374023437501" style="font: 13px sans-serif" text-anchor="middle" fill="black" transform="matrix(1, 0, 0, 1, 0, 58.02627944162883)">Pablo Ramon</text><text x="11.5654296875" y="10.558374023437501" style="font: 13px sans-serif" text-anchor="middle" fill="black" transform="matrix(1, 0, 0, 1, 27.818603515625, 72.10411147287883)">B18</text></g><g transform="matrix(1, 0, 0, 1, 0, 318.53269079157207)" data-class-name="Node" data-key="2"><g transform="matrix(1, 0, 0, 1, 21, 0)"/><g transform="matrix(1, 0, 0, 1, 0, 0)"><path stroke="#a1a1a1" fill="white" stroke-width="2" stroke-linecap="butt" stroke-linejoin="miter" stroke-miterlimit="10" d="M 40,40 L 0,40 L 20,0 z" transform="matrix(1, 0, 0, 1, 1, 1)" data-port-id=""/><g transform="matrix(1, 0, 0, 1, 21, 31.5)"/></g></g><g transform="matrix(1, 0, 0, 1, 133.594970703125, 150.25977553537882)" data-class-name="Node" data-key="323"><g transform="matrix(1, 0, 0, 1, 10.7890625, 0)"><path stroke="#a1a1a1" fill="white" stroke-width="2" stroke-linecap="butt" stroke-linejoin="miter" stroke-miterlimit="10" d="M 20,0 C 31.04569499661587,0 40,8.954305003384128 40,20 C 40,31.04569499661587 31.04569499661587,40 20,40 C 8.954305003384128,40 0,31.04569499661587 0,20 C 0,8.954305003384128 8.954305003384128,0 20,0 z" transform="matrix(1, 0, 0, 1, 1, 1)" data-port-id=""/><g transform="matrix(1, 0, 0, 1, 11, 11)"><g transform="matrix(1, 0, 0, 1, 0, 0)" data-item-index="0"><path stroke="none" fill="transparent" d="M 1,1 L 20,1 L 20,20 L 1,20 z" transform="matrix(1, 0, 0, 1, 0, 0)"/></g></g><text x="8" y="13.870898437500001" style="font: 16px serif" text-anchor="middle" fill="black" transform="matrix(1, 0, 0, 1, 13, 11.752734375)">34</text></g><g transform="matrix(1, 0, 0, 1, 21.945795760263394, 42)"><g transform="matrix(1, 0, 0, 1, 0, 0)" data-item-index="0"><g transform="matrix(1, 0, 0, 1, 0, 0)" clip-path="url(#CLIP14943)"><path stroke="transparent" fill="transparent" stroke-width="1" stroke-linecap="butt" stroke-linejoin="miter" stroke-miterlimit="10" d="M 10,19.999999999999996 L 0.5,20 C 0.5,9.50658975321493 4.7532948766074625,1.0000000000000036 9.999999999999998,1 z" transform="matrix(-0.5000000000000004, -0.8660254037844384, 0.8660254037844384, -0.5000000000000004, 3.683012701892224, 17.343266739736613)"/></g></g></g><text x="31.7890625" y="10.558374023437501" style="font: 13px sans-serif" text-anchor="middle" fill="black" transform="matrix(1, 0, 0, 1, 0, 58.02627944162883)">Maria José</text><text x="15.180419921875" y="10.558374023437501" style="font: 13px sans-serif" text-anchor="middle" fill="black" transform="matrix(1, 0, 0, 1, 16.608642578125, 72.10411147287883)">K290</text></g><g transform="matrix(1, 0, 0, 1, 158.42601789018948, 317.4665561980025)" data-class-name="Node" data-key="324"><g transform="matrix(1, 0, 0, 1, 6.4599609375, 0)"><path stroke="#919191" fill="white" stroke-width="2" stroke-linecap="butt" stroke-linejoin="miter" stroke-miterlimit="10" d="M 0,0 L 40,0 L 40,40 L 0,40 z" transform="matrix(1, 0, 0, 1, 1, 1)" data-port-id=""/><g transform="matrix(1, 0, 0, 1, 11, 11)"><g transform="matrix(1, 0, 0, 1, 0, 0)" data-item-index="0"><path stroke="none" fill="transparent" d="M 1,1 L 20,1 L 20,20 L 1,20 z" transform="matrix(1, 0, 0, 1, 0, 0)"/></g></g><text x="8" y="13.870898437500001" style="font: 16px serif" text-anchor="middle" fill="black" transform="matrix(1, 0, 0, 1, 13, 11.752734375)">12</text></g><g transform="matrix(1, 0, 0, 1, 17.616694197763394, 42)"><g transform="matrix(1, 0, 0, 1, 0, 0)" data-item-index="0"><g transform="matrix(1, 0, 0, 1, 0, 0)" clip-path="url(#CLIP14944)"><path stroke="transparent" fill="transparent" stroke-width="1" stroke-linecap="butt" stroke-linejoin="miter" stroke-miterlimit="10" d="M 10,19.999999999999996 L 0.5,20 C 0.5,9.50658975321493 4.7532948766074625,1.0000000000000036 9.999999999999998,1 z" transform="matrix(-0.5000000000000004, -0.8660254037844384, 0.8660254037844384, -0.5000000000000004, 3.683012701892224, 17.343266739736613)"/></g></g></g><text x="27.4599609375" y="10.558374023437501" style="font: 13px sans-serif" text-anchor="middle" fill="black" transform="matrix(1, 0, 0, 1, 0, 58.02627944162883)">José Luis</text><text x="11.5654296875" y="10.558374023437501" style="font: 13px sans-serif" text-anchor="middle" fill="black" transform="matrix(1, 0, 0, 1, 15.89453125, 72.10411147287883)">B18</text></g><g transform="matrix(1, 0, 0, 1, 336, 150.25977553537882)" data-class-name="Node" data-key="325"><g transform="matrix(1, 0, 0, 1, 23.921633369868303, 0)"><path stroke="#a1a1a1" fill="#BB8FCE" stroke-width="2" stroke-linecap="butt" stroke-linejoin="miter" stroke-miterlimit="10" d="M 20,0 C 31.04569499661587,0 40,8.954305003384128 40,20 C 40,31.04569499661587 31.04569499661587,40 20,40 C 8.954305003384128,40 0,31.04569499661587 0,20 C 0,8.954305003384128 8.954305003384128,0 20,0 z" transform="matrix(1, 0, 0, 1, 1, 1)" data-port-id=""/><g transform="matrix(1, 0, 0, 1, 11, 11)"><g transform="matrix(1, 0, 0, 1, 0, 0)" data-item-index="0"><path stroke="none" fill="transparent" d="M 1,1 L 20,1 L 20,20 L 1,20 z" transform="matrix(1, 0, 0, 1, 0, 0)"/></g><g transform="matrix(1, 0, 0, 1, 0, 0)" data-item-index="1"><path stroke="none" fill="transparent" d="M 1,1 L 20,1 L 20,20 L 1,20 z" transform="matrix(1, 0, 0, 1, 0, 0)"/></g></g><text x="8" y="13.870898437500001" style="font: 16px serif" text-anchor="middle" fill="black" transform="matrix(1, 0, 0, 1, 13, 11.752734375)">23</text></g><g transform="matrix(1, 0, 0, 1, 0, 42)"><g transform="matrix(1, 0, 0, 1, 70.1567332602634, 18.013139720814415)" data-item-index="0"><g transform="matrix(1, 0, 0, 1, 0, 0)" clip-path="url(#CLIP14945)"><path stroke="transparent" fill="transparent" stroke-width="1" stroke-linecap="butt" stroke-linejoin="miter" stroke-miterlimit="10" d="M 10,19.999999999999996 L 0.5,20 C 0.5,9.50658975321493 4.7532948766074625,1.0000000000000036 9.999999999999998,1 z" transform="matrix(-0.5000000000000004, -0.8660254037844384, 0.8660254037844384, -0.5000000000000004, 3.683012701892224, 17.343266739736613)"/></g></g><g transform="matrix(1, 0, 0, 1, 0, 0)"><g transform="matrix(1, 0, 0, 1, 0, 0)" clip-path="url(#CLIP14946)"><path stroke="transparent" fill="transparent" stroke-width="1" stroke-linecap="butt" stroke-linejoin="miter" stroke-miterlimit="10" d="M 10,19.999999999999996 L 0.5,20 C 0.5,9.50658975321493 4.7532948766074625,1.0000000000000036 9.999999999999998,1 z" transform="matrix(-0.5000000000000004, -0.8660254037844384, 0.8660254037844384, -0.5000000000000004, 3.683012701892224, 17.343266739736613)"/></g></g></g><text x="39.7490234375" y="10.558374023437501" style="font: 13px sans-serif" text-anchor="middle" fill="black" transform="matrix(1, 0, 0, 1, 5.172609932368303, 76.03941916244325)">Karen Juliana</text><text x="15.180419921875" y="10.558374023437501" style="font: 13px sans-serif" text-anchor="middle" fill="black" transform="matrix(1, 0, 0, 1, 29.741213447993303, 90.11725119369325)">K703</text></g><g transform="matrix(1, 0, 0, 1, 216.1567332602634, 150.25977553537882)" data-class-name="Node" data-key="326"><g transform="matrix(1, 0, 0, 1, 23.921633369868303, 0)"><path stroke="#919191" fill="#BB8FCE" stroke-width="2" stroke-linecap="butt" stroke-linejoin="miter" stroke-miterlimit="10" d="M 0,0 L 40,0 L 40,40 L 0,40 z" transform="matrix(1, 0, 0, 1, 1, 1)" data-port-id=""/><g transform="matrix(1, 0, 0, 1, 11, 11)"><g transform="matrix(1, 0, 0, 1, 0, 0)" data-item-index="0"><path stroke="none" fill="transparent" d="M 1,1 L 20,1 L 20,20 L 1,20 z" transform="matrix(1, 0, 0, 1, 0, 0)"/></g><g transform="matrix(1, 0, 0, 1, 0, 0)" data-item-index="1"><path stroke="none" fill="transparent" d="M 1,1 L 20,1 L 20,20 L 1,20 z" transform="matrix(1, 0, 0, 1, 0, 0)"/></g><g transform="matrix(1, 0, 0, 1, 0, 0)" data-item-index="2"><path stroke="none" fill="transparent" d="M 1,1 L 20,1 L 20,20 L 1,20 z" transform="matrix(1, 0, 0, 1, 0, 0)"/></g></g><text x="8" y="13.870898437500001" style="font: 16px serif" text-anchor="middle" fill="black" transform="matrix(1, 0, 0, 1, 13, 11.752734375)">24</text></g><g transform="matrix(1, 0, 0, 1, 0, 42)"><g transform="matrix(1, 0, 0, 1, 70.1567332602634, 18.013139720814415)" data-item-index="0"><g transform="matrix(1, 0, 0, 1, 0, 0)" clip-path="url(#CLIP14947)"><path stroke="transparent" fill="transparent" stroke-width="1" stroke-linecap="butt" stroke-linejoin="miter" stroke-miterlimit="10" d="M 10,19.999999999999996 L 0.5,20 C 0.5,9.50658975321493 4.7532948766074625,1.0000000000000036 9.999999999999998,1 z" transform="matrix(-0.5000000000000004, -0.8660254037844384, 0.8660254037844384, -0.5000000000000004, 3.683012701892224, 17.343266739736613)"/></g></g><g transform="matrix(1, 0, 0, 1, 0, 0)"><g transform="matrix(1, 0, 0, 1, 0, 0)" clip-path="url(#CLIP14948)"><path stroke="#000000" fill="none" stroke-width="1" stroke-linecap="butt" stroke-linejoin="miter" stroke-miterlimit="10" d="M 6.475635421725757,1.3463576577010103 C 6.69916008978096,1.3463576577010103 6.880362635583617,1.6477500854684277 6.880362635583617,2.0195364865515155 L 6.880362635583617,17.89713234381953 L 9.426906265177271,13.66014479503445 C 9.58516173231874,13.39692002665765 9.841744537175305,13.396920032478231 10,13.660144808035081 C 10.158255459936514,13.92336957878805 10.158255459748222,14.35014124701965 9.999999999579439,14.613366017386284 L 6.762182289137122,19.998796647490806 C 6.604326389557231,20.262021419457632 6.348067496459058,20.262560178727327 6.189812031475975,19.999999999999996 C 6.189570567693027,19.999599389670276 6.189329408446522,19.99919827184679 6.189088554314392,19.998796647490806 L 2.9512708434515145,14.613366016686765 C 2.7930153815208527,14.350141239642877 2.7930153864698055,13.923369561924215 2.95127085450531,13.660144795034451 C 3.1095263184563087,13.396920034938406 3.3661091152464904,13.396920035381315 3.5243645788690094,13.660144796023719 L 6.070908207867897,17.89713234381953 L 6.070908207867897,2.0195364865515155 C 6.070908207867897,1.6477500854684277 6.2521107536705545,1.3463576577010103 6.475635421725757,1.3463576577010103 z" transform="matrix(-0.5000000000000004, -0.8660254037844384, 0.8660254037844384, -0.5000000000000004, 3.683012701892224, 17.343266739736613)"/></g></g><g transform="matrix(1, 0, 0, 1, 0, 0)"><g transform="matrix(1, 0, 0, 1, 0, 0)" clip-path="url(#CLIP14949)"><path stroke="transparent" fill="transparent" stroke-width="1" stroke-linecap="butt" stroke-linejoin="miter" stroke-miterlimit="10" d="M 10,19.999999999999996 L 0.5,20 C 0.5,9.50658975321493 4.7532948766074625,1.0000000000000036 9.999999999999998,1 z" transform="matrix(-0.5000000000000004, -0.8660254037844384, 0.8660254037844384, -0.5000000000000004, 3.683012701892224, 17.343266739736613)"/></g></g></g><g transform="matrix(1, 0, 0, 1, 0, 0)"><text x="23.12451171875" y="10.558374023437501" style="font: 13px sans-serif" text-anchor="middle" fill="black" transform="matrix(1, 0, 0, 1, 21.797121651118303, 76.03941916244325)">Roberto</text><text x="23.12451171875" y="24.636206054687502" style="font: 13px sans-serif" text-anchor="middle" fill="black" transform="matrix(1, 0, 0, 1, 21.797121651118303, 76.03941916244325)">Carlos</text></g><text x="15.5390625" y="10.558374023437501" style="font: 13px sans-serif" text-anchor="middle" fill="black" transform="matrix(1, 0, 0, 1, 29.382570869868303, 104.19508322494326)">C108</text></g><g transform="matrix(1, 0, 0, 1, 276.29501842566896, 300.4084027008898)" data-class-name="Node" data-key="327"><g transform="matrix(1, 0, 0, 1, 19.171633369868303, 0)"><g transform="matrix(1, 0, 0, 1, 0, 0)" data-port-id=""><rect x="-0.75" y="-0.75" width="51.5" height="51.5" fill="#BB8FCE" transform="matrix(1, 0, 0, 1, 0.75, 0.75)"/><path stroke="#636363" fill="none" stroke-width="1.5" stroke-linecap="butt" stroke-linejoin="miter" stroke-miterlimit="10" d="M 0.15287034064413668,1.5247447288638314 L 0.15287034064413668,49.58591809524875 M 50,0 L 50,49.99753035116102 M 0.1058188332216157,1.4985294064380124 L 8.558023627539466,1.2731657177178242 M 0,49.608737650520986 L 5.669696186973448,49.608737650520986 M 49.7919492354043,50 L 43.52179731320486,49.83144235065786 M 42.696140612129724,0.4051829367680951 L 49.90741679973758,0.31514365618009477 M 24.27470160567017,5.5350757638870824 C 14.872749931143375,5.5350755888689065 7.250962051450813,14.534954801644728 7.250961903232,25.636868609617643 C 7.250961755013186,36.738782417590556 14.87274939439557,45.73866191412692 24.27470106892237,45.7386620891451 C 33.67665274344917,45.73866226416328 41.29844062314173,36.73878305138746 41.298440771360546,25.636869243414548 C 41.298440919579356,14.534955435441631 33.67665328019697,5.535075938905269 24.274701605670174,5.535075763887086" transform="matrix(1, 0, 0, 1, 0.75, 0.75)"/></g><g transform="matrix(1, 0, 0, 1, 15.75, 15.75)"><g transform="matrix(1, 0, 0, 1, 0, 0)" data-item-index="0"><path stroke="none" fill="transparent" d="M 1,1 L 20,1 L 20,20 L 1,20 z" transform="matrix(1, 0, 0, 1, 0, 0)"/></g><g transform="matrix(1, 0, 0, 1, 0, 0)" data-item-index="1"><path stroke="none" fill="transparent" d="M 1,1 L 20,1 L 20,20 L 1,20 z" transform="matrix(1, 0, 0, 1, 0, 0)"/></g></g><text x="4" y="13.870898437500001" style="font: 16px serif" text-anchor="middle" fill="black" transform="matrix(1, 0, 0, 1, 21.75, 16.502734375)">2</text></g><g transform="matrix(1, 0, 0, 1, 0, 51.5)"><g transform="matrix(1, 0, 0, 1, 70.1567332602634, 18.013139720814415)" data-item-index="0"><g transform="matrix(1, 0, 0, 1, 0, 0)" clip-path="url(#CLIP14950)"><path stroke="transparent" fill="transparent" stroke-width="1" stroke-linecap="butt" stroke-linejoin="miter" stroke-miterlimit="10" d="M 10,19.999999999999996 L 0.5,20 C 0.5,9.50658975321493 4.7532948766074625,1.0000000000000036 9.999999999999998,1 z" transform="matrix(-0.5000000000000004, -0.8660254037844384, 0.8660254037844384, -0.5000000000000004, 3.683012701892224, 17.343266739736613)"/></g></g><g transform="matrix(1, 0, 0, 1, 0, 0)"><g transform="matrix(1, 0, 0, 1, 0, 0)" clip-path="url(#CLIP14951)"><path stroke="transparent" fill="transparent" stroke-width="1" stroke-linecap="butt" stroke-linejoin="miter" stroke-miterlimit="10" d="M 10,19.999999999999996 L 0.5,20 C 0.5,9.50658975321493 4.7532948766074625,1.0000000000000036 9.999999999999998,1 z" transform="matrix(-0.5000000000000004, -0.8660254037844384, 0.8660254037844384, -0.5000000000000004, 3.683012701892224, 17.343266739736613)"/></g></g></g><g transform="matrix(1, 0, 0, 1, 0, 0)"><text x="23.1181640625" y="10.558374023437501" style="font: 13px sans-serif" text-anchor="middle" fill="black" transform="matrix(1, 0, 0, 1, 21.803469307368303, 85.53941916244325)">Lucia</text><text x="23.1181640625" y="24.636206054687502" style="font: 13px sans-serif" text-anchor="middle" fill="black" transform="matrix(1, 0, 0, 1, 21.803469307368303, 85.53941916244325)">Marcela</text></g><text x="15.5390625" y="10.558374023437501" style="font: 13px sans-serif" text-anchor="middle" fill="black" transform="matrix(1, 0, 0, 1, 29.382570869868303, 113.69508322494326)">D733<rect x="330.5" y="318.53269079157207" width="1" height="1" fill="rgb(0,0,0)" fill-opacity="0.3" transform="matrix(1, 0, 0, 1, 29.382570869868303, 113.69508322494326)"/><rect x="360.5" y="318.53269079157207" width="1" height="1" fill="rgb(0,0,0)" fill-opacity="0.3" transform="matrix(1, 0, 0, 1, 29.382570869868303, 113.69508322494326)"/><rect x="390.5" y="318.53269079157207" width="1" height="1" fill="rgb(0,0,0)" fill-opacity="0.3" transform="matrix(1, 0, 0, 1, 29.382570869868303, 113.69508322494326)"/><rect x="225.20361328125" y="20.5" width="1" height="1" fill="rgb(0,0,0)" fill-opacity="0.3" transform="matrix(1, 0, 0, 1, 29.382570869868303, 113.69508322494326)"/><rect x="114.2974853515625" y="170.75977553537882" width="1" height="1" fill="rgb(0,0,0)" fill-opacity="0.3" transform="matrix(1, 0, 0, 1, 29.382570869868303, 113.69508322494326)"/><rect x="320.5" y="170.75977553537882" width="1" height="1" fill="rgb(0,0,0)" fill-opacity="0.3" transform="matrix(1, 0, 0, 1, 29.382570869868303, 113.69508322494326)"/></text></g><g transform="matrix(1, 0, 0, 1, 202.6318359375, 6)" data-class-name="Link" data-key="-1" data-from-key="320" data-to-key="321"><g transform="matrix(1, 0, 0, 1, 8.61181640625, 0)"><text x="0" y="10.558374023437501" style="font: 13px sans-serif" text-anchor="start" fill="black" transform="matrix(1, 0, 0, 1, 0, 0)">2000</text></g><path stroke="#000000" fill="none" stroke-width="2.5" stroke-linecap="butt" stroke-linejoin="miter" stroke-miterlimit="10" d="M 0,0 L 43.6435546875,0" transform="matrix(1, 0, 0, 1, 1.25, 15)"/></g><g transform="matrix(1, 0, 0, 1, 83.9609375, 156.25977553537882)" data-class-name="Link" data-key="-2" data-from-key="323" data-to-key="322"><path stroke="#000000" fill="none" stroke-width="2.5" stroke-linecap="butt" stroke-linejoin="miter" stroke-miterlimit="10" d="M 59.173095703125,0 L 0,0" transform="matrix(1, 0, 0, 1, 1.25, 15)"/><path stroke="black" fill="black" stroke-width="2" stroke-linecap="butt" stroke-linejoin="miter" stroke-miterlimit="10" d="M 0,10 L 13,0 M 9,10 L 22,0" transform="matrix(1, 0, 0, 1, 8.001928710937506, 10)"/><g transform="matrix(1, 0, 0, 1, 16.3765869140625, 0)"><text x="0" y="10.558374023437501" style="font: 13px sans-serif" text-anchor="start" fill="black" transform="matrix(1, 0, 0, 1, 0, 0)">2014</text></g></g><g transform="matrix(1, 0, 0, 1, 280.5783666301317, 156.25977553537882)" data-class-name="Link" data-key="-3" data-from-key="326" data-to-key="325"><g transform="matrix(1, 0, 0, 1, 25.96167243236829, 0)"><text x="0" y="10.558374023437501" style="font: 13px sans-serif" text-anchor="start" fill="black" transform="matrix(1, 0, 0, 1, 0, 0)">2020</text></g><g transform="matrix(1, 0, 0, 1, 0, 0)"><path stroke="transparent" fill="none" stroke-width="3" stroke-linecap="butt" stroke-linejoin="miter" stroke-miterlimit="10" d="M 0,0 L 77.84326673973658,0" transform="matrix(1, 0, 0, 1, 1.5, 15)"/><path stroke="#000000" fill="none" stroke-width="1.3" stroke-linecap="round" stroke-linejoin="miter" stroke-miterlimit="10" d="M 0,0 M 4,0 L 4.1,0" transform="matrix(1, 0, 0, 1, 0.20000000000000018, 14.35)"/><path stroke="#000000" fill="none" stroke-width="1.3" stroke-linecap="round" stroke-linejoin="miter" stroke-miterlimit="10" d="M 0,0 M 4,0 L 4.1,0" transform="matrix(1, 0, 0, 1, 4.300000000000001, 14.35)"/><path stroke="#000000" fill="none" stroke-width="1.3" stroke-linecap="round" stroke-linejoin="miter" stroke-miterlimit="10" d="M 0,0 M 4,0 L 4.1,0" transform="matrix(1, 0, 0, 1, 8.4, 14.35)"/><path stroke="#000000" fill="none" stroke-width="1.3" stroke-linecap="round" stroke-linejoin="miter" stroke-miterlimit="10" d="M 0,0 M 4,0 L 4.1,0" transform="matrix(1, 0, 0, 1, 12.5, 14.35)"/><path stroke="#000000" fill="none" stroke-width="1.3" stroke-linecap="round" stroke-linejoin="miter" stroke-miterlimit="10" d="M 0,0 M 4,0 L 4.1,0" transform="matrix(1, 0, 0, 1, 16.599999999999998, 14.35)"/><path stroke="#000000" fill="none" stroke-width="1.3" stroke-linecap="round" stroke-linejoin="miter" stroke-miterlimit="10" d="M 0,0 M 4,0 L 4.1,0" transform="matrix(1, 0, 0, 1, 20.7, 14.35)"/><path stroke="#000000" fill="none" stroke-width="1.3" stroke-linecap="round" stroke-linejoin="miter" stroke-miterlimit="10" d="M 0,0 M 4,0 L 4.1,0" transform="matrix(1, 0, 0, 1, 24.8, 14.35)"/><path stroke="#000000" fill="none" stroke-width="1.3" stroke-linecap="round" stroke-linejoin="miter" stroke-miterlimit="10" d="M 0,0 M 4,0 L 4.1,0" transform="matrix(1, 0, 0, 1, 28.900000000000002, 14.35)"/><path stroke="#000000" fill="none" stroke-width="1.3" stroke-linecap="round" stroke-linejoin="miter" stroke-miterlimit="10" d="M 0,0 M 4,0 L 4.1,0" transform="matrix(1, 0, 0, 1, 33, 14.35)"/><path stroke="#000000" fill="none" stroke-width="1.3" stroke-linecap="round" stroke-linejoin="miter" stroke-miterlimit="10" d="M 0,0 M 4,0 L 4.1,0" transform="matrix(1, 0, 0, 1, 37.1, 14.35)"/><path stroke="#000000" fill="none" stroke-width="1.3" stroke-linecap="round" stroke-linejoin="miter" stroke-miterlimit="10" d="M 0,0 M 4,0 L 4.1,0" transform="matrix(1, 0, 0, 1, 41.2, 14.35)"/><path stroke="#000000" fill="none" stroke-width="1.3" stroke-linecap="round" stroke-linejoin="miter" stroke-miterlimit="10" d="M 0,0 M 4,0 L 4.1,0" transform="matrix(1, 0, 0, 1, 45.300000000000004, 14.35)"/><path stroke="#000000" fill="none" stroke-width="1.3" stroke-linecap="round" stroke-linejoin="miter" stroke-miterlimit="10" d="M 0,0 M 4,0 L 4.1,0" transform="matrix(1, 0, 0, 1, 49.400000000000006, 14.35)"/><path stroke="#000000" fill="none" stroke-width="1.3" stroke-linecap="round" stroke-linejoin="miter" stroke-miterlimit="10" d="M 0,0 M 4,0 L 4.1,0" transform="matrix(1, 0, 0, 1, 53.50000000000001, 14.35)"/><path stroke="#000000" fill="none" stroke-width="1.3" stroke-linecap="round" stroke-linejoin="miter" stroke-miterlimit="10" d="M 0,0 M 4,0 L 4.1,0" transform="matrix(1, 0, 0, 1, 57.60000000000001, 14.35)"/><path stroke="#000000" fill="none" stroke-width="1.3" stroke-linecap="round" stroke-linejoin="miter" stroke-miterlimit="10" d="M 0,0 M 4,0 L 4.1,0" transform="matrix(1, 0, 0, 1, 61.7, 14.35)"/><path stroke="#000000" fill="none" stroke-width="1.3" stroke-linecap="round" stroke-linejoin="miter" stroke-miterlimit="10" d="M 0,0 M 4,0 L 4.1,0" transform="matrix(1, 0, 0, 1, 65.8, 14.35)"/><path stroke="#000000" fill="none" stroke-width="1.3" stroke-linecap="round" stroke-linejoin="miter" stroke-miterlimit="10" d="M 0,0 M 4,0 L 4.1,0" transform="matrix(1, 0, 0, 1, 69.89999999999999, 14.35)"/></g></g></g><g transform="matrix(0.9379678757556129, 0, 0, 0.9379678757556129, 268.78634784564923, 22.689839378778082)"/></g><clipPath id="mainClip14938"><rect x="0" y="0" width="937px" height="430px"/></clipPath><clipPath id="CLIP14940"><rect x="0" y="0" width="19.686533479473212" height="16.026279441628834"/></clipPath><clipPath id="CLIP14941"><rect x="0" y="0" width="19.686533479473212" height="16.026279441628834"/></clipPath><clipPath id="CLIP14942"><rect x="0" y="0" width="19.686533479473212" height="16.026279441628834"/></clipPath><clipPath id="CLIP14943"><rect x="0" y="0" width="19.686533479473212" height="16.026279441628834"/></clipPath><clipPath id="CLIP14944"><rect x="0" y="0" width="19.686533479473212" height="16.026279441628834"/></clipPath><clipPath id="CLIP14945"><rect x="0" y="0" width="19.686533479473212" height="16.026279441628834"/></clipPath><clipPath id="CLIP14946"><rect x="0" y="0" width="19.686533479473212" height="16.026279441628834"/></clipPath><clipPath id="CLIP14947"><rect x="0" y="0" width="19.686533479473212" height="16.026279441628834"/></clipPath><clipPath id="CLIP14948"><rect x="0" y="0" width="19.686533479473212" height="16.026279441628834"/></clipPath><clipPath id="CLIP14949"><rect x="0" y="0" width="19.686533479473212" height="16.026279441628834"/></clipPath><clipPath id="CLIP14950"><rect x="0" y="0" width="19.686533479473212" height="16.026279441628834"/></clipPath><clipPath id="CLIP14951"><rect x="0" y="0" width="19.686533479473212" height="16.026279441628834"/></clipPath></svg>