<svg width="937px" height="430px" viewBox="0 0 937 430" xmlns="http://www.w3.org/2000/svg" xmlns:xlink="http://www.w3.org/1999/xlink" style="display: block; letter-spacing: normal; word-spacing: normal; width: 937px; height: 430px;"><g clip-path="url(#mainClip28805)"><g class="gojs-diagram" transform="matrix(0.8424675870461819, 0, 0, 0.8424675870461819, 257.61779351703757, 5.212337935230909)"><g transform="matrix(1, 0, 0, 1, 63.2109375, 74.19489178050682)" data-class-name="Link" data-key="-4" data-from-key="-13" data-to-key="322"><path stroke="#424242" fill="none" stroke-width="2" stroke-linecap="butt" stroke-linejoin="miter" stroke-miterlimit="10" d="M 161.2643372888021,0 L 161.2643372888021,83.21420579551278 Q 161.2643372888021,88.21420579551278 156.2643372888021,88.21420579551278 L 5,88.21420579551278 Q 0,88.21420579551278 0,93.21420579551278 L 0,166.42841159102557" transform="matrix(1, 0, 0, 1, 1, 1)"/></g><g transform="matrix(1, 0, 0, 1, 20, 261.5584143184843)" data-class-name="Link" data-key="-5" data-from-key="-14" data-to-key="8"><path stroke="#424242" fill="none" stroke-width="2" stroke-linecap="butt" stroke-linejoin="miter" stroke-miterlimit="10" d="M 93.79813993299486,0 L 93.79813993299486,70.21413891901511 Q 93.79813993299486,75.21413891901511 88.79813993299486,75.21413891901511 L 5,75.21413891901511 Q 0,75.21413891901511 0,80.21413891901511 L 0,140.42827783803023" transform="matrix(1, 0, 0, 1, 1, 1)"/></g><g transform="matrix(1, 0, 0, 1, 113.79813993299486, 261.5584143184843)" data-class-name="Link" data-key="-6" data-from-key="-14" data-to-key="324"><path stroke="#424242" fill="none" stroke-width="2" stroke-linecap="butt" stroke-linejoin="miter" stroke-miterlimit="10" d="M 0,0 L 0,69.17521791949679 Q 0,74.17521791949679 5,74.17521791949679 L 42.654460648420965,74.17521791949679 Q 47.654460648420965,74.17521791949679 47.654460648420965,79.17521791949679 L 47.654460648420965,138.35043583899358" transform="matrix(1, 0, 0, 1, 1, 1)"/></g><g transform="matrix(1, 0, 0, 1, 224.4752747888021, 74.19489178050682)" data-class-name="Link" data-key="-7" data-from-key="-13" data-to-key="325"><path stroke="#424242" fill="none" stroke-width="2" stroke-linecap="butt" stroke-linejoin="miter" stroke-miterlimit="10" d="M 0,0 L 0,84.25207750765307 Q 0,89.25207750765307 5,89.25207750765307 L 172.59189280832658,89.25207750765307 Q 177.59189280832658,89.25207750765307 177.59189280832658,94.25207750765307 L 177.59189280832658,168.5041550153061" transform="matrix(1, 0, 0, 1, 1, 1)"/></g><g transform="matrix(1, 0, 0, 1, 336.7975201811606, 265.0463568851438)" data-class-name="Link" data-key="-8" data-from-key="-15" data-to-key="327"><path stroke="#424242" fill="none" stroke-width="2" stroke-linecap="butt" stroke-linejoin="miter" stroke-miterlimit="10" d="M 1.8624892649237381,0 L 1.8624892649237381,72.01110785848562 Q 1.8624892649237381,72.94235249094748 0.9312446324618691,72.94235249094748 L 0.9312446324618691,72.94235249094748 Q 0,72.94235249094748 0,73.87359712340935 L 0,135.88470498189503" transform="matrix(1, 0, 0, 1, 1, 1)"/></g><g transform="matrix(1, 0, 0, 1, 149.8979608146422, 0)" data-class-name="Node" data-key="320"><g transform="matrix(1, 0, 0, 1, 7.8139455602475785, 0)"><g transform="matrix(1, 0, 0, 1, 0, 0)" data-item-index="0"><path stroke="transparent" fill="transparent" stroke-width="1" stroke-linecap="butt" stroke-linejoin="miter" stroke-miterlimit="10" d="M 30,39.99999999999999 L 1.5,40 C 1.499999999999993,19.01317950642985 14.25988462982238,2 29.999999999999996,2 z" transform="matrix(0.9063077870366497, -0.4226182617407, 0.4226182617407, 0.9063077870366497, 2.6644630243886738, 15.343010876609675)"/></g></g><g transform="matrix(1, 0, 0, 1, 11.525390625, 54.259785382464344)"><path stroke="#919191" fill="white" stroke-width="2" stroke-linecap="butt" stroke-linejoin="miter" stroke-miterlimit="10" d="M 0,0 L 40,0 L 40,40 L 0,40 z" transform="matrix(1, 0, 0, 1, 1, 1)" data-port-id=""/><g transform="matrix(1, 0, 0, 1, 1, 1)"><g transform="matrix(1, 0, 0, 1, 0, 0)" data-item-index="0"><path stroke="none" fill="#000000" d="M 38,0 L 40,0 L 40,2 L 2,40 L 0,40 L 0,38 z M 40,38 L 40,40 L 38,40 L 0,2 L 0,0 L 2,0 z" transform="matrix(1, 0, 0, 1, 0, 0)"/></g></g><text x="8" y="13.870898437500001" style="font: 16px serif" text-anchor="middle" fill="black" transform="matrix(1, 0, 0, 1, 13, 11.752734375)">54</text></g><text x="32.525390625" y="10.558374023437501" style="font: 13px sans-serif" text-anchor="middle" fill="black" transform="matrix(1, 0, 0, 1, 0, 96.25978538246434)">Juan Pablo</text><text x="11.5654296875" y="10.558374023437501" style="font: 13px sans-serif" text-anchor="middle" fill="black" transform="matrix(1, 0, 0, 1, 20.9599609375, 110.33761741371434)">B18</text></g><g transform="matrix(1, 0, 0, 1, 244.9487420646422, 0)" data-class-name="Node" data-key="321"><g transform="matrix(1, 0, 0, 1, 0, 0)"><g transform="matrix(1, 0, 0, 1, 0, 0)" data-item-index="0"><path stroke="transparent" fill="transparent" stroke-width="1" stroke-linecap="butt" stroke-linejoin="miter" stroke-miterlimit="10" d="M 30,39.99999999999999 L 1.5,40 C 1.499999999999993,19.01317950642985 14.25988462982238,2 29.999999999999996,2 z" transform="matrix(0.9396926207859084, 0.3420201433256687, -0.3420201433256687, 0.9396926207859084, 16.32166211508254, 2.6408563820557873)"/></g></g><g transform="matrix(1, 0, 0, 1, 2.576648560357789, 53.13002189531798)"><path stroke="#a1a1a1" fill="white" stroke-width="2" stroke-linecap="butt" stroke-linejoin="miter" stroke-miterlimit="10" d="M 20,0 C 31.04569499661587,0 40,8.954305003384128 40,20 C 40,31.04569499661587 31.04569499661587,40 20,40 C 8.954305003384128,40 0,31.04569499661587 0,20 C 0,8.954305003384128 8.954305003384128,0 20,0 z" transform="matrix(1, 0, 0, 1, 1, 1)" data-port-id=""/><g transform="matrix(1, 0, 0, 1, 11, 11)"><g transform="matrix(1, 0, 0, 1, 0, 0)" data-item-index="0"><path stroke="none" fill="transparent" d="M 1,1 L 20,1 L 20,20 L 1,20 z" transform="matrix(1, 0, 0, 1, 0, 0)"/></g></g><text x="8" y="13.870898437500001" style="font: 16px serif" text-anchor="middle" fill="black" transform="matrix(1, 0, 0, 1, 13, 11.752734375)">52</text></g><g transform="matrix(1, 0, 0, 1, 0, 0)"><text x="23.1181640625" y="10.558374023437501" style="font: 13px sans-serif" text-anchor="middle" fill="black" transform="matrix(1, 0, 0, 1, 0.4584844978577891, 95.13002189531798)">Carmen</text><text x="23.1181640625" y="24.636206054687502" style="font: 13px sans-serif" text-anchor="middle" fill="black" transform="matrix(1, 0, 0, 1, 0.4584844978577891, 95.13002189531798)">Lucia</text></g><text x="15.180419921875" y="10.558374023437501" style="font: 13px sans-serif" text-anchor="middle" fill="black" transform="matrix(1, 0, 0, 1, 8.396228638482789, 123.28568595781798)">K703</text></g><g transform="matrix(1, 0, 0, 1, 24.826904296875, 187.36351798906804)" data-class-name="Node" data-key="322"><g transform="matrix(1, 0, 0, 1, 14.672588138372578, 0)"><g transform="matrix(1, 0, 0, 1, 0, 0)" data-item-index="0"><path stroke="transparent" fill="transparent" stroke-width="1" stroke-linecap="butt" stroke-linejoin="miter" stroke-miterlimit="10" d="M 30,39.99999999999999 L 1.5,40 C 1.499999999999993,19.01317950642985 14.25988462982238,2 29.999999999999996,2 z" transform="matrix(0.9063077870366497, -0.4226182617407, 0.4226182617407, 0.9063077870366497, 2.6644630243886738, 15.343010876609675)"/></g></g><g transform="matrix(1, 0, 0, 1, 18.384033203125, 54.259785382464344)"><path stroke="#919191" fill="white" stroke-width="2" stroke-linecap="butt" stroke-linejoin="miter" stroke-miterlimit="10" d="M 0,0 L 40,0 L 40,40 L 0,40 z" transform="matrix(1, 0, 0, 1, 1, 1)" data-port-id=""/><g transform="matrix(1, 0, 0, 1, 11, 11)"><g transform="matrix(1, 0, 0, 1, 0, 0)" data-item-index="0"><path stroke="none" fill="transparent" d="M 1,1 L 20,1 L 20,20 L 1,20 z" transform="matrix(1, 0, 0, 1, 0, 0)"/></g></g><text x="8" y="13.870898437500001" style="font: 16px serif" text-anchor="middle" fill="black" transform="matrix(1, 0, 0, 1, 13, 11.752734375)">32</text></g><text x="39.384033203125" y="10.558374023437501" style="font: 13px sans-serif" text-anchor="middle" fill="black" transform="matrix(1, 0, 0, 1, 0, 96.25978538246434)">Pablo Ramon</text><text x="11.5654296875" y="10.558374023437501" style="font: 13px sans-serif" text-anchor="middle" fill="black" transform="matrix(1, 0, 0, 1, 27.818603515625, 110.33761741371434)">B18</text></g><g transform="matrix(1, 0, 0, 1, 0, 402.98669215651455)" data-class-name="Node" data-key="8"><g transform="matrix(1, 0, 0, 1, 21, 0)"/><g transform="matrix(1, 0, 0, 1, 0, 0)"><path stroke="#a1a1a1" fill="white" stroke-width="2" stroke-linecap="butt" stroke-linejoin="miter" stroke-miterlimit="10" d="M 40,40 L 0,40 L 20,0 z" transform="matrix(1, 0, 0, 1, 1, 1)" data-port-id=""/><g transform="matrix(1, 0, 0, 1, 21, 31.5)"/></g></g><g transform="matrix(1, 0, 0, 1, 133.594970703125, 187.36351798906804)" data-class-name="Node" data-key="323"><g transform="matrix(1, 0, 0, 1, 8.212413939642211, 0)"><g transform="matrix(1, 0, 0, 1, 0, 0)" data-item-index="0"><path stroke="transparent" fill="transparent" stroke-width="1" stroke-linecap="butt" stroke-linejoin="miter" stroke-miterlimit="10" d="M 30,39.99999999999999 L 1.5,40 C 1.499999999999993,19.01317950642985 14.25988462982238,2 29.999999999999996,2 z" transform="matrix(0.9396926207859084, 0.3420201433256687, -0.3420201433256687, 0.9396926207859084, 16.32166211508254, 2.6408563820557873)"/></g></g><g transform="matrix(1, 0, 0, 1, 10.7890625, 53.13002189531798)"><path stroke="#a1a1a1" fill="white" stroke-width="2" stroke-linecap="butt" stroke-linejoin="miter" stroke-miterlimit="10" d="M 20,0 C 31.04569499661587,0 40,8.954305003384128 40,20 C 40,31.04569499661587 31.04569499661587,40 20,40 C 8.954305003384128,40 0,31.04569499661587 0,20 C 0,8.954305003384128 8.954305003384128,0 20,0 z" transform="matrix(1, 0, 0, 1, 1, 1)" data-port-id=""/><g transform="matrix(1, 0, 0, 1, 11, 11)"><g transform="matrix(1, 0, 0, 1, 0, 0)" data-item-index="0"><path stroke="none" fill="transparent" d="M 1,1 L 20,1 L 20,20 L 1,20 z" transform="matrix(1, 0, 0, 1, 0, 0)"/></g></g><text x="8" y="13.870898437500001" style="font: 16px serif" text-anchor="middle" fill="black" transform="matrix(1, 0, 0, 1, 13, 11.752734375)">34</text></g><text x="31.7890625" y="10.558374023437501" style="font: 13px sans-serif" text-anchor="middle" fill="black" transform="matrix(1, 0, 0, 1, 0, 95.13002189531798)">Maria José</text><text x="15.180419921875" y="10.558374023437501" style="font: 13px sans-serif" text-anchor="middle" fill="black" transform="matrix(1, 0, 0, 1, 16.608642578125, 109.20785392656798)">K290</text></g><g transform="matrix(1, 0, 0, 1, 134.99263964391582, 346.6490647750136)" data-class-name="Node" data-key="324"><g transform="matrix(1, 0, 0, 1, 2.7485158727475785, 0)"><g transform="matrix(1, 0, 0, 1, 0, 0)" data-item-index="0"><path stroke="transparent" fill="transparent" stroke-width="1" stroke-linecap="butt" stroke-linejoin="miter" stroke-miterlimit="10" d="M 30,39.99999999999999 L 1.5,40 C 1.499999999999993,19.01317950642985 14.25988462982238,2 29.999999999999996,2 z" transform="matrix(0.9063077870366497, -0.4226182617407, 0.4226182617407, 0.9063077870366497, 2.6644630243886738, 15.343010876609675)"/></g></g><g transform="matrix(1, 0, 0, 1, 6.4599609375, 54.259785382464344)"><path stroke="#919191" fill="white" stroke-width="2" stroke-linecap="butt" stroke-linejoin="miter" stroke-miterlimit="10" d="M 0,0 L 40,0 L 40,40 L 0,40 z" transform="matrix(1, 0, 0, 1, 1, 1)" data-port-id=""/><g transform="matrix(1, 0, 0, 1, 11, 11)"><g transform="matrix(1, 0, 0, 1, 0, 0)" data-item-index="0"><path stroke="none" fill="transparent" d="M 1,1 L 20,1 L 20,20 L 1,20 z" transform="matrix(1, 0, 0, 1, 0, 0)"/></g></g><text x="8" y="13.870898437500001" style="font: 16px serif" text-anchor="middle" fill="black" transform="matrix(1, 0, 0, 1, 13, 11.752734375)">12</text></g><text x="27.4599609375" y="10.558374023437501" style="font: 13px sans-serif" text-anchor="middle" fill="black" transform="matrix(1, 0, 0, 1, 0, 96.25978538246434)">José Luis</text><text x="11.5654296875" y="10.558374023437501" style="font: 13px sans-serif" text-anchor="middle" fill="black" transform="matrix(1, 0, 0, 1, 15.89453125, 110.33761741371434)">B18</text></g><g transform="matrix(1, 0, 0, 1, 363.3181441596287, 164.00401395283598)" data-class-name="Node" data-key="325"><g transform="matrix(1, 0, 0, 1, 2.960699157321102, 0)"><g transform="matrix(1, 0, 0, 1, 0, 0)" data-item-index="0"><path stroke="transparent" fill="transparent" stroke-width="1" stroke-linecap="butt" stroke-linejoin="miter" stroke-miterlimit="10" d="M 30,39.99999999999999 L 1.5,40 C 1.499999999999993,19.01317950642985 14.25988462982238,2 29.999999999999996,2 z" transform="matrix(0.9396926207859084, 0.3420201433256687, -0.3420201433256687, 0.9396926207859084, 16.32166211508254, 2.6408563820557873)"/></g><g transform="matrix(1, 0, 0, 1, 26.42335143964221, 26.56501094765899)"><path stroke="#000000" fill="none" stroke-width="1" stroke-linecap="butt" stroke-linejoin="miter" stroke-miterlimit="10" d="M 19.426906265177273,2.6927153154020207 C 20.097480269342878,2.692715315402021 20.641087906750847,3.295500170936856 20.641087906750847,4.039072973103031 L 20.64108790675085,35.79426468763906 L 28.28071879553182,27.3202895900689 C 28.755485194797842,26.793840050921947 29.525233609367532,26.793840058682722 30.000000000000007,27.320289607403076 C 30.47476638563,27.84673915057638 30.4747663843662,28.70028249505899 29.999999997177223,29.226732036503602 L 20.28654686741137,39.99759329498161 C 19.8129791686717,40.524042838915264 19.044202489377177,40.525120357454654 18.569436094427928,39.99999999999999 C 18.568711703079085,39.99919877934055 18.567988225339572,39.99839654369358 18.567265662943182,39.99759329498161 L 8.853812530354544,29.22673203337353 C 8.37904613972207,28.70028248465318 8.379046146720945,27.84673912921585 8.85381254598697,27.3202895900689 C 9.328578940250518,26.793840056468994 10.098327344940948,26.793840057870376 10.573093737645516,27.32028959319897 L 18.212724623603695,35.79426468763906 L 18.212724623603695,4.039072973103031 C 18.212724623603698,3.2955001709368563 18.756332261011668,2.6927153154020216 19.426906265177276,2.6927153154020207 z" transform="matrix(0.9396926207859084, 0.3420201433256687, -0.3420201433256687, 0.9396926207859084, 16.32166211508254, 2.6408563820557873)"/></g><g transform="matrix(1, 0, 0, 1, 26.42335143964221, 26.56501094765899)"><path stroke="transparent" fill="transparent" stroke-width="1" stroke-linecap="butt" stroke-linejoin="miter" stroke-miterlimit="10" d="M 30,39.99999999999999 L 1.5,40 C 1.499999999999993,19.01317950642985 14.25988462982238,2 29.999999999999996,2 z" transform="matrix(0.9396926207859084, 0.3420201433256687, -0.3420201433256687, 0.9396926207859084, 16.32166211508254, 2.6408563820557873)"/></g></g><g transform="matrix(1, 0, 0, 1, 18.7490234375, 79.69503284297697)"><path stroke="#a1a1a1" fill="#59ff04" stroke-width="2" stroke-linecap="butt" stroke-linejoin="miter" stroke-miterlimit="10" d="M 20,0 C 31.04569499661587,0 40,8.954305003384128 40,20 C 40,31.04569499661587 31.04569499661587,40 20,40 C 8.954305003384128,40 0,31.04569499661587 0,20 C 0,8.954305003384128 8.954305003384128,0 20,0 z" transform="matrix(1, 0, 0, 1, 1, 1)" data-port-id=""/><g transform="matrix(1, 0, 0, 1, 11, 11)"><g transform="matrix(1, 0, 0, 1, 0, 0)" data-item-index="0"><path stroke="none" fill="transparent" d="M 1,1 L 20,1 L 20,20 L 1,20 z" transform="matrix(1, 0, 0, 1, 0, 0)"/></g><g transform="matrix(1, 0, 0, 1, 0, 0)" data-item-index="1"><path stroke="none" fill="transparent" d="M 1,1 L 20,1 L 20,20 L 1,20 z" transform="matrix(1, 0, 0, 1, 0, 0)"/></g><g transform="matrix(1, 0, 0, 1, 0, 0)" data-item-index="2"><path stroke="none" fill="transparent" d="M 1,1 L 20,1 L 20,20 L 1,20 z" transform="matrix(1, 0, 0, 1, 0, 0)"/></g></g><text x="8" y="13.870898437500001" style="font: 16px serif" text-anchor="middle" fill="black" transform="matrix(1, 0, 0, 1, 13, 11.752734375)">23</text></g><text x="39.7490234375" y="10.558374023437501" style="font: 13px sans-serif" text-anchor="middle" fill="black" transform="matrix(1, 0, 0, 1, 0, 121.69503284297697)">Karen Juliana</text><text x="15.180419921875" y="10.558374023437501" style="font: 13px sans-serif" text-anchor="middle" fill="black" transform="matrix(1, 0, 0, 1, 24.568603515625, 135.77286487422697)">K703</text></g><g transform="matrix(1, 0, 0, 1, 219.18380896537138, 164.00401395283598)" data-class-name="Node" data-key="326"><g transform="matrix(1, 0, 0, 1, 0, 0)"><g transform="matrix(1, 0, 0, 1, 64.71144506475243, 0)" data-item-index="0"><path stroke="transparent" fill="transparent" stroke-width="1" stroke-linecap="butt" stroke-linejoin="miter" stroke-miterlimit="10" d="M 30,39.99999999999999 L 1.5,40 C 1.499999999999993,19.01317950642985 14.25988462982238,2 29.999999999999996,2 z" transform="matrix(0.9063077870366497, -0.4226182617407, 0.4226182617407, 0.9063077870366497, 2.6644630243886738, 15.343010876609675)"/></g><g transform="matrix(1, 0, 0, 1, 0, 27.129892691232172)"><path stroke="transparent" fill="transparent" stroke-width="1" stroke-linecap="butt" stroke-linejoin="miter" stroke-miterlimit="10" d="M 30,39.99999999999999 L 1.5,40 C 1.499999999999993,19.01317950642985 14.25988462982238,2 29.999999999999996,2 z" transform="matrix(0.9063077870366497, -0.4226182617407, 0.4226182617407, 0.9063077870366497, 2.6644630243886738, 15.343010876609675)"/></g></g><g transform="matrix(1, 0, 0, 1, 36.06716759712863, 81.38967807369652)"><path stroke="#919191" fill="#59ff04" stroke-width="2" stroke-linecap="butt" stroke-linejoin="miter" stroke-miterlimit="10" d="M 0,0 L 40,0 L 40,40 L 0,40 z" transform="matrix(1, 0, 0, 1, 1, 1)" data-port-id=""/><g transform="matrix(1, 0, 0, 1, 11, 11)"><g transform="matrix(1, 0, 0, 1, 0, 0)" data-item-index="0"><path stroke="none" fill="transparent" d="M 1,1 L 20,1 L 20,20 L 1,20 z" transform="matrix(1, 0, 0, 1, 0, 0)"/></g><g transform="matrix(1, 0, 0, 1, 0, 0)" data-item-index="1"><path stroke="none" fill="transparent" d="M 1,1 L 20,1 L 20,20 L 1,20 z" transform="matrix(1, 0, 0, 1, 0, 0)"/></g></g><text x="8" y="13.870898437500001" style="font: 16px serif" text-anchor="middle" fill="black" transform="matrix(1, 0, 0, 1, 13, 11.752734375)">24</text></g><g transform="matrix(1, 0, 0, 1, 0, 0)"><text x="23.12451171875" y="10.558374023437501" style="font: 13px sans-serif" text-anchor="middle" fill="black" transform="matrix(1, 0, 0, 1, 33.94265587837863, 123.38967807369652)">Roberto</text><text x="23.12451171875" y="24.636206054687502" style="font: 13px sans-serif" text-anchor="middle" fill="black" transform="matrix(1, 0, 0, 1, 33.94265587837863, 123.38967807369652)">Carlos</text></g><text x="15.5390625" y="10.558374023437501" style="font: 13px sans-serif" text-anchor="middle" fill="black" transform="matrix(1, 0, 0, 1, 41.52810509712863, 151.54534213619652)">C108</text></g><g transform="matrix(1, 0, 0, 1, 280.730352584032, 320.5413837933423)" data-class-name="Node" data-key="327"><g transform="matrix(1, 0, 0, 1, 0, 0)"><g transform="matrix(1, 0, 0, 1, 64.71144506475243, 0)" data-item-index="0"><path stroke="transparent" fill="transparent" stroke-width="1" stroke-linecap="butt" stroke-linejoin="miter" stroke-miterlimit="10" d="M 30,39.99999999999999 L 1.5,40 C 1.499999999999993,19.01317950642985 14.25988462982238,2 29.999999999999996,2 z" transform="matrix(0.9063077870366497, -0.4226182617407, 0.4226182617407, 0.9063077870366497, 2.6644630243886738, 15.343010876609675)"/></g><g transform="matrix(1, 0, 0, 1, 0, 27.129892691232172)"><path stroke="transparent" fill="transparent" stroke-width="1" stroke-linecap="butt" stroke-linejoin="miter" stroke-miterlimit="10" d="M 30,39.99999999999999 L 1.5,40 C 1.499999999999993,19.01317950642985 14.25988462982238,2 29.999999999999996,2 z" transform="matrix(0.9063077870366497, -0.4226182617407, 0.4226182617407, 0.9063077870366497, 2.6644630243886738, 15.343010876609675)"/></g></g><g transform="matrix(1, 0, 0, 1, 31.31716759712863, 81.38967807369652)"><g transform="matrix(1, 0, 0, 1, 0, 0)" data-port-id=""><rect x="-0.75" y="-0.75" width="51.5" height="51.5" fill="#59ff04" transform="matrix(1, 0, 0, 1, 0.75, 0.75)"/><path stroke="#636363" fill="none" stroke-width="1.5" stroke-linecap="butt" stroke-linejoin="miter" stroke-miterlimit="10" d="M 0.15287034064413668,1.5247447288638314 L 0.15287034064413668,49.58591809524875 M 50,0 L 50,49.99753035116102 M 0.1058188332216157,1.4985294064380124 L 8.558023627539466,1.2731657177178242 M 0,49.608737650520986 L 5.669696186973448,49.608737650520986 M 49.7919492354043,50 L 43.52179731320486,49.83144235065786 M 42.696140612129724,0.4051829367680951 L 49.90741679973758,0.31514365618009477 M 24.27470160567017,5.5350757638870824 C 14.872749931143375,5.5350755888689065 7.250962051450813,14.534954801644728 7.250961903232,25.636868609617643 C 7.250961755013186,36.738782417590556 14.87274939439557,45.73866191412692 24.27470106892237,45.7386620891451 C 33.67665274344917,45.73866226416328 41.29844062314173,36.73878305138746 41.298440771360546,25.636869243414548 C 41.298440919579356,14.534955435441631 33.67665328019697,5.535075938905269 24.274701605670174,5.535075763887086" transform="matrix(1, 0, 0, 1, 0.75, 0.75)"/></g><g transform="matrix(1, 0, 0, 1, 15.75, 15.75)"><g transform="matrix(1, 0, 0, 1, 0, 0)" data-item-index="0"><path stroke="none" fill="transparent" d="M 1,1 L 20,1 L 20,20 L 1,20 z" transform="matrix(1, 0, 0, 1, 0, 0)"/></g><g transform="matrix(1, 0, 0, 1, 0, 0)" data-item-index="1"><path stroke="none" fill="transparent" d="M 1,1 L 20,1 L 20,20 L 1,20 z" transform="matrix(1, 0, 0, 1, 0, 0)"/></g></g><text x="4" y="13.870898437500001" style="font: 16px serif" text-anchor="middle" fill="black" transform="matrix(1, 0, 0, 1, 21.75, 16.502734375)">2</text></g><g transform="matrix(1, 0, 0, 1, 0, 0)"><text x="23.1181640625" y="10.558374023437501" style="font: 13px sans-serif" text-anchor="middle" fill="black" transform="matrix(1, 0, 0, 1, 33.94900353462863, 132.88967807369653)">Lucia</text><text x="23.1181640625" y="24.636206054687502" style="font: 13px sans-serif" text-anchor="middle" fill="black" transform="matrix(1, 0, 0, 1, 33.94900353462863, 132.88967807369653)">Marcela</text></g><text x="15.5390625" y="10.558374023437501" style="font: 13px sans-serif" text-anchor="middle" fill="black" transform="matrix(1, 0, 0, 1, 41.52810509712863, 161.04534213619652)">D733<rect x="350.5" y="402.98669215651455" width="1" height="1" fill="rgb(0,0,0)" fill-opacity="0.3" transform="matrix(1, 0, 0, 1, 41.52810509712863, 161.04534213619652)"/><rect x="380.5" y="402.98669215651455" width="1" height="1" fill="rgb(0,0,0)" fill-opacity="0.3" transform="matrix(1, 0, 0, 1, 41.52810509712863, 161.04534213619652)"/><rect x="410.5" y="402.98669215651455" width="1" height="1" fill="rgb(0,0,0)" fill-opacity="0.3" transform="matrix(1, 0, 0, 1, 41.52810509712863, 161.04534213619652)"/><rect x="224.9752747888021" y="74.19489178050682" width="1" height="1" fill="rgb(0,0,0)" fill-opacity="0.3" transform="matrix(1, 0, 0, 1, 41.52810509712863, 161.04534213619652)"/><rect x="114.29813993299486" y="261.5584143184843" width="1" height="1" fill="rgb(0,0,0)" fill-opacity="0.3" transform="matrix(1, 0, 0, 1, 41.52810509712863, 161.04534213619652)"/><rect x="339.16000944608436" y="265.0463568851438" width="1" height="1" fill="rgb(0,0,0)" fill-opacity="0.3" transform="matrix(1, 0, 0, 1, 41.52810509712863, 161.04534213619652)"/></text></g><g transform="matrix(1, 0, 0, 1, 202.1733514396422, 59.69489178050682)" data-class-name="Link" data-key="-1" data-from-key="320" data-to-key="321"><g transform="matrix(1, 0, 0, 1, 8.841962411659892, 0)"><text x="0" y="10.558374023437501" style="font: 13px sans-serif" text-anchor="start" fill="black" transform="matrix(1, 0, 0, 1, 0, 0)">2000</text></g><path stroke="#000000" fill="none" stroke-width="2.5" stroke-linecap="butt" stroke-linejoin="miter" stroke-miterlimit="10" d="M 0,0.578696115839918 L 44.10384669831981,0" transform="matrix(1, 0, 0, 1, 1.25, 14.710651942080034)"/></g><g transform="matrix(1, 0, 0, 1, 83.9609375, 247.05841431848432)" data-class-name="Link" data-key="-2" data-from-key="323" data-to-key="322"><path stroke="#000000" fill="none" stroke-width="2.5" stroke-linecap="butt" stroke-linejoin="miter" stroke-miterlimit="10" d="M 59.174404865989715,0 L 0,0.6607792469588958" transform="matrix(1, 0, 0, 1, 1.25, 14.669610376520552)"/><path stroke="black" fill="black" stroke-width="2" stroke-linecap="butt" stroke-linejoin="miter" stroke-miterlimit="10" d="M 0,10 L 13,0 M 9,10 L 22,0" transform="matrix(1, 0, 0, 1, 8.002321459796917, 10.13215584939178)"/><g transform="matrix(1, 0, 0, 1, 16.377241495494857, 0)"><text x="0" y="10.558374023437501" style="font: 13px sans-serif" text-anchor="start" fill="black" transform="matrix(1, 0, 0, 1, 0, 0)">2014</text></g></g><g transform="matrix(1, 0, 0, 1, 295.7509765625, 250.54635688514378)" data-class-name="Link" data-key="-3" data-from-key="326" data-to-key="325"><g transform="matrix(1, 0, 0, 1, 29.44907194608436, 0)"><text x="0" y="10.558374023437501" style="font: 13px sans-serif" text-anchor="start" fill="black" transform="matrix(1, 0, 0, 1, 0, 0)">2020</text></g><g transform="matrix(1, 0, 0, 1, 0, 0)"><path stroke="transparent" fill="none" stroke-width="3" stroke-linecap="butt" stroke-linejoin="miter" stroke-miterlimit="10" d="M 0,1.1334241271442806 L 84.81806576716872,0" transform="matrix(1, 0, 0, 1, 1.5, 14.43328793642786)"/><path stroke="#000000" fill="none" stroke-width="1.3" stroke-linecap="round" stroke-linejoin="miter" stroke-miterlimit="10" d="M 0,0 M 4,0 L 4.1,0" transform="matrix(0.999910726958062, -0.013361815527834603, 0.013361815527834603, 0.999910726958062, 0.1914308749508038, 14.934140457923975)"/><path stroke="#000000" fill="none" stroke-width="1.3" stroke-linecap="round" stroke-linejoin="miter" stroke-miterlimit="10" d="M 0,0 M 4,0 L 4.1,0" transform="matrix(0.999910726958062, -0.013361815527835694, 0.013361815527835694, 0.999910726958062, 4.291064855740604, 14.879357033847281)"/><path stroke="#000000" fill="none" stroke-width="1.3" stroke-linecap="round" stroke-linejoin="miter" stroke-miterlimit="10" d="M 0,0 M 4,0 L 4.1,0" transform="matrix(0.999910726958062, -0.013361815527836786, 0.013361815527836786, 0.999910726958062, 8.390698836530406, 14.82457360977058)"/><path stroke="#000000" fill="none" stroke-width="1.3" stroke-linecap="round" stroke-linejoin="miter" stroke-miterlimit="10" d="M 0,0 M 4,0 L 4.1,0" transform="matrix(0.999910726958062, -0.013361815527837877, 0.013361815527837877, 0.999910726958062, 12.490332817320205, 14.769790185693875)"/><path stroke="#000000" fill="none" stroke-width="1.3" stroke-linecap="round" stroke-linejoin="miter" stroke-miterlimit="10" d="M 0,0 M 4,0 L 4.1,0" transform="matrix(0.9999107269580619, -0.013361815527838968, 0.013361815527838968, 0.9999107269580619, 16.589966798110005, 14.715006761617166)"/><path stroke="#000000" fill="none" stroke-width="1.3" stroke-linecap="round" stroke-linejoin="miter" stroke-miterlimit="10" d="M 0,0 M 4,0 L 4.1,0" transform="matrix(0.9999107269580618, -0.013361815527840059, 0.013361815527840059, 0.9999107269580618, 20.689600778899806, 14.660223337540451)"/><path stroke="#000000" fill="none" stroke-width="1.3" stroke-linecap="round" stroke-linejoin="miter" stroke-miterlimit="10" d="M 0,0 M 4,0 L 4.1,0" transform="matrix(0.9999107269580618, -0.013361815527841152, 0.013361815527841152, 0.9999107269580618, 24.789234759689602, 14.605439913463734)"/><path stroke="#000000" fill="none" stroke-width="1.3" stroke-linecap="round" stroke-linejoin="miter" stroke-miterlimit="10" d="M 0,0 M 4,0 L 4.1,0" transform="matrix(0.9999107269580618, -0.013361815527842245, 0.013361815527842245, 0.9999107269580618, 28.888868740479403, 14.550656489387013)"/><path stroke="#000000" fill="none" stroke-width="1.3" stroke-linecap="round" stroke-linejoin="miter" stroke-miterlimit="10" d="M 0,0 M 4,0 L 4.1,0" transform="matrix(0.9999107269580618, -0.013361815527843338, 0.013361815527843338, 0.9999107269580618, 32.9885027212692, 14.495873065310285)"/><path stroke="#000000" fill="none" stroke-width="1.3" stroke-linecap="round" stroke-linejoin="miter" stroke-miterlimit="10" d="M 0,0 M 4,0 L 4.1,0" transform="matrix(0.9999107269580618, -0.013361815527844429, 0.013361815527844429, 0.9999107269580618, 37.088136702059, 14.441089641233555)"/><path stroke="#000000" fill="none" stroke-width="1.3" stroke-linecap="round" stroke-linejoin="miter" stroke-miterlimit="10" d="M 0,0 M 4,0 L 4.1,0" transform="matrix(0.9999107269580618, -0.01336181552784552, 0.01336181552784552, 0.9999107269580618, 41.18777068284881, 14.38630621715682)"/><path stroke="#000000" fill="none" stroke-width="1.3" stroke-linecap="round" stroke-linejoin="miter" stroke-miterlimit="10" d="M 0,0 M 4,0 L 4.1,0" transform="matrix(0.9999107269580618, -0.013361815527846611, 0.013361815527846611, 0.9999107269580618, 45.28740466363861, 14.33152279308008)"/><path stroke="#000000" fill="none" stroke-width="1.3" stroke-linecap="round" stroke-linejoin="miter" stroke-miterlimit="10" d="M 0,0 M 4,0 L 4.1,0" transform="matrix(0.9999107269580617, -0.0133618155278477, 0.0133618155278477, 0.9999107269580617, 49.387038644428415, 14.276739369003336)"/><path stroke="#000000" fill="none" stroke-width="1.3" stroke-linecap="round" stroke-linejoin="miter" stroke-miterlimit="10" d="M 0,0 M 4,0 L 4.1,0" transform="matrix(0.9999107269580616, -0.013361815527848788, 0.013361815527848788, 0.9999107269580616, 53.48667262521822, 14.221955944926586)"/><path stroke="#000000" fill="none" stroke-width="1.3" stroke-linecap="round" stroke-linejoin="miter" stroke-miterlimit="10" d="M 0,0 M 4,0 L 4.1,0" transform="matrix(0.9999107269580616, -0.013361815527849877, 0.013361815527849877, 0.9999107269580616, 57.58630660600802, 14.167172520849832)"/><path stroke="#000000" fill="none" stroke-width="1.3" stroke-linecap="round" stroke-linejoin="miter" stroke-miterlimit="10" d="M 0,0 M 4,0 L 4.1,0" transform="matrix(0.9999107269580616, -0.013361815527850967, 0.013361815527850967, 0.9999107269580616, 61.68594058679783, 14.112389096773073)"/><path stroke="#000000" fill="none" stroke-width="1.3" stroke-linecap="round" stroke-linejoin="miter" stroke-miterlimit="10" d="M 0,0 M 4,0 L 4.1,0" transform="matrix(0.9999107269580616, -0.013361815527852056, 0.013361815527852056, 0.9999107269580616, 65.78557456758762, 14.057605672696312)"/><path stroke="#000000" fill="none" stroke-width="1.3" stroke-linecap="round" stroke-linejoin="miter" stroke-miterlimit="10" d="M 0,0 M 4,0 L 4.1,0" transform="matrix(0.9999107269580616, -0.013361815527853146, 0.013361815527853146, 0.9999107269580616, 69.88520854837742, 14.002822248619545)"/><path stroke="#000000" fill="none" stroke-width="1.3" stroke-linecap="round" stroke-linejoin="miter" stroke-miterlimit="10" d="M 0,0 M 4,0 L 4.1,0" transform="matrix(0.9999107269580616, -0.013361815527854235, 0.013361815527854235, 0.9999107269580616, 73.98484252916722, 13.948038824542774)"/><path stroke="#000000" fill="none" stroke-width="1.3" stroke-linecap="round" stroke-linejoin="miter" stroke-miterlimit="10" d="M 0,0 M 4,0 L 4.1,0" transform="matrix(0.9999107269580616, -0.013361815527855325, 0.013361815527855325, 0.9999107269580616, 78.08447650995703, 13.893255400465998)"/></g></g></g><g transform="matrix(0.8424675870461819, 0, 0, 0.8424675870461819, 257.61779351703757, 5.212337935230909)"/></g><clipPath id="mainClip28805"><rect x="0" y="0" width="937px" height="430px"/></clipPath></svg>