<svg width="937px" height="430px" viewBox="0 0 937 430" xmlns="http://www.w3.org/2000/svg" xmlns:xlink="http://www.w3.org/1999/xlink" style="display: block; letter-spacing: normal; word-spacing: normal; width: 937px; height: 430px;"><g clip-path="url(#mainClip5408)"><g class="gojs-diagram" transform="matrix(0.8862649814775414, 0, 0, 0.8862649814775414, 286.6975601783983, 5.431324907387707)"><g transform="matrix(1, 0, 0, 1, 63.2109375, 48.18126440691735)" data-class-name="Link" data-key="-4" data-from-key="-13" data-to-key="322"><path stroke="#424242" fill="none" stroke-width="2" stroke-linecap="butt" stroke-linejoin="miter" stroke-miterlimit="10" d="M 151.49267578125,0 L 151.49267578125,75.20738025033366 L 0,75.20738025033366 L 0,140.41476050066734" transform="matrix(1, 0, 0, 1, 1, 1)"/></g><g transform="matrix(1, 0, 0, 1, 20, 210.09602490758468)" data-class-name="Link" data-key="-5" data-from-key="-14" data-to-key="1"><path stroke="#424242" fill="none" stroke-width="2" stroke-linecap="butt" stroke-linejoin="miter" stroke-miterlimit="10" d="M 93.7974853515625,0 L 93.7974853515625,68.28706414860434 L 0,68.28706414860434 L 0,126.57412829720866" transform="matrix(1, 0, 0, 1, 1, 1)"/></g><g transform="matrix(1, 0, 0, 1, 113.7974853515625, 210.09602490758468)" data-class-name="Link" data-key="-6" data-from-key="-14" data-to-key="324"><path stroke="#424242" fill="none" stroke-width="2" stroke-linecap="butt" stroke-linejoin="miter" stroke-miterlimit="10" d="M 0,0 L 0,69.15189313254766 L 80.00894040456035,69.15189313254766 L 80.00894040456035,128.30378626509528" transform="matrix(1, 0, 0, 1, 1, 1)"/></g><g transform="matrix(1, 0, 0, 1, 214.70361328125, 48.18126440691735)" data-class-name="Link" data-key="-7" data-from-key="-13" data-to-key="325"><path stroke="#424242" fill="none" stroke-width="2" stroke-linecap="butt" stroke-linejoin="miter" stroke-miterlimit="10" d="M 0,0 L 0,74.79354670624998 L 159.1996478726611,74.79354670624998 L 159.1996478726611,139.58709341249994" transform="matrix(1, 0, 0, 1, 1, 1)"/></g><g transform="matrix(1, 0, 0, 1, 313.3854483605577, 208.7041967150017)" data-class-name="Link" data-key="-8" data-from-key="-15" data-to-key="327"><path stroke="#424242" fill="none" stroke-width="2" stroke-linecap="butt" stroke-linejoin="miter" stroke-miterlimit="10" d="M 0,0 L 0,68.30564297001499 L 0.4209773955649325,68.30564297001499 L 0.4209773955649325,126.61128594002994" transform="matrix(1, 0, 0, 1, 1, 1)"/></g><g transform="matrix(1, 0, 0, 1, 140.3564453125, 0)" data-class-name="Node" data-key="320"><g transform="matrix(1, 0, 0, 1, 21.10320604802108, 0)"><g transform="matrix(1, 0, 0, 1, 0, 0)" data-item-index="0"><path stroke="transparent" fill="transparent" stroke-width="1" stroke-linecap="butt" stroke-linejoin="miter" stroke-miterlimit="10" d="M 10,19.999999999999996 L 0.5,20 C 0.5,9.50658975321493 4.7532948766074625,1.0000000000000036 9.999999999999998,1 z" transform="matrix(0.9063077870366497, -0.4226182617407, 0.4226182617407, 0.9063077870366497, 2.6644630243886738, 6.8906456417956745)"/></g></g><g transform="matrix(1, 0, 0, 1, 11.525390625, 27.681264406917347)"><path stroke="#919191" fill="white" stroke-width="2" stroke-linecap="butt" stroke-linejoin="miter" stroke-miterlimit="10" d="M 0,0 L 40,0 L 40,40 L 0,40 z" transform="matrix(1, 0, 0, 1, 1, 1)" data-port-id=""/><g transform="matrix(1, 0, 0, 1, 1, 1)"><g transform="matrix(1, 0, 0, 1, 0, 0)" data-item-index="0"><path stroke="none" fill="#000000" d="M 38,0 L 40,0 L 40,2 L 2,40 L 0,40 L 0,38 z M 40,38 L 40,40 L 38,40 L 0,2 L 0,0 L 2,0 z" transform="matrix(1, 0, 0, 1, 0, 0)"/></g></g><text x="8" y="13.870898437500001" style="font: 16px serif" text-anchor="middle" fill="black" transform="matrix(1, 0, 0, 1, 13, 11.752734375)">54</text></g><text x="32.525390625" y="10.558374023437501" style="font: 13px sans-serif" text-anchor="middle" fill="black" transform="matrix(1, 0, 0, 1, 0, 69.68126440691735)">Juan Pablo</text><text x="11.5654296875" y="10.558374023437501" style="font: 13px sans-serif" text-anchor="middle" fill="black" transform="matrix(1, 0, 0, 1, 20.9599609375, 83.75909643816735)">B18</text></g><g transform="matrix(1, 0, 0, 1, 235.4072265625, 0)" data-class-name="Node" data-key="321"><g transform="matrix(1, 0, 0, 1, 11.695979485521077, 0)"><g transform="matrix(1, 0, 0, 1, 0, 0)" data-item-index="0"><path stroke="transparent" fill="transparent" stroke-width="1" stroke-linecap="butt" stroke-linejoin="miter" stroke-miterlimit="10" d="M 10,19.999999999999996 L 0.5,20 C 0.5,9.50658975321493 4.7532948766074625,1.0000000000000036 9.999999999999998,1 z" transform="matrix(0.9063077870366497, -0.4226182617407, 0.4226182617407, 0.9063077870366497, 2.6644630243886738, 6.8906456417956745)"/></g></g><g transform="matrix(1, 0, 0, 1, 2.1181640625, 27.681264406917347)"><path stroke="#a1a1a1" fill="white" stroke-width="2" stroke-linecap="butt" stroke-linejoin="miter" stroke-miterlimit="10" d="M 20,0 C 31.04569499661587,0 40,8.954305003384128 40,20 C 40,31.04569499661587 31.04569499661587,40 20,40 C 8.954305003384128,40 0,31.04569499661587 0,20 C 0,8.954305003384128 8.954305003384128,0 20,0 z" transform="matrix(1, 0, 0, 1, 1, 1)" data-port-id=""/><g transform="matrix(1, 0, 0, 1, 11, 11)"><g transform="matrix(1, 0, 0, 1, 0, 0)" data-item-index="0"><path stroke="none" fill="transparent" d="M 1,1 L 20,1 L 20,20 L 1,20 z" transform="matrix(1, 0, 0, 1, 0, 0)"/></g></g><text x="8" y="13.870898437500001" style="font: 16px serif" text-anchor="middle" fill="black" transform="matrix(1, 0, 0, 1, 13, 11.752734375)">52</text></g><g transform="matrix(1, 0, 0, 1, 0, 0)"><text x="23.1181640625" y="10.558374023437501" style="font: 13px sans-serif" text-anchor="middle" fill="black" transform="matrix(1, 0, 0, 1, 0, 69.68126440691735)">Carmen</text><text x="23.1181640625" y="24.636206054687502" style="font: 13px sans-serif" text-anchor="middle" fill="black" transform="matrix(1, 0, 0, 1, 0, 69.68126440691735)">Lucia</text></g><text x="15.180419921875" y="10.558374023437501" style="font: 13px sans-serif" text-anchor="middle" fill="black" transform="matrix(1, 0, 0, 1, 7.937744140625, 97.83692846941736)">K703</text></g><g transform="matrix(1, 0, 0, 1, 24.826904296875, 161.91476050066734)" data-class-name="Node" data-key="322"><g transform="matrix(1, 0, 0, 1, 27.96184862614608, 0)"><g transform="matrix(1, 0, 0, 1, 0, 0)" data-item-index="0"><path stroke="transparent" fill="transparent" stroke-width="1" stroke-linecap="butt" stroke-linejoin="miter" stroke-miterlimit="10" d="M 10,19.999999999999996 L 0.5,20 C 0.5,9.50658975321493 4.7532948766074625,1.0000000000000036 9.999999999999998,1 z" transform="matrix(0.9063077870366497, -0.4226182617407, 0.4226182617407, 0.9063077870366497, 2.6644630243886738, 6.8906456417956745)"/></g></g><g transform="matrix(1, 0, 0, 1, 18.384033203125, 27.681264406917347)"><path stroke="#919191" fill="white" stroke-width="2" stroke-linecap="butt" stroke-linejoin="miter" stroke-miterlimit="10" d="M 0,0 L 40,0 L 40,40 L 0,40 z" transform="matrix(1, 0, 0, 1, 1, 1)" data-port-id=""/><g transform="matrix(1, 0, 0, 1, 11, 11)"><g transform="matrix(1, 0, 0, 1, 0, 0)" data-item-index="0"><path stroke="none" fill="transparent" d="M 1,1 L 20,1 L 20,20 L 1,20 z" transform="matrix(1, 0, 0, 1, 0, 0)"/></g></g><text x="8" y="13.870898437500001" style="font: 16px serif" text-anchor="middle" fill="black" transform="matrix(1, 0, 0, 1, 13, 11.752734375)">32</text></g><text x="39.384033203125" y="10.558374023437501" style="font: 13px sans-serif" text-anchor="middle" fill="black" transform="matrix(1, 0, 0, 1, 0, 69.68126440691735)">Pablo Ramon</text><text x="11.5654296875" y="10.558374023437501" style="font: 13px sans-serif" text-anchor="middle" fill="black" transform="matrix(1, 0, 0, 1, 27.818603515625, 83.75909643816735)">B18</text></g><g transform="matrix(1, 0, 0, 1, 0, 337.67015320479334)" data-class-name="Node" data-key="1"><g transform="matrix(1, 0, 0, 1, 0, 0)"><path stroke="#a1a1a1" fill="white" stroke-width="2" stroke-linecap="butt" stroke-linejoin="miter" stroke-miterlimit="10" d="M 40,40 L 0,40 L 20,0 z" transform="matrix(1, 0, 0, 1, 1, 1)" data-port-id=""/></g></g><g transform="matrix(1, 0, 0, 1, 133.594970703125, 161.91476050066734)" data-class-name="Node" data-key="323"><g transform="matrix(1, 0, 0, 1, 20.36687792302108, 0)"><g transform="matrix(1, 0, 0, 1, 0, 0)" data-item-index="0"><path stroke="transparent" fill="transparent" stroke-width="1" stroke-linecap="butt" stroke-linejoin="miter" stroke-miterlimit="10" d="M 10,19.999999999999996 L 0.5,20 C 0.5,9.50658975321493 4.7532948766074625,1.0000000000000036 9.999999999999998,1 z" transform="matrix(0.9063077870366497, -0.4226182617407, 0.4226182617407, 0.9063077870366497, 2.6644630243886738, 6.8906456417956745)"/></g></g><g transform="matrix(1, 0, 0, 1, 10.7890625, 27.681264406917347)"><path stroke="#a1a1a1" fill="white" stroke-width="2" stroke-linecap="butt" stroke-linejoin="miter" stroke-miterlimit="10" d="M 20,0 C 31.04569499661587,0 40,8.954305003384128 40,20 C 40,31.04569499661587 31.04569499661587,40 20,40 C 8.954305003384128,40 0,31.04569499661587 0,20 C 0,8.954305003384128 8.954305003384128,0 20,0 z" transform="matrix(1, 0, 0, 1, 1, 1)" data-port-id=""/><g transform="matrix(1, 0, 0, 1, 11, 11)"><g transform="matrix(1, 0, 0, 1, 0, 0)" data-item-index="0"><path stroke="none" fill="transparent" d="M 1,1 L 20,1 L 20,20 L 1,20 z" transform="matrix(1, 0, 0, 1, 0, 0)"/></g></g><text x="8" y="13.870898437500001" style="font: 16px serif" text-anchor="middle" fill="black" transform="matrix(1, 0, 0, 1, 13, 11.752734375)">34</text></g><text x="31.7890625" y="10.558374023437501" style="font: 13px sans-serif" text-anchor="middle" fill="black" transform="matrix(1, 0, 0, 1, 0, 69.68126440691735)">Maria José</text><text x="15.180419921875" y="10.558374023437501" style="font: 13px sans-serif" text-anchor="middle" fill="black" transform="matrix(1, 0, 0, 1, 16.608642578125, 83.75909643816735)">K290</text></g><g transform="matrix(1, 0, 0, 1, 167.34646481862285, 311.7185467657626)" data-class-name="Node" data-key="324"><g transform="matrix(1, 0, 0, 1, 16.03777636052108, 0)"><g transform="matrix(1, 0, 0, 1, 0, 0)" data-item-index="0"><path stroke="transparent" fill="transparent" stroke-width="1" stroke-linecap="butt" stroke-linejoin="miter" stroke-miterlimit="10" d="M 10,19.999999999999996 L 0.5,20 C 0.5,9.50658975321493 4.7532948766074625,1.0000000000000036 9.999999999999998,1 z" transform="matrix(0.9063077870366497, -0.4226182617407, 0.4226182617407, 0.9063077870366497, 2.6644630243886738, 6.8906456417956745)"/></g></g><g transform="matrix(1, 0, 0, 1, 6.4599609375, 27.681264406917347)"><path stroke="#919191" fill="white" stroke-width="2" stroke-linecap="butt" stroke-linejoin="miter" stroke-miterlimit="10" d="M 0,0 L 40,0 L 40,40 L 0,40 z" transform="matrix(1, 0, 0, 1, 1, 1)" data-port-id=""/><g transform="matrix(1, 0, 0, 1, 11, 11)"><g transform="matrix(1, 0, 0, 1, 0, 0)" data-item-index="0"><path stroke="none" fill="transparent" d="M 1,1 L 20,1 L 20,20 L 1,20 z" transform="matrix(1, 0, 0, 1, 0, 0)"/></g></g><text x="8" y="13.870898437500001" style="font: 16px serif" text-anchor="middle" fill="black" transform="matrix(1, 0, 0, 1, 13, 11.752734375)">12</text></g><text x="27.4599609375" y="10.558374023437501" style="font: 13px sans-serif" text-anchor="middle" fill="black" transform="matrix(1, 0, 0, 1, 0, 69.68126440691735)">José Luis</text><text x="11.5654296875" y="10.558374023437501" style="font: 13px sans-serif" text-anchor="middle" fill="black" transform="matrix(1, 0, 0, 1, 15.89453125, 83.75909643816735)">B18</text></g><g transform="matrix(1, 0, 0, 1, 332.76998428844274, 147.24646120904129)" data-class-name="Node" data-key="325"><g transform="matrix(1, 0, 0, 1, 0, 0)"><g transform="matrix(1, 0, 0, 1, 61.42218457697892, 0)" data-item-index="0"><path stroke="transparent" fill="transparent" stroke-width="1" stroke-linecap="butt" stroke-linejoin="miter" stroke-miterlimit="10" d="M 10,19.999999999999996 L 0.5,20 C 0.5,9.50658975321493 4.7532948766074625,1.0000000000000036 9.999999999999998,1 z" transform="matrix(0.9063077870366497, -0.4226182617407, 0.4226182617407, 0.9063077870366497, 2.6644630243886738, 6.8906456417956745)"/></g><g transform="matrix(1, 0, 0, 1, 0, 13.840632203458673)"><path stroke="#000000" fill="none" stroke-width="1" stroke-linecap="butt" stroke-linejoin="miter" stroke-miterlimit="10" d="M 6.475635421725757,1.3463576577010103 C 6.69916008978096,1.3463576577010103 6.880362635583617,1.6477500854684277 6.880362635583617,2.0195364865515155 L 6.880362635583617,17.89713234381953 L 9.426906265177271,13.66014479503445 C 9.58516173231874,13.39692002665765 9.841744537175305,13.396920032478231 10,13.660144808035081 C 10.158255459936514,13.92336957878805 10.158255459748222,14.35014124701965 9.999999999579439,14.613366017386284 L 6.762182289137122,19.998796647490806 C 6.604326389557231,20.262021419457632 6.348067496459058,20.262560178727327 6.189812031475975,19.999999999999996 C 6.189570567693027,19.999599389670276 6.189329408446522,19.99919827184679 6.189088554314392,19.998796647490806 L 2.9512708434515145,14.613366016686765 C 2.7930153815208527,14.350141239642877 2.7930153864698055,13.923369561924215 2.95127085450531,13.660144795034451 C 3.1095263184563087,13.396920034938406 3.3661091152464904,13.396920035381315 3.5243645788690094,13.660144796023719 L 6.070908207867897,17.89713234381953 L 6.070908207867897,2.0195364865515155 C 6.070908207867897,1.6477500854684277 6.2521107536705545,1.3463576577010103 6.475635421725757,1.3463576577010103 z" transform="matrix(0.9063077870366497, -0.4226182617407, 0.4226182617407, 0.9063077870366497, 2.6644630243886738, 6.8906456417956745)"/></g><g transform="matrix(1, 0, 0, 1, 0, 13.840632203458673)"><path stroke="transparent" fill="transparent" stroke-width="1" stroke-linecap="butt" stroke-linejoin="miter" stroke-miterlimit="10" d="M 10,19.999999999999996 L 0.5,20 C 0.5,9.50658975321493 4.7532948766074625,1.0000000000000036 9.999999999999998,1 z" transform="matrix(0.9063077870366497, -0.4226182617407, 0.4226182617407, 0.9063077870366497, 2.6644630243886738, 6.8906456417956745)"/></g></g><g transform="matrix(1, 0, 0, 1, 21.133276865468382, 41.52189661037602)"><path stroke="#a1a1a1" fill="#BB8FCE" stroke-width="2" stroke-linecap="butt" stroke-linejoin="miter" stroke-miterlimit="10" d="M 20,0 C 31.04569499661587,0 40,8.954305003384128 40,20 C 40,31.04569499661587 31.04569499661587,40 20,40 C 8.954305003384128,40 0,31.04569499661587 0,20 C 0,8.954305003384128 8.954305003384128,0 20,0 z" transform="matrix(1, 0, 0, 1, 1, 1)" data-port-id=""/><g transform="matrix(1, 0, 0, 1, 11, 11)"><g transform="matrix(1, 0, 0, 1, 0, 0)" data-item-index="0"><path stroke="none" fill="transparent" d="M 1,1 L 20,1 L 20,20 L 1,20 z" transform="matrix(1, 0, 0, 1, 0, 0)"/></g><g transform="matrix(1, 0, 0, 1, 0, 0)" data-item-index="1"><path stroke="none" fill="transparent" d="M 1,1 L 20,1 L 20,20 L 1,20 z" transform="matrix(1, 0, 0, 1, 0, 0)"/></g><g transform="matrix(1, 0, 0, 1, 0, 0)" data-item-index="2"><path stroke="none" fill="transparent" d="M 1,1 L 20,1 L 20,20 L 1,20 z" transform="matrix(1, 0, 0, 1, 0, 0)"/></g></g><text x="8" y="13.870898437500001" style="font: 16px serif" text-anchor="middle" fill="black" transform="matrix(1, 0, 0, 1, 13, 11.752734375)">23</text></g><text x="39.7490234375" y="10.558374023437501" style="font: 13px sans-serif" text-anchor="middle" fill="black" transform="matrix(1, 0, 0, 1, 2.384253427968382, 83.52189661037602)">Karen Juliana</text><text x="15.180419921875" y="10.558374023437501" style="font: 13px sans-serif" text-anchor="middle" fill="black" transform="matrix(1, 0, 0, 1, 26.952856943593382, 97.59972864162602)">K703</text></g><g transform="matrix(1, 0, 0, 1, 211.73344626906322, 146.11813049430083)" data-class-name="Node" data-key="326"><g transform="matrix(1, 0, 0, 1, 0, 0)"><g transform="matrix(1, 0, 0, 1, 61.42218457697892, 0)" data-item-index="0"><path stroke="transparent" fill="transparent" stroke-width="1" stroke-linecap="butt" stroke-linejoin="miter" stroke-miterlimit="10" d="M 10,19.999999999999996 L 0.5,20 C 0.5,9.50658975321493 4.7532948766074625,1.0000000000000036 9.999999999999998,1 z" transform="matrix(0.9063077870366497, -0.4226182617407, 0.4226182617407, 0.9063077870366497, 2.6644630243886738, 6.8906456417956745)"/></g><g transform="matrix(1, 0, 0, 1, 0, 13.840632203458673)"><path stroke="transparent" fill="transparent" stroke-width="1" stroke-linecap="butt" stroke-linejoin="miter" stroke-miterlimit="10" d="M 10,19.999999999999996 L 0.5,20 C 0.5,9.50658975321493 4.7532948766074625,1.0000000000000036 9.999999999999998,1 z" transform="matrix(0.9063077870366497, -0.4226182617407, 0.4226182617407, 0.9063077870366497, 2.6644630243886738, 6.8906456417956745)"/></g></g><g transform="matrix(1, 0, 0, 1, 21.133276865468382, 41.52189661037602)"><path stroke="#919191" fill="#BB8FCE" stroke-width="2" stroke-linecap="butt" stroke-linejoin="miter" stroke-miterlimit="10" d="M 0,0 L 40,0 L 40,40 L 0,40 z" transform="matrix(1, 0, 0, 1, 1, 1)" data-port-id=""/><g transform="matrix(1, 0, 0, 1, 11, 11)"><g transform="matrix(1, 0, 0, 1, 0, 0)" data-item-index="0"><path stroke="none" fill="transparent" d="M 1,1 L 20,1 L 20,20 L 1,20 z" transform="matrix(1, 0, 0, 1, 0, 0)"/></g><g transform="matrix(1, 0, 0, 1, 0, 0)" data-item-index="1"><path stroke="none" fill="transparent" d="M 1,1 L 20,1 L 20,20 L 1,20 z" transform="matrix(1, 0, 0, 1, 0, 0)"/></g></g><text x="8" y="13.870898437500001" style="font: 16px serif" text-anchor="middle" fill="black" transform="matrix(1, 0, 0, 1, 13, 11.752734375)">24</text></g><g transform="matrix(1, 0, 0, 1, 0, 0)"><text x="23.12451171875" y="10.558374023437501" style="font: 13px sans-serif" text-anchor="middle" fill="black" transform="matrix(1, 0, 0, 1, 19.008765146718382, 83.52189661037602)">Roberto</text><text x="23.12451171875" y="24.636206054687502" style="font: 13px sans-serif" text-anchor="middle" fill="black" transform="matrix(1, 0, 0, 1, 19.008765146718382, 83.52189661037602)">Carlos</text></g><text x="15.5390625" y="10.558374023437501" style="font: 13px sans-serif" text-anchor="middle" fill="black" transform="matrix(1, 0, 0, 1, 26.594214365468382, 111.67756067287601)">C108</text></g><g transform="matrix(1, 0, 0, 1, 272.67314889065426, 294.7935860446556)" data-class-name="Node" data-key="327"><g transform="matrix(1, 0, 0, 1, 0, 0)"><g transform="matrix(1, 0, 0, 1, 61.42218457697892, 0)" data-item-index="0"><path stroke="transparent" fill="transparent" stroke-width="1" stroke-linecap="butt" stroke-linejoin="miter" stroke-miterlimit="10" d="M 10,19.999999999999996 L 0.5,20 C 0.5,9.50658975321493 4.7532948766074625,1.0000000000000036 9.999999999999998,1 z" transform="matrix(0.9063077870366497, -0.4226182617407, 0.4226182617407, 0.9063077870366497, 2.6644630243886738, 6.8906456417956745)"/></g><g transform="matrix(1, 0, 0, 1, 0, 13.840632203458673)"><path stroke="transparent" fill="transparent" stroke-width="1" stroke-linecap="butt" stroke-linejoin="miter" stroke-miterlimit="10" d="M 10,19.999999999999996 L 0.5,20 C 0.5,9.50658975321493 4.7532948766074625,1.0000000000000036 9.999999999999998,1 z" transform="matrix(0.9063077870366497, -0.4226182617407, 0.4226182617407, 0.9063077870366497, 2.6644630243886738, 6.8906456417956745)"/></g></g><g transform="matrix(1, 0, 0, 1, 16.383276865468382, 41.52189661037602)"><g transform="matrix(1, 0, 0, 1, 0, 0)" data-port-id=""><rect x="-0.75" y="-0.75" width="51.5" height="51.5" fill="#BB8FCE" transform="matrix(1, 0, 0, 1, 0.75, 0.75)"/><path stroke="#636363" fill="none" stroke-width="1.5" stroke-linecap="butt" stroke-linejoin="miter" stroke-miterlimit="10" d="M 0.15287034064413668,1.5247447288638314 L 0.15287034064413668,49.58591809524875 M 50,0 L 50,49.99753035116102 M 0.1058188332216157,1.4985294064380124 L 8.558023627539466,1.2731657177178242 M 0,49.608737650520986 L 5.669696186973448,49.608737650520986 M 49.7919492354043,50 L 43.52179731320486,49.83144235065786 M 42.696140612129724,0.4051829367680951 L 49.90741679973758,0.31514365618009477 M 24.27470160567017,5.5350757638870824 C 14.872749931143375,5.5350755888689065 7.250962051450813,14.534954801644728 7.250961903232,25.636868609617643 C 7.250961755013186,36.738782417590556 14.87274939439557,45.73866191412692 24.27470106892237,45.7386620891451 C 33.67665274344917,45.73866226416328 41.29844062314173,36.73878305138746 41.298440771360546,25.636869243414548 C 41.298440919579356,14.534955435441631 33.67665328019697,5.535075938905269 24.274701605670174,5.535075763887086" transform="matrix(1, 0, 0, 1, 0.75, 0.75)"/></g><g transform="matrix(1, 0, 0, 1, 15.75, 15.75)"><g transform="matrix(1, 0, 0, 1, 0, 0)" data-item-index="0"><path stroke="none" fill="transparent" d="M 1,1 L 20,1 L 20,20 L 1,20 z" transform="matrix(1, 0, 0, 1, 0, 0)"/></g><g transform="matrix(1, 0, 0, 1, 0, 0)" data-item-index="1"><path stroke="none" fill="transparent" d="M 1,1 L 20,1 L 20,20 L 1,20 z" transform="matrix(1, 0, 0, 1, 0, 0)"/></g></g><text x="4" y="13.870898437500001" style="font: 16px serif" text-anchor="middle" fill="black" transform="matrix(1, 0, 0, 1, 21.75, 16.502734375)">2</text></g><g transform="matrix(1, 0, 0, 1, 0, 0)"><text x="23.1181640625" y="10.558374023437501" style="font: 13px sans-serif" text-anchor="middle" fill="black" transform="matrix(1, 0, 0, 1, 19.015112802968382, 93.02189661037602)">Lucia</text><text x="23.1181640625" y="24.636206054687502" style="font: 13px sans-serif" text-anchor="middle" fill="black" transform="matrix(1, 0, 0, 1, 19.015112802968382, 93.02189661037602)">Marcela</text></g><text x="15.5390625" y="10.558374023437501" style="font: 13px sans-serif" text-anchor="middle" fill="black" transform="matrix(1, 0, 0, 1, 26.594214365468382, 121.17756067287601)">D733<rect x="330.5" y="337.67015320479334" width="1" height="1" fill="rgb(0,0,0)" fill-opacity="0.3" transform="matrix(1, 0, 0, 1, 26.594214365468382, 121.17756067287601)"/><rect x="360.5" y="337.67015320479334" width="1" height="1" fill="rgb(0,0,0)" fill-opacity="0.3" transform="matrix(1, 0, 0, 1, 26.594214365468382, 121.17756067287601)"/><rect x="390.5" y="337.67015320479334" width="1" height="1" fill="rgb(0,0,0)" fill-opacity="0.3" transform="matrix(1, 0, 0, 1, 26.594214365468382, 121.17756067287601)"/><rect x="215.20361328125" y="48.18126440691735" width="1" height="1" fill="rgb(0,0,0)" fill-opacity="0.3" transform="matrix(1, 0, 0, 1, 26.594214365468382, 121.17756067287601)"/><rect x="114.2974853515625" y="210.09602490758468" width="1" height="1" fill="rgb(0,0,0)" fill-opacity="0.3" transform="matrix(1, 0, 0, 1, 26.594214365468382, 121.17756067287601)"/><rect x="313.8854483605577" y="208.7041967150017" width="1" height="1" fill="rgb(0,0,0)" fill-opacity="0.3" transform="matrix(1, 0, 0, 1, 26.594214365468382, 121.17756067287601)"/></text></g><g transform="matrix(1, 0, 0, 1, 192.6318359375, 33.68126440691735)" data-class-name="Link" data-key="-1" data-from-key="320" data-to-key="321"><g transform="matrix(1, 0, 0, 1, 8.61181640625, 0)"><text x="0" y="10.558374023437501" style="font: 13px sans-serif" text-anchor="start" fill="black" transform="matrix(1, 0, 0, 1, 0, 0)">2000</text></g><path stroke="#000000" fill="none" stroke-width="2.5" stroke-linecap="butt" stroke-linejoin="miter" stroke-miterlimit="10" d="M 0,0 L 43.6435546875,0" transform="matrix(1, 0, 0, 1, 1.25, 15)"/></g><g transform="matrix(1, 0, 0, 1, 83.9609375, 195.59602490758468)" data-class-name="Link" data-key="-2" data-from-key="323" data-to-key="322"><path stroke="#000000" fill="none" stroke-width="2.5" stroke-linecap="butt" stroke-linejoin="miter" stroke-miterlimit="10" d="M 59.173095703125,0 L 0,0" transform="matrix(1, 0, 0, 1, 1.25, 15)"/><path stroke="black" fill="black" stroke-width="2" stroke-linecap="butt" stroke-linejoin="miter" stroke-miterlimit="10" d="M 0,10 L 13,0 M 9,10 L 22,0" transform="matrix(1, 0, 0, 1, 8.001928710937506, 10)"/><g transform="matrix(1, 0, 0, 1, 16.3765869140625, 0)"><text x="0" y="10.558374023437501" style="font: 13px sans-serif" text-anchor="start" fill="black" transform="matrix(1, 0, 0, 1, 0, 0)">2014</text></g></g><g transform="matrix(1, 0, 0, 1, 273.36672313453164, 194.2041967150017)" data-class-name="Link" data-key="-3" data-from-key="326" data-to-key="325"><g transform="matrix(1, 0, 0, 1, 26.55876428852605, 0)"><text x="0" y="10.558374023437501" style="font: 13px sans-serif" text-anchor="start" fill="black" transform="matrix(1, 0, 0, 1, 0, 0)">2020</text></g><g transform="matrix(1, 0, 0, 1, 0, 0)"><path stroke="transparent" fill="none" stroke-width="3" stroke-linecap="butt" stroke-linejoin="miter" stroke-miterlimit="10" d="M 0,0 L 79.0374504520521,0.7368054673337383" transform="matrix(1, 0, 0, 1, 1.5, 14.63159726633313)"/><path stroke="#000000" fill="none" stroke-width="1.3" stroke-linecap="round" stroke-linejoin="miter" stroke-miterlimit="10" d="M 0,0 M 4,0 L 4.1,0" transform="matrix(0.9999565507940401, 0.009321830511565486, -0.009321830511565486, 0.9999565507940401, 0.20611567384376572, 13.969507123985693)"/><path stroke="#000000" fill="none" stroke-width="1.3" stroke-linecap="round" stroke-linejoin="miter" stroke-miterlimit="10" d="M 0,0 M 4,0 L 4.1,0" transform="matrix(0.9999565507940401, 0.00932183051156491, -0.00932183051156491, 0.9999565507940401, 4.305937532226723, 14.007726615417587)"/><path stroke="#000000" fill="none" stroke-width="1.3" stroke-linecap="round" stroke-linejoin="miter" stroke-miterlimit="10" d="M 0,0 M 4,0 L 4.1,0" transform="matrix(0.9999565507940401, 0.009321830511564334, -0.009321830511564334, 0.9999565507940401, 8.405759390609678, 14.045946106849478)"/><path stroke="#000000" fill="none" stroke-width="1.3" stroke-linecap="round" stroke-linejoin="miter" stroke-miterlimit="10" d="M 0,0 M 4,0 L 4.1,0" transform="matrix(0.9999565507940401, 0.009321830511563758, -0.009321830511563758, 0.9999565507940401, 12.505581248992634, 14.084165598281366)"/><path stroke="#000000" fill="none" stroke-width="1.3" stroke-linecap="round" stroke-linejoin="miter" stroke-miterlimit="10" d="M 0,0 M 4,0 L 4.1,0" transform="matrix(0.9999565507940401, 0.009321830511563184, -0.009321830511563184, 0.9999565507940401, 16.60540310737559, 14.122385089713253)"/><path stroke="#000000" fill="none" stroke-width="1.3" stroke-linecap="round" stroke-linejoin="miter" stroke-miterlimit="10" d="M 0,0 M 4,0 L 4.1,0" transform="matrix(0.9999565507940401, 0.00932183051156261, -0.00932183051156261, 0.9999565507940401, 20.705224965758546, 14.160604581145137)"/><path stroke="#000000" fill="none" stroke-width="1.3" stroke-linecap="round" stroke-linejoin="miter" stroke-miterlimit="10" d="M 0,0 M 4,0 L 4.1,0" transform="matrix(0.9999565507940401, 0.009321830511562035, -0.009321830511562035, 0.9999565507940401, 24.805046824141503, 14.198824072577018)"/><path stroke="#000000" fill="none" stroke-width="1.3" stroke-linecap="round" stroke-linejoin="miter" stroke-miterlimit="10" d="M 0,0 M 4,0 L 4.1,0" transform="matrix(0.9999565507940401, 0.009321830511561461, -0.009321830511561461, 0.9999565507940401, 28.90486868252446, 14.237043564008895)"/><path stroke="#000000" fill="none" stroke-width="1.3" stroke-linecap="round" stroke-linejoin="miter" stroke-miterlimit="10" d="M 0,0 M 4,0 L 4.1,0" transform="matrix(0.9999565507940401, 0.009321830511560887, -0.009321830511560887, 0.9999565507940401, 33.00469054090742, 14.275263055440773)"/><path stroke="#000000" fill="none" stroke-width="1.3" stroke-linecap="round" stroke-linejoin="miter" stroke-miterlimit="10" d="M 0,0 M 4,0 L 4.1,0" transform="matrix(0.9999565507940401, 0.009321830511560313, -0.009321830511560313, 0.9999565507940401, 37.10451239929038, 14.313482546872645)"/><path stroke="#000000" fill="none" stroke-width="1.3" stroke-linecap="round" stroke-linejoin="miter" stroke-miterlimit="10" d="M 0,0 M 4,0 L 4.1,0" transform="matrix(0.9999565507940401, 0.009321830511559739, -0.009321830511559739, 0.9999565507940401, 41.20433425767334, 14.351702038304518)"/><path stroke="#000000" fill="none" stroke-width="1.3" stroke-linecap="round" stroke-linejoin="miter" stroke-miterlimit="10" d="M 0,0 M 4,0 L 4.1,0" transform="matrix(0.9999565507940402, 0.009321830511559165, -0.009321830511559165, 0.9999565507940402, 45.3041561160563, 14.389921529736387)"/><path stroke="#000000" fill="none" stroke-width="1.3" stroke-linecap="round" stroke-linejoin="miter" stroke-miterlimit="10" d="M 0,0 M 4,0 L 4.1,0" transform="matrix(0.9999565507940402, 0.009321830511558589, -0.009321830511558589, 0.9999565507940402, 49.40397797443926, 14.428141021168255)"/><path stroke="#000000" fill="none" stroke-width="1.3" stroke-linecap="round" stroke-linejoin="miter" stroke-miterlimit="10" d="M 0,0 M 4,0 L 4.1,0" transform="matrix(0.9999565507940402, 0.009321830511558013, -0.009321830511558013, 0.9999565507940402, 53.503799832822224, 14.466360512600119)"/><path stroke="#000000" fill="none" stroke-width="1.3" stroke-linecap="round" stroke-linejoin="miter" stroke-miterlimit="10" d="M 0,0 M 4,0 L 4.1,0" transform="matrix(0.9999565507940402, 0.009321830511557437, -0.009321830511557437, 0.9999565507940402, 57.603621691205184, 14.50458000403198)"/><path stroke="#000000" fill="none" stroke-width="1.3" stroke-linecap="round" stroke-linejoin="miter" stroke-miterlimit="10" d="M 0,0 M 4,0 L 4.1,0" transform="matrix(0.9999565507940402, 0.00932183051155686, -0.00932183051155686, 0.9999565507940402, 61.703443549588144, 14.542799495463841)"/><path stroke="#000000" fill="none" stroke-width="1.3" stroke-linecap="round" stroke-linejoin="miter" stroke-miterlimit="10" d="M 0,0 M 4,0 L 4.1,0" transform="matrix(0.9999565507940402, 0.009321830511556285, -0.009321830511556285, 0.9999565507940402, 65.80326540797108, 14.5810189868957)"/><path stroke="#000000" fill="none" stroke-width="1.3" stroke-linecap="round" stroke-linejoin="miter" stroke-miterlimit="10" d="M 0,0 M 4,0 L 4.1,0" transform="matrix(0.9999565507940402, 0.009321830511555709, -0.009321830511555709, 0.9999565507940402, 69.90308726635404, 14.619238478327555)"/><path stroke="#000000" fill="none" stroke-width="1.3" stroke-linecap="round" stroke-linejoin="miter" stroke-miterlimit="10" d="M 0,0 M 4,0 L 4.1,0" transform="matrix(0.9999565507940402, 0.009321830511555133, -0.009321830511555133, 0.9999565507940402, 74.002909124737, 14.657457969759408)"/></g></g></g><g transform="matrix(0.8862649814775414, 0, 0, 0.8862649814775414, 286.6975601783983, 5.431324907387707)"/></g><clipPath id="mainClip5408"><rect x="0" y="0" width="937px" height="430px"/></clipPath></svg>