<svg width="922px" height="430px" viewBox="0 0 922 430" xmlns="http://www.w3.org/2000/svg" xmlns:xlink="http://www.w3.org/1999/xlink" style="display: block; letter-spacing: normal; word-spacing: normal; width: 922px; height: 430px;"><g clip-path="url(#mainClip12269)"><g class="gojs-diagram" transform="matrix(1.0272610176213168, 0, 0, 1.0272610176213168, 368.09691489971345, 1.9563050881063977)"><g transform="matrix(1, 0, 0, 1, 52.9609375, 61.541036434030616)" data-class-name="Link" data-key="-3" data-from-key="-9" data-to-key="330"><path stroke="#424242" fill="none" stroke-width="2" stroke-linecap="butt" stroke-linejoin="miter" stroke-miterlimit="10" d="M 49.830973345938915,0 L 49.830973345938915,70.44781033850637 Q 49.830973345938915,75.44781033850637 44.830973345938915,75.44781033850637 L 5,75.44781033850637 Q 0,75.44781033850637 0,80.44781033850637 L 0,140.89562067701272" transform="matrix(1, 0, 0, 1, 1, 1)"/></g><g transform="matrix(1, 0, 0, 1, 20, 223.40003265834338)" data-class-name="Link" data-key="-4" data-from-key="-10" data-to-key="2"><path stroke="#424242" fill="none" stroke-width="2" stroke-linecap="butt" stroke-linejoin="miter" stroke-miterlimit="10" d="M 95.65773543350377,0 L 95.65773543350377,56.63506027322495 Q 95.65773543350377,61.63506027322495 90.65773543350377,61.63506027322495 L 5,61.63506027322495 Q 0,61.63506027322495 0,66.63506027322495 L 0,113.27012054644996" transform="matrix(1, 0, 0, 1, 1, 1)"/></g><g transform="matrix(1, 0, 0, 1, 115.65773543350377, 223.40003265834338)" data-class-name="Link" data-key="-5" data-from-key="-10" data-to-key="332"><path stroke="#424242" fill="none" stroke-width="2" stroke-linecap="butt" stroke-linejoin="miter" stroke-miterlimit="10" d="M 0,0 L 0,58.07764677981942 Q 0,63.07764677981942 5,63.07764677981942 L 95.5932544587609,63.07764677981942 Q 100.5932544587609,63.07764677981942 100.5932544587609,68.07764677981942 L 100.5932544587609,116.15529355963889" transform="matrix(1, 0, 0, 1, 1, 1)"/></g><g transform="matrix(1, 0, 0, 1, 13.169697072257662, 12.878907865729047)" data-class-name="Node" data-key="328"><g transform="matrix(1, 0, 0, 1, 12.784602532396077, 0)"><g transform="matrix(1, 0, 0, 1, 0, 0)" data-item-index="0"><path stroke="transparent" fill="transparent" stroke-width="1" stroke-linecap="butt" stroke-linejoin="miter" stroke-miterlimit="10" d="M 10,19.999999999999996 L 0.5,20 C 0.5,9.50658975321493 4.7532948766074625,1.0000000000000036 9.999999999999998,1 z" transform="matrix(0.9063077870366497, -0.4226182617407, 0.4226182617407, 0.9063077870366497, 2.6644630243886738, 6.8906456417956745)"/></g></g><g transform="matrix(1, 0, 0, 1, 3.206787109375, 27.681264406917347)"><path stroke="#919191" fill="white" stroke-width="2" stroke-linecap="butt" stroke-linejoin="miter" stroke-miterlimit="10" d="M 0,0 L 40,0 L 40,40 L 0,40 z" transform="matrix(1, 0, 0, 1, 1, 1)" data-port-id=""/><g transform="matrix(1, 0, 0, 1, 1, 1)"><g transform="matrix(1, 0, 0, 1, 0, 0)" data-item-index="0"><path stroke="none" fill="#000000" d="M 38,0 L 40,0 L 40,2 L 2,40 L 0,40 L 0,38 z M 40,38 L 40,40 L 38,40 L 0,2 L 0,0 L 2,0 z" transform="matrix(1, 0, 0, 1, 0, 0)"/></g></g><text x="8" y="13.870898437500001" style="font: 16px serif" text-anchor="middle" fill="black" transform="matrix(1, 0, 0, 1, 13, 11.752734375)">54</text></g><g transform="matrix(1, 0, 0, 1, 0, 0)"><text x="24.206787109375" y="10.558374023437501" style="font: 13px sans-serif" text-anchor="middle" fill="black" transform="matrix(1, 0, 0, 1, 0, 69.68126440691735)">Pedro</text><text x="24.206787109375" y="24.636206054687502" style="font: 13px sans-serif" text-anchor="middle" fill="black" transform="matrix(1, 0, 0, 1, 0, 69.68126440691735)">Gustavo</text></g><text x="11.5654296875" y="10.558374023437501" style="font: 13px sans-serif" text-anchor="middle" fill="black" transform="matrix(1, 0, 0, 1, 12.641357421875, 97.83692846941736)">B18</text></g><g transform="matrix(1, 0, 0, 1, 128.0735102439066, 0)" data-class-name="Node" data-key="329"><g transform="matrix(1, 0, 0, 1, 0, 0)"><g transform="matrix(1, 0, 0, 1, 61.42218457697892, 0)" data-item-index="0"><path stroke="transparent" fill="transparent" stroke-width="1" stroke-linecap="butt" stroke-linejoin="miter" stroke-miterlimit="10" d="M 10,19.999999999999996 L 0.5,20 C 0.5,9.50658975321493 4.7532948766074625,1.0000000000000036 9.999999999999998,1 z" transform="matrix(0.9063077870366497, -0.4226182617407, 0.4226182617407, 0.9063077870366497, 2.6644630243886738, 6.8906456417956745)"/></g><g transform="matrix(1, 0, 0, 1, 0, 13.840632203458673)"><path stroke="#000000" fill="none" stroke-width="1" stroke-linecap="butt" stroke-linejoin="miter" stroke-miterlimit="10" d="M 6.475635421725757,1.3463576577010103 C 6.69916008978096,1.3463576577010103 6.880362635583617,1.6477500854684277 6.880362635583617,2.0195364865515155 L 6.880362635583617,17.89713234381953 L 9.426906265177271,13.66014479503445 C 9.58516173231874,13.39692002665765 9.841744537175305,13.396920032478231 10,13.660144808035081 C 10.158255459936514,13.92336957878805 10.158255459748222,14.35014124701965 9.999999999579439,14.613366017386284 L 6.762182289137122,19.998796647490806 C 6.604326389557231,20.262021419457632 6.348067496459058,20.262560178727327 6.189812031475975,19.999999999999996 C 6.189570567693027,19.999599389670276 6.189329408446522,19.99919827184679 6.189088554314392,19.998796647490806 L 2.9512708434515145,14.613366016686765 C 2.7930153815208527,14.350141239642877 2.7930153864698055,13.923369561924215 2.95127085450531,13.660144795034451 C 3.1095263184563087,13.396920034938406 3.3661091152464904,13.396920035381315 3.5243645788690094,13.660144796023719 L 6.070908207867897,17.89713234381953 L 6.070908207867897,2.0195364865515155 C 6.070908207867897,1.6477500854684277 6.2521107536705545,1.3463576577010103 6.475635421725757,1.3463576577010103 z" transform="matrix(0.9063077870366497, -0.4226182617407, 0.4226182617407, 0.9063077870366497, 2.6644630243886738, 6.8906456417956745)"/></g><g transform="matrix(1, 0, 0, 1, 0, 13.840632203458673)"><path stroke="transparent" fill="transparent" stroke-width="1" stroke-linecap="butt" stroke-linejoin="miter" stroke-miterlimit="10" d="M 10,19.999999999999996 L 0.5,20 C 0.5,9.50658975321493 4.7532948766074625,1.0000000000000036 9.999999999999998,1 z" transform="matrix(0.9063077870366497, -0.4226182617407, 0.4226182617407, 0.9063077870366497, 2.6644630243886738, 6.8906456417956745)"/></g></g><g transform="matrix(1, 0, 0, 1, 21.133276865468382, 41.52189661037602)"><path stroke="#a1a1a1" fill="#BB8FCE" stroke-width="2" stroke-linecap="butt" stroke-linejoin="miter" stroke-miterlimit="10" d="M 20,0 C 31.04569499661587,0 40,8.954305003384128 40,20 C 40,31.04569499661587 31.04569499661587,40 20,40 C 8.954305003384128,40 0,31.04569499661587 0,20 C 0,8.954305003384128 8.954305003384128,0 20,0 z" transform="matrix(1, 0, 0, 1, 1, 1)" data-port-id=""/><g transform="matrix(1, 0, 0, 1, 11, 11)"><g transform="matrix(1, 0, 0, 1, 0, 0)" data-item-index="0"><path stroke="none" fill="transparent" d="M 1,1 L 20,1 L 20,20 L 1,20 z" transform="matrix(1, 0, 0, 1, 0, 0)"/></g><g transform="matrix(1, 0, 0, 1, 0, 0)" data-item-index="1"><path stroke="none" fill="transparent" d="M 1,1 L 20,1 L 20,20 L 1,20 z" transform="matrix(1, 0, 0, 1, 0, 0)"/></g><g transform="matrix(1, 0, 0, 1, 0, 0)" data-item-index="2"><path stroke="none" fill="transparent" d="M 1,1 L 20,1 L 20,20 L 1,20 z" transform="matrix(1, 0, 0, 1, 0, 0)"/></g></g><text x="8" y="13.870898437500001" style="font: 16px serif" text-anchor="middle" fill="black" transform="matrix(1, 0, 0, 1, 13, 11.752734375)">52</text></g><g transform="matrix(1, 0, 0, 1, 0, 0)"><text x="24.206787109375" y="10.558374023437501" style="font: 13px sans-serif" text-anchor="middle" fill="black" transform="matrix(1, 0, 0, 1, 17.926489756093382, 83.52189661037602)">Carolina</text><text x="24.206787109375" y="24.636206054687502" style="font: 13px sans-serif" text-anchor="middle" fill="black" transform="matrix(1, 0, 0, 1, 17.926489756093382, 83.52189661037602)">Maria</text></g><text x="11.5654296875" y="10.558374023437501" style="font: 13px sans-serif" text-anchor="middle" fill="black" transform="matrix(1, 0, 0, 1, 30.567847177968382, 111.67756067287601)">K70</text></g><g transform="matrix(1, 0, 0, 1, 16.024169921875, 175.755392704126)" data-class-name="Node" data-key="330"><g transform="matrix(1, 0, 0, 1, 26.51458300114608, 0)"><g transform="matrix(1, 0, 0, 1, 0, 0)" data-item-index="0"><path stroke="transparent" fill="transparent" stroke-width="1" stroke-linecap="butt" stroke-linejoin="miter" stroke-miterlimit="10" d="M 10,19.999999999999996 L 0.5,20 C 0.5,9.50658975321493 4.7532948766074625,1.0000000000000036 9.999999999999998,1 z" transform="matrix(0.9063077870366497, -0.4226182617407, 0.4226182617407, 0.9063077870366497, 2.6644630243886738, 6.8906456417956745)"/></g></g><g transform="matrix(1, 0, 0, 1, 16.936767578125, 27.681264406917347)"><path stroke="#919191" fill="white" stroke-width="2" stroke-linecap="butt" stroke-linejoin="miter" stroke-miterlimit="10" d="M 0,0 L 40,0 L 40,40 L 0,40 z" transform="matrix(1, 0, 0, 1, 1, 1)" data-port-id=""/><g transform="matrix(1, 0, 0, 1, 11, 11)"><g transform="matrix(1, 0, 0, 1, 0, 0)" data-item-index="0"><path stroke="none" fill="transparent" d="M 1,1 L 20,1 L 20,20 L 1,20 z" transform="matrix(1, 0, 0, 1, 0, 0)"/></g></g><text x="8" y="13.870898437500001" style="font: 16px serif" text-anchor="middle" fill="black" transform="matrix(1, 0, 0, 1, 13, 11.752734375)">32</text></g><text x="37.936767578125" y="10.558374023437501" style="font: 13px sans-serif" text-anchor="middle" fill="black" transform="matrix(1, 0, 0, 1, 0, 69.68126440691735)">Luis Gustavo</text><text x="11.5654296875" y="10.558374023437501" style="font: 13px sans-serif" text-anchor="middle" fill="black" transform="matrix(1, 0, 0, 1, 26.371337890625, 83.75909643816735)">B18</text></g><g transform="matrix(1, 0, 0, 1, 0, 337.67015320479334)" data-class-name="Node" data-key="2"><g transform="matrix(1, 0, 0, 1, 21, 0)"/><g transform="matrix(1, 0, 0, 1, 0, 0)"><path stroke="#a1a1a1" fill="white" stroke-width="2" stroke-linecap="butt" stroke-linejoin="miter" stroke-miterlimit="10" d="M 40,40 L 0,40 L 20,0 z" transform="matrix(1, 0, 0, 1, 1, 1)" data-port-id=""/><g transform="matrix(1, 0, 0, 1, 21, 31.5)"/></g></g><g transform="matrix(1, 0, 0, 1, 157.31470170887985, 174.6821503819819)" data-class-name="Node" data-key="331"><g transform="matrix(1, 0, 0, 1, 10.616877923021077, 0)"><g transform="matrix(1, 0, 0, 1, 0, 0)" data-item-index="0"><path stroke="transparent" fill="transparent" stroke-width="1" stroke-linecap="butt" stroke-linejoin="miter" stroke-miterlimit="10" d="M 10,19.999999999999996 L 0.5,20 C 0.5,9.50658975321493 4.7532948766074625,1.0000000000000036 9.999999999999998,1 z" transform="matrix(0.9063077870366497, -0.4226182617407, 0.4226182617407, 0.9063077870366497, 2.6644630243886738, 6.8906456417956745)"/></g></g><g transform="matrix(1, 0, 0, 1, 1.0390625, 27.681264406917347)"><path stroke="#a1a1a1" fill="white" stroke-width="2" stroke-linecap="butt" stroke-linejoin="miter" stroke-miterlimit="10" d="M 20,0 C 31.04569499661587,0 40,8.954305003384128 40,20 C 40,31.04569499661587 31.04569499661587,40 20,40 C 8.954305003384128,40 0,31.04569499661587 0,20 C 0,8.954305003384128 8.954305003384128,0 20,0 z" transform="matrix(1, 0, 0, 1, 1, 1)" data-port-id=""/><g transform="matrix(1, 0, 0, 1, 11, 11)"><g transform="matrix(1, 0, 0, 1, 0, 0)" data-item-index="0"><path stroke="none" fill="transparent" d="M 1,1 L 20,1 L 20,20 L 1,20 z" transform="matrix(1, 0, 0, 1, 0, 0)"/></g></g><text x="8" y="13.870898437500001" style="font: 16px serif" text-anchor="middle" fill="black" transform="matrix(1, 0, 0, 1, 13, 11.752734375)">32</text></g><g transform="matrix(1, 0, 0, 1, 0, 0)"><text x="22.0390625" y="10.558374023437501" style="font: 13px sans-serif" text-anchor="middle" fill="black" transform="matrix(1, 0, 0, 1, 0, 69.68126440691735)">Maria</text><text x="22.0390625" y="24.636206054687502" style="font: 13px sans-serif" text-anchor="middle" fill="black" transform="matrix(1, 0, 0, 1, 0, 69.68126440691735)">Celeste</text></g><text x="15.180419921875" y="10.558374023437501" style="font: 13px sans-serif" text-anchor="middle" fill="black" transform="matrix(1, 0, 0, 1, 6.858642578125, 97.83692846941736)">K290</text></g><g transform="matrix(1, 0, 0, 1, 175.11771302679628, 299.03342960760625)" data-class-name="Node" data-key="332"><g transform="matrix(1, 0, 0, 1, 0, 0)"><g transform="matrix(1, 0, 0, 1, 61.42218457697892, 0)" data-item-index="0"><path stroke="transparent" fill="transparent" stroke-width="1" stroke-linecap="butt" stroke-linejoin="miter" stroke-miterlimit="10" d="M 10,19.999999999999996 L 0.5,20 C 0.5,9.50658975321493 4.7532948766074625,1.0000000000000036 9.999999999999998,1 z" transform="matrix(0.9063077870366497, -0.4226182617407, 0.4226182617407, 0.9063077870366497, 2.6644630243886738, 6.8906456417956745)"/></g><g transform="matrix(1, 0, 0, 1, 0, 13.840632203458673)"><path stroke="transparent" fill="transparent" stroke-width="1" stroke-linecap="butt" stroke-linejoin="miter" stroke-miterlimit="10" d="M 10,19.999999999999996 L 0.5,20 C 0.5,9.50658975321493 4.7532948766074625,1.0000000000000036 9.999999999999998,1 z" transform="matrix(0.9063077870366497, -0.4226182617407, 0.4226182617407, 0.9063077870366497, 2.6644630243886738, 6.8906456417956745)"/></g></g><g transform="matrix(1, 0, 0, 1, 21.133276865468382, 41.52189661037602)"><path stroke="#919191" fill="#BB8FCE" stroke-width="2" stroke-linecap="butt" stroke-linejoin="miter" stroke-miterlimit="10" d="M 0,0 L 40,0 L 40,40 L 0,40 z" transform="matrix(1, 0, 0, 1, 1, 1)" data-port-id=""/><g transform="matrix(1, 0, 0, 1, 11, 11)"><g transform="matrix(1, 0, 0, 1, 0, 0)" data-item-index="0"><path stroke="none" fill="transparent" d="M 1,1 L 20,1 L 20,20 L 1,20 z" transform="matrix(1, 0, 0, 1, 0, 0)"/></g><g transform="matrix(1, 0, 0, 1, 0, 0)" data-item-index="1"><path stroke="none" fill="transparent" d="M 1,1 L 20,1 L 20,20 L 1,20 z" transform="matrix(1, 0, 0, 1, 0, 0)"/></g></g><text x="8" y="13.870898437500001" style="font: 16px serif" text-anchor="middle" fill="black" transform="matrix(1, 0, 0, 1, 13, 11.752734375)">12</text></g><text x="32.877685546875" y="10.558374023437501" style="font: 13px sans-serif" text-anchor="middle" fill="black" transform="matrix(1, 0, 0, 1, 9.255591318593382, 83.52189661037602)">Luis Miguel</text><text x="11.5654296875" y="10.558374023437501" style="font: 13px sans-serif" text-anchor="middle" fill="black" transform="matrix(1, 0, 0, 1, 30.567847177968382, 97.59972864162602)">B18</text></g><g transform="matrix(1, 0, 0, 1, 180.5, 337.67015320479334)" data-class-name="Node" data-key="-7"/><g transform="matrix(1, 0, 0, 1, 210.5, 337.67015320479334)" data-class-name="Node" data-key="-8"/><g transform="matrix(1, 0, 0, 1, 103.29191084593892, 61.541036434030616)" data-class-name="Node" data-key="-9"/><g transform="matrix(1, 0, 0, 1, 116.15773543350377, 223.40003265834338)" data-class-name="Node" data-key="-10"/><g transform="matrix(1, 0, 0, 1, 57.12648418163266, 47.041036434030616)" data-class-name="Link" data-key="-1" data-from-key="328" data-to-key="329"><g transform="matrix(1, 0, 0, 1, 32.20546572680625, 0)"><text x="0" y="10.558374023437501" style="font: 13px sans-serif" text-anchor="start" fill="black" transform="matrix(1, 0, 0, 1, 0, 0)">1990</text></g><path stroke="#000000" fill="none" stroke-width="2.5" stroke-linecap="butt" stroke-linejoin="miter" stroke-miterlimit="10" d="M 0,0 L 90.8308533286125,0.6576379059407529" transform="matrix(1, 0, 0, 1, 1.25, 14.67118104702962)"/></g><g transform="matrix(1, 0, 0, 1, 73.7109375, 208.90003265834338)" data-class-name="Link" data-key="-2" data-from-key="331" data-to-key="330"><path stroke="#000000" fill="none" stroke-width="2.5" stroke-linecap="butt" stroke-linejoin="miter" stroke-miterlimit="10" d="M 83.39359586700755,0 L 0,0.7137691910243689" transform="matrix(1, 0, 0, 1, 1.25, 14.643115404487816)"/><path stroke="black" fill="black" stroke-width="2" stroke-linecap="butt" stroke-linejoin="miter" stroke-miterlimit="10" d="M 0,10 L 13,0" transform="matrix(1, 0, 0, 1, 19.76807876010227, 10.142753838204868)"/><g transform="matrix(1, 0, 0, 1, 28.486836996003774, 0)"><text x="0" y="10.558374023437501" style="font: 13px sans-serif" text-anchor="start" fill="black" transform="matrix(1, 0, 0, 1, 0, 0)">2014</text></g></g></g><g transform="matrix(1.0272610176213168, 0, 0, 1.0272610176213168, 368.09691489971345, 1.9563050881063977)"/></g><clipPath id="mainClip12269"><rect x="0" y="0" width="922px" height="430px"/></clipPath></svg>